<?xml version="1.0" encoding="UTF-8" standalone="no"?>
<svg
   xmlns:dc="http://purl.org/dc/elements/1.1/"
   xmlns:cc="http://creativecommons.org/ns#"
   xmlns:rdf="http://www.w3.org/1999/02/22-rdf-syntax-ns#"
   xmlns:svg="http://www.w3.org/2000/svg"
   xmlns="http://www.w3.org/2000/svg"
   xmlns:sodipodi="http://sodipodi.sourceforge.net/DTD/sodipodi-0.dtd"
   xmlns:inkscape="http://www.inkscape.org/namespaces/inkscape"
   width="366pt"
   height="61pt"
   viewBox="0 0 366 61"
   version="1.1"
   id="svg65"
   sodipodi:docname="face-detection-model.svg"
   inkscape:version="0.92.4 5da689c313, 2019-01-14">
  <metadata
     id="metadata71">
    <rdf:RDF>
      <cc:Work
         rdf:about="">
        <dc:format>image/svg+xml</dc:format>
        <dc:type
           rdf:resource="http://purl.org/dc/dcmitype/StillImage" />
        <dc:title />
      </cc:Work>
    </rdf:RDF>
  </metadata>
  <defs
     id="defs69" />
  <sodipodi:namedview
     pagecolor="#ffffff"
     bordercolor="#666666"
     borderopacity="1"
     objecttolerance="10"
     gridtolerance="10"
     guidetolerance="10"
     inkscape:pageopacity="0"
     inkscape:pageshadow="2"
     inkscape:window-width="2550"
     inkscape:window-height="1373"
     id="namedview67"
     showgrid="false"
     inkscape:zoom="1"
     inkscape:cx="178.0121"
     inkscape:cy="53.007671"
     inkscape:window-x="0"
     inkscape:window-y="0"
     inkscape:window-maximized="0"
     inkscape:current-layer="surface1" />
  <g
     id="surface1"
     transform="translate(2e-5)">
    <path
       style="fill:#ffffff;fill-opacity:1;fill-rule:nonzero;stroke:#000000;stroke-width:1;stroke-linecap:round;stroke-linejoin:round;stroke-miterlimit:10;stroke-opacity:1"
       d="m 142.5,19.903125 h 83 v 31.5 h -83 z m 0,0"
       id="path2"
       inkscape:connector-curvature="0"
       transform="matrix(1.25,0,0,1.25,-17.5,-13.75)" />
    <path
       style="fill:#ffffff;fill-opacity:1;fill-rule:nonzero;stroke:none"
       d="M 27.617188,10.59375 64.644531,47.625 51.890625,60.382812 14.859375,23.351562 Z m 0,0"
       id="path32"
       inkscape:connector-curvature="0" />
    <path
       style="fill:#ffffff;fill-opacity:1;fill-rule:nonzero;stroke:none"
       d="M 50.113281,1.25 63.59375,14.734375 28.613281,49.722656 15.125,36.234375 Z m 0,0"
       id="path34"
       inkscape:connector-curvature="0" />
    <path
       style="fill:#000000;fill-opacity:1;fill-rule:nonzero;stroke:none"
       d="m 20.445312,38.945312 c -0.816406,0.929688 -2.125,1.363282 -3.472656,1.363282 -1.347656,0 -2.65625,-0.433594 -3.667968,-1.226563 -0.296876,-0.230469 -0.722657,-0.175781 -0.953126,0.121094 -0.226562,0.304687 -0.171874,0.722656 0.125,0.957031 1.238282,0.980469 2.84375,1.511719 4.496094,1.511719 1.644532,0 3.257813,-0.53125 4.507813,-1.5 0.300781,-0.230469 0.355469,-0.648437 0.121093,-0.953125 -0.230468,-0.3125 -0.664062,-0.351562 -1.15625,-0.273438 z m -6.8125,-6.128906 c 0,-0.75 -0.679687,-1.363281 -1.429687,-1.363281 -0.753906,0 -1.363281,0.613281 -1.363281,1.363281 0,0.753906 0.609375,1.363282 1.363281,1.363282 0.75,0 1.359375,-0.609376 1.429687,-1.363282 z m 3.40625,-17.027344 C 7.9375,15.789062 0.625,23.105469 0.625,32.132812 c 0,9.035157 7.3125,16.347657 16.347656,16.347657 9.027344,0 16.347656,-7.3125 16.347656,-16.347657 0,-9.027343 -7.320312,-16.34375 -16.28125,-16.34375 z M 27.9375,36.21875 c -1.609375,4.855469 -5.941406,8.554688 -11.078125,8.554688 -5.144531,0 -9.476563,-3.699219 -10.953125,-8.8125 -1.617188,-0.144532 -2.898438,-1.605469 -2.898438,-3.429688 0,-1.730469 1.15625,-3.148438 2.6875,-3.40625 2.84375,-1.984375 5.171876,-4.753906 5.898438,-6.878906 v -0.01563 c 1.507812,3.585937 8.25,7.070312 15.785156,6.894531 l 0.410156,-0.03906 c 1.742188,0 3.144532,1.554687 3.144532,3.457031 0,1.878906 -1.386719,3.417969 -2.996094,3.675781 z m -4.769531,-3.402344 c 0,-0.75 -0.675781,-1.363281 -1.429688,-1.363281 -0.753906,0 -1.363281,0.613281 -1.363281,1.363281 0,0.753906 0.609375,1.363282 1.363281,1.363282 0.753907,0 1.363281,-0.609376 1.429688,-1.363282 z m 0,0"
       id="path38"
       inkscape:connector-curvature="0" />
    <path
       style="fill:#000000;fill-opacity:1;fill-rule:nonzero;stroke:none"
       d="m 318.89062,25.359375 v -0.683594 h -0.78125 c -0.14453,0 -0.28515,0.03516 -0.42968,0.09766 -0.14453,0.07031 -0.27344,0.167968 -0.39063,0.292968 -0.11719,0.117188 -0.21484,0.269532 -0.29297,0.449219 -0.0781,0.1875 -0.11718,0.390625 -0.11718,0.625 v 2.050781 c 0,0.195313 -0.0274,0.382813 -0.0781,0.546875 -0.0508,0.171875 -0.125,0.3125 -0.21484,0.429688 -0.0781,0.109375 -0.17578,0.191406 -0.29297,0.253906 -0.10547,0.07031 -0.21485,0.09766 -0.33203,0.09766 v 0.761719 c 0.11718,0 0.22656,0.03516 0.33203,0.09766 0.11719,0.07031 0.21484,0.15625 0.29297,0.273438 0.0898,0.109375 0.16406,0.246094 0.21484,0.410156 0.0508,0.15625 0.0781,0.34375 0.0781,0.546875 v 2.03125 c 0,0.234375 0.0391,0.441406 0.11718,0.625 0.0781,0.195313 0.17578,0.351563 0.29297,0.46875 0.11719,0.128906 0.2461,0.21875 0.39063,0.273437 0.14453,0.0625 0.28515,0.09766 0.42968,0.09766 h 0.78125 V 34.44142 h -0.5664 c -0.10547,0 -0.19531,-0.03516 -0.27344,-0.09766 -0.0664,-0.05469 -0.11719,-0.125 -0.15625,-0.214844 -0.0391,-0.09375 -0.0664,-0.195312 -0.0781,-0.3125 -0.0117,-0.117187 -0.0195,-0.234375 -0.0195,-0.351562 v -2.03125 c 0,-0.28125 -0.0469,-0.515625 -0.13671,-0.703125 -0.0781,-0.195313 -0.16797,-0.351563 -0.27344,-0.46875 -0.10547,-0.117188 -0.20703,-0.199219 -0.3125,-0.253907 -0.10547,-0.04687 -0.19531,-0.08203 -0.27344,-0.09766 v -0.01953 c 0.0781,-0.02344 0.16797,-0.0625 0.27344,-0.117187 0.10547,-0.0625 0.20703,-0.15625 0.3125,-0.273438 0.10547,-0.117188 0.19531,-0.261719 0.27344,-0.449219 0.0898,-0.179687 0.13671,-0.410156 0.13671,-0.683593 v -2.050782 c 0,-0.117187 0.008,-0.234375 0.0195,-0.351562 0.0117,-0.117188 0.0391,-0.21875 0.0781,-0.3125 0.0391,-0.08594 0.0898,-0.160156 0.15625,-0.214844 0.0781,-0.04687 0.16797,-0.07813 0.27344,-0.07813 z m 0,0"
       id="path40"
       inkscape:connector-curvature="0" />
    <path
       style="fill:#000000;fill-opacity:1;fill-rule:nonzero;stroke:none"
       d="m 322.17187,33.679688 c -0.11718,0.285156 -0.23437,0.527343 -0.35156,0.722656 -0.10937,0.195312 -0.22656,0.351562 -0.35156,0.46875 -0.13281,0.128906 -0.27344,0.21875 -0.42969,0.273437 -0.15625,0.05078 -0.34765,0.07813 -0.5664,0.07813 -0.10938,0 -0.21485,-0.0078 -0.33204,-0.01953 -0.11718,-0.01563 -0.23046,-0.03906 -0.33203,-0.07813 v -0.878906 c 0.0859,0.03906 0.1836,0.07031 0.29297,0.09766 0.10156,0.02344 0.19531,0.03906 0.27344,0.03906 0.19531,0 0.35547,-0.04687 0.48828,-0.136718 0.125,-0.09375 0.23438,-0.230469 0.3125,-0.410156 l 0.39063,-0.976563 -2.30469,-5.78125 h 1.07422 l 1.69922,4.765625 h 0.0195 l 1.64062,-4.765625 h 0.9961 z m 0,0"
       id="path42"
       inkscape:connector-curvature="0" />
    <path
       style="fill:#000000;fill-opacity:1;fill-rule:nonzero;stroke:none"
       d="m 329.55469,29.441406 h -3.33985 c 0.008,-0.234375 0.0586,-0.449218 0.13672,-0.644531 0.0781,-0.195313 0.1836,-0.359375 0.33203,-0.507813 0.14063,-0.15625 0.3125,-0.277343 0.50782,-0.371093 0.20312,-0.08594 0.43359,-0.136719 0.68359,-0.136719 0.23437,0 0.44922,0.05078 0.64453,0.136719 0.20313,0.09375 0.37891,0.210937 0.52734,0.351562 0.14063,0.148438 0.25391,0.324219 0.33204,0.527344 0.0859,0.195313 0.14453,0.410156 0.17578,0.644531 z m 0.91797,1.621094 h -0.95704 c -0.0781,0.382812 -0.25,0.664062 -0.50781,0.859375 -0.26562,0.1875 -0.59765,0.273437 -0.99609,0.273437 -0.3125,0 -0.58594,-0.04687 -0.82031,-0.15625 -0.23438,-0.101562 -0.42969,-0.238281 -0.58594,-0.410156 -0.14844,-0.179687 -0.25,-0.390625 -0.3125,-0.625 -0.0703,-0.234375 -0.0937,-0.472656 -0.0781,-0.722656 h 4.33594 c 0.0234,-0.351562 0,-0.722656 -0.0781,-1.113281 -0.0781,-0.390625 -0.22657,-0.746094 -0.42969,-1.074219 -0.21094,-0.335938 -0.48828,-0.609375 -0.83985,-0.820312 -0.34375,-0.21875 -0.76171,-0.332032 -1.26953,-0.332032 -0.40625,0 -0.77734,0.07813 -1.11328,0.234375 -0.32812,0.148438 -0.61719,0.351563 -0.85937,0.625 -0.25,0.273438 -0.44141,0.597657 -0.56641,0.957031 -0.13281,0.367188 -0.19531,0.773438 -0.19531,1.210938 0.008,0.445312 0.0781,0.855469 0.19531,1.230469 0.11719,0.382812 0.28125,0.703125 0.50781,0.976562 0.23438,0.265625 0.51563,0.46875 0.85938,0.625 0.35156,0.140625 0.76172,0.214844 1.23047,0.214844 0.64843,0 1.1914,-0.160156 1.62109,-0.488281 0.4375,-0.320313 0.72656,-0.808594 0.85938,-1.464844 z m 0,0"
       id="path44"
       inkscape:connector-curvature="0" />
    <path
       style="fill:#000000;fill-opacity:1;fill-rule:nonzero;stroke:none"
       d="m 332.13672,31.0625 h -0.95703 c 0.0117,0.367188 0.082,0.675781 0.21484,0.917969 0.14063,0.25 0.32422,0.449219 0.54688,0.605469 0.21875,0.15625 0.47265,0.269531 0.76171,0.332031 0.29688,0.0625 0.60938,0.09766 0.9375,0.09766 0.28516,0 0.57813,-0.02734 0.87891,-0.07813 0.29688,-0.04687 0.56641,-0.144531 0.80078,-0.292969 0.23438,-0.140625 0.42188,-0.332031 0.56641,-0.566406 0.15625,-0.234375 0.23437,-0.527344 0.23437,-0.878906 0,-0.273438 -0.0586,-0.496094 -0.17578,-0.683594 -0.10547,-0.195313 -0.25,-0.351563 -0.42969,-0.46875 -0.17187,-0.125 -0.37109,-0.234375 -0.60546,-0.3125 -0.22266,-0.07813 -0.45704,-0.140625 -0.70313,-0.195313 -0.22266,-0.04687 -0.44531,-0.09766 -0.66406,-0.136718 -0.22266,-0.04687 -0.42578,-0.105469 -0.60547,-0.175782 -0.18359,-0.07812 -0.33203,-0.164062 -0.44922,-0.273437 -0.11719,-0.117187 -0.17578,-0.253906 -0.17578,-0.410156 0,-0.15625 0.0391,-0.277344 0.11719,-0.371094 0.0781,-0.08594 0.17578,-0.160156 0.29297,-0.214844 0.11718,-0.0625 0.24609,-0.105469 0.39062,-0.136719 0.14063,-0.02344 0.28516,-0.03906 0.42969,-0.03906 0.15625,0 0.3125,0.01953 0.46875,0.05859 0.15625,0.03906 0.29687,0.09766 0.42969,0.175781 0.1289,0.07031 0.23437,0.167969 0.3125,0.292969 0.0781,0.117187 0.1289,0.273437 0.15625,0.46875 h 0.9375 c -0.0156,-0.351563 -0.0859,-0.644532 -0.21485,-0.878906 -0.13281,-0.242188 -0.30859,-0.433594 -0.52734,-0.566407 -0.21094,-0.140625 -0.44922,-0.238281 -0.72266,-0.292969 -0.27344,-0.0625 -0.58203,-0.09766 -0.91797,-0.09766 -0.25,0 -0.5039,0.03516 -0.76172,0.09766 -0.26171,0.07031 -0.49609,0.167969 -0.70312,0.292969 -0.21094,0.132813 -0.37891,0.308594 -0.50781,0.527344 -0.13282,0.210937 -0.19532,0.460937 -0.19532,0.742187 0,0.382813 0.0899,0.675782 0.27344,0.878907 0.19531,0.210937 0.42969,0.371093 0.70313,0.488281 0.28515,0.117188 0.58984,0.210938 0.91797,0.273438 0.33593,0.07031 0.64453,0.136718 0.91796,0.214843 0.28516,0.07813 0.51954,0.1875 0.70313,0.3125 0.19531,0.117188 0.29297,0.304688 0.29297,0.546875 0,0.1875 -0.0469,0.332032 -0.13672,0.449219 -0.0937,0.117187 -0.21094,0.210937 -0.35156,0.273437 -0.13282,0.05469 -0.28125,0.09375 -0.44922,0.117188 -0.17188,0.03125 -0.32813,0.03906 -0.46875,0.03906 -0.19531,0 -0.38672,-0.01953 -0.56641,-0.05859 -0.18359,-0.03906 -0.35156,-0.09766 -0.50781,-0.175781 -0.14453,-0.08594 -0.26172,-0.203126 -0.35156,-0.351563 -0.0937,-0.15625 -0.13672,-0.335937 -0.13672,-0.546875 z m 0,0"
       id="path46"
       inkscape:connector-curvature="0" />
    <path
       style="fill:#000000;fill-opacity:1;fill-rule:nonzero;stroke:none"
       d="m 337.39062,31.648438 v 1.25 h 0.66407 c 0,0.08984 -0.0156,0.1875 -0.0391,0.292968 -0.0156,0.101563 -0.0469,0.207032 -0.0976,0.3125 -0.0547,0.101563 -0.125,0.195313 -0.21485,0.273438 -0.0781,0.08984 -0.18359,0.15625 -0.3125,0.195312 v 0.566406 c 0.44141,-0.132812 0.76172,-0.351562 0.95704,-0.664062 0.19531,-0.300781 0.29296,-0.664062 0.29296,-1.09375 v -1.132812 z m 0,0"
       id="path48"
       inkscape:connector-curvature="0" />
    <path
       style="fill:#000000;fill-opacity:1;fill-rule:nonzero;stroke:none"
       d="m 343.42969,27.078125 v 5.820313 h 0.95703 v -3.28125 c 0,-0.257813 0.0312,-0.496094 0.0976,-0.722657 0.0781,-0.21875 0.1875,-0.414062 0.33204,-0.585937 0.14453,-0.164063 0.32031,-0.296875 0.52734,-0.390625 0.20703,-0.08594 0.46094,-0.136719 0.76172,-0.136719 0.36328,0 0.65234,0.113281 0.85937,0.332031 0.20703,0.210938 0.3125,0.488281 0.3125,0.839844 v 3.945313 h 0.95703 v -3.828126 c 0,-0.3125 -0.0312,-0.59375 -0.0976,-0.859374 -0.0508,-0.257813 -0.16406,-0.476563 -0.33203,-0.664063 -0.15625,-0.195313 -0.36328,-0.339844 -0.625,-0.449219 -0.2461,-0.101562 -0.5586,-0.15625 -0.9375,-0.15625 -0.85938,0 -1.49219,0.351563 -1.89453,1.054688 h -0.0195 v -0.917969 z m 0,0"
       id="path50"
       inkscape:connector-curvature="0" />
    <path
       style="fill:#000000;fill-opacity:1;fill-rule:nonzero;stroke:none"
       d="m 350.39062,29.988281 c 0,-0.351562 0.043,-0.664062 0.13672,-0.9375 0.0859,-0.273437 0.21485,-0.496093 0.3711,-0.683593 0.16406,-0.195313 0.35937,-0.335938 0.58593,-0.429688 0.21875,-0.101562 0.45313,-0.15625 0.70313,-0.15625 0.24219,0 0.47656,0.05469 0.70312,0.15625 0.21875,0.09375 0.41407,0.234375 0.58594,0.429688 0.16406,0.1875 0.29688,0.410156 0.39063,0.683593 0.0859,0.273438 0.13672,0.585938 0.13672,0.9375 0,0.351563 -0.0508,0.675781 -0.13672,0.957031 -0.0937,0.273438 -0.22657,0.503907 -0.39063,0.683594 -0.17187,0.1875 -0.36719,0.328125 -0.58594,0.429688 -0.22656,0.09375 -0.46093,0.136718 -0.70312,0.136718 -0.25,0 -0.48438,-0.04297 -0.70313,-0.136718 -0.22656,-0.101563 -0.42187,-0.242188 -0.58593,-0.429688 -0.15625,-0.179687 -0.28516,-0.410156 -0.3711,-0.683594 -0.0937,-0.28125 -0.13672,-0.605468 -0.13672,-0.957031 z m -1.01562,0 c 0,0.429688 0.0586,0.835938 0.17578,1.210938 0.11719,0.367187 0.29297,0.683593 0.52734,0.957031 0.24219,0.273438 0.54688,0.488281 0.89844,0.644531 0.35156,0.140625 0.75,0.214844 1.21094,0.214844 0.46875,0 0.87891,-0.07422 1.23047,-0.214844 0.35156,-0.15625 0.64453,-0.371093 0.8789,-0.644531 0.23438,-0.273438 0.41016,-0.589844 0.52735,-0.957031 0.125,-0.375 0.19531,-0.78125 0.19531,-1.210938 0,-0.414062 -0.0703,-0.804687 -0.19531,-1.171875 -0.11719,-0.375 -0.29297,-0.703125 -0.52735,-0.976562 -0.23437,-0.28125 -0.52734,-0.507813 -0.8789,-0.664063 -0.35156,-0.15625 -0.76172,-0.234375 -1.23047,-0.234375 -0.46094,0 -0.85938,0.07813 -1.21094,0.234375 -0.35156,0.15625 -0.65625,0.382813 -0.89844,0.664063 -0.23437,0.273437 -0.41015,0.601562 -0.52734,0.976562 -0.11719,0.367188 -0.17578,0.757813 -0.17578,1.171875 z m 0,0"
       id="path52"
       inkscape:connector-curvature="0" />
    <path
       style="fill:#000000;fill-opacity:1;fill-rule:nonzero;stroke:none"
       d="m 355.69531,34.441406 v 0.664063 h 0.78125 c 0.14063,0 0.28125,-0.03516 0.42969,-0.09766 0.14062,-0.05469 0.27344,-0.144531 0.39062,-0.273437 0.11719,-0.117187 0.20313,-0.273437 0.27344,-0.46875 0.0781,-0.183594 0.11719,-0.390625 0.11719,-0.625 v -2.03125 c 0,-0.195313 0.0234,-0.371094 0.0781,-0.527344 0.0469,-0.164062 0.1211,-0.3125 0.21485,-0.429687 0.0859,-0.117188 0.18359,-0.203125 0.29297,-0.273438 0.11718,-0.0625 0.23437,-0.09766 0.35156,-0.09766 v -0.761719 c -0.11719,0 -0.23438,-0.02344 -0.35156,-0.07813 -0.10938,-0.0625 -0.20703,-0.15625 -0.29297,-0.273437 -0.0937,-0.117188 -0.16797,-0.253907 -0.21485,-0.410157 -0.0547,-0.164062 -0.0781,-0.355468 -0.0781,-0.566406 v -2.050781 c 0,-0.234375 -0.0391,-0.4375 -0.11719,-0.625 -0.0703,-0.179687 -0.15625,-0.332031 -0.27344,-0.449219 -0.11718,-0.125 -0.25,-0.222656 -0.39062,-0.292968 -0.14844,-0.0625 -0.28906,-0.09766 -0.42969,-0.09766 h -0.78125 v 0.683594 h 0.56641 c 0.10156,0 0.18359,0.03125 0.2539,0.07813 0.0781,0.05469 0.13672,0.132812 0.17579,0.234375 0.0391,0.09375 0.0625,0.195313 0.0781,0.3125 0.008,0.109375 0.0195,0.226563 0.0195,0.351563 v 2.03125 c 0,0.289062 0.0391,0.527343 0.11719,0.722656 0.0781,0.1875 0.16406,0.332031 0.27344,0.449218 0.10156,0.117188 0.20312,0.207032 0.3125,0.253907 0.11718,0.05469 0.20312,0.08984 0.27343,0.09766 v 0.01953 c -0.0703,0.03125 -0.15625,0.07422 -0.27343,0.136719 -0.10938,0.05469 -0.21094,0.136719 -0.3125,0.253906 -0.10938,0.117188 -0.19532,0.269531 -0.27344,0.449219 -0.0781,0.1875 -0.11719,0.410156 -0.11719,0.683594 v 2.03125 c 0,0.128906 -0.0117,0.246094 -0.0195,0.351562 -0.0156,0.117188 -0.0391,0.21875 -0.0781,0.3125 -0.0391,0.08984 -0.0977,0.160156 -0.17579,0.214844 -0.0703,0.0625 -0.15234,0.09766 -0.2539,0.09766 z m 0,0"
       id="path54"
       inkscape:connector-curvature="0" />
    <path
       style="fill:none;stroke:#000000;stroke-width:1;stroke-linecap:round;stroke-linejoin:round;stroke-miterlimit:10;stroke-opacity:1"
       d="m 111.5,35.25625 18.1,-0.075"
       transform="matrix(1.25,0,0,1.25,-17.5,-13.75)"
       id="path56"
       inkscape:connector-curvature="0" />
    <path
       style="fill:none;stroke:#000000;stroke-width:1;stroke-linecap:butt;stroke-linejoin:miter;stroke-miterlimit:10;stroke-opacity:1"
       d="m 133.6,35.159375 -4,0.02188 m -0.006,-1.5 4.00625,1.478125 -3.99375,1.521875"
       transform="matrix(1.25,0,0,1.25,-17.5,-13.75)"
       id="path58"
       inkscape:connector-curvature="0" />
    <path
       style="fill:none;stroke:#000000;stroke-width:1;stroke-linecap:round;stroke-linejoin:round;stroke-miterlimit:10;stroke-opacity:1"
       d="m 232.5,35.25625 18.1,-0.075"
       transform="matrix(1.25,0,0,1.25,-17.5,-13.75)"
       id="path60"
       inkscape:connector-curvature="0" />
    <path
       style="fill:none;stroke:#000000;stroke-width:1;stroke-linecap:butt;stroke-linejoin:miter;stroke-miterlimit:10;stroke-opacity:1"
       d="m 254.6,35.159375 -4,0.02188 m -0.006,-1.5 4.00625,1.478125 -3.99375,1.521875"
       transform="matrix(1.25,0,0,1.25,-17.5,-13.75)"
       id="path62"
       inkscape:connector-curvature="0" />
    <text
       xml:space="preserve"
       style="font-style:normal;font-weight:normal;font-size:8.72221184px;line-height:1.25;font-family:sans-serif;letter-spacing:0px;word-spacing:0px;fill:#000000;fill-opacity:1;stroke:none;stroke-width:2.18055296"
       x="164.55301"
       y="27.872135"
       id="text4587"><tspan
         sodipodi:role="line"
         id="tspan4585"
         x="164.55301"
         y="27.872135"
         style="stroke-width:2.18055296">Face Detection </tspan><tspan
         sodipodi:role="line"
         x="164.55301"
         y="38.774899"
         style="stroke-width:2.18055296"
         id="tspan834">Model</tspan></text>
    <path
       id="path4707"
       d="m 88.472666,29.718741 q 0,-0.41699 -0.268067,-0.685058 -0.268067,-0.268067 -0.685058,-0.268067 -1.96582,0 -3.365726,1.399901 -1.3999,1.399905 -1.3999,3.365725 0,0.416991 0.268067,0.685058 0.268062,0.268067 0.685058,0.268067 0.416991,0 0.685058,-0.268067 0.268067,-0.268067 0.268067,-0.685058 0,-1.191408 0.833982,-2.025389 0.833986,-0.833986 2.025394,-0.833986 0.416991,0 0.685058,-0.268068 0.268067,-0.268067 0.268067,-0.685058 z m 6.671877,3.87207 q 0,3.157228 -2.233887,5.391121 -2.233887,2.233887 -5.391115,2.233887 -3.157227,0 -5.391115,-2.233887 -2.233887,-2.233893 -2.233887,-5.391121 0,-3.157227 2.233887,-5.391114 2.233888,-2.233887 5.391115,-2.233887 3.157228,0 5.391115,2.233887 2.233887,2.233887 2.233887,5.391114 z M 64.644531,50.687501 H 110.39455 V 46.875 H 64.644531 Z m 34.312512,-17.09669 q 0,-4.735841 -3.35083,-8.086671 -3.350831,-3.350831 -8.086672,-3.350831 -4.735841,0 -8.086672,3.350831 -3.35083,3.35083 -3.35083,8.086671 0,4.735842 3.35083,8.086678 3.350831,3.35083 8.086672,3.35083 4.735841,0 8.086672,-3.35083 3.35083,-3.350836 3.35083,-8.086678 z M 68.457032,14.468733 H 79.894539 V 10.656232 H 68.457032 Z m -3.812501,5.718756 H 110.39455 V 12.562482 H 85.732429 l -1.90625,3.812507 H 64.644531 Z m 49.562519,-7.625007 v 38.125019 q 0,1.578614 -1.11694,2.695557 -1.11695,1.116944 -2.69556,1.116944 H 64.644531 q -1.578614,0 -2.695557,-1.116944 Q 60.83203,52.266115 60.83203,50.687501 V 12.562482 q 0,-1.578614 1.116944,-2.695557 1.116943,-1.116944 2.695557,-1.116944 h 45.750019 q 1.57861,0 2.69556,1.116944 1.11694,1.116943 1.11694,2.695557 z"
       inkscape:connector-curvature="0"
       style="stroke-width:0.02978517" />
  </g>
</svg>
