<?xml version="1.0" encoding="UTF-8"?>
<svg xmlns="http://www.w3.org/2000/svg" xmlns:xlink="http://www.w3.org/1999/xlink" width="371pt" height="119pt" viewBox="0 0 371 119" version="1.1">
<g id="surface1">
<path style="fill-rule:nonzero;fill:rgb(100%,100%,100%);fill-opacity:1;stroke-width:1;stroke-linecap:round;stroke-linejoin:round;stroke:rgb(0%,0%,0%);stroke-opacity:1;stroke-miterlimit:10;" d="M 91.5 164 L 166.5 164 L 166.5 195.5 L 91.5 195.5 Z M 91.5 164 " transform="matrix(1.25,0,0,1.25,-113.75,-165)"/>
<path style=" stroke:none;fill-rule:nonzero;fill:rgb(0%,0%,0%);fill-opacity:1;" d="M 9.277344 62.8125 L 9.277344 54.765625 L 12.050781 54.765625 C 12.683594 54.765625 13.167969 54.804688 13.496094 54.882812 C 13.949219 54.992188 14.339844 55.175781 14.667969 55.449219 C 15.097656 55.816406 15.414062 56.28125 15.625 56.835938 C 15.828125 57.382812 15.9375 58.023438 15.9375 58.75 C 15.9375 59.367188 15.863281 59.902344 15.722656 60.371094 C 15.574219 60.839844 15.394531 61.230469 15.175781 61.542969 C 14.949219 61.855469 14.707031 62.105469 14.433594 62.285156 C 14.167969 62.457031 13.851562 62.585938 13.476562 62.675781 C 13.109375 62.769531 12.679688 62.8125 12.1875 62.8125 Z M 10.351562 61.855469 L 12.070312 61.855469 C 12.601562 61.855469 13.015625 61.8125 13.320312 61.71875 C 13.617188 61.617188 13.855469 61.476562 14.042969 61.289062 C 14.285156 61.046875 14.480469 60.703125 14.628906 60.273438 C 14.769531 59.84375 14.84375 59.332031 14.84375 58.730469 C 14.84375 57.886719 14.707031 57.242188 14.433594 56.796875 C 14.160156 56.34375 13.816406 56.035156 13.417969 55.878906 C 13.128906 55.761719 12.675781 55.703125 12.050781 55.703125 L 10.351562 55.703125 Z M 10.351562 61.855469 "/>
<path style=" stroke:none;fill-rule:nonzero;fill:rgb(0%,0%,0%);fill-opacity:1;" d="M 21.265625 60.9375 L 22.300781 61.054688 C 22.132812 61.65625 21.824219 62.125 21.382812 62.460938 C 20.953125 62.789062 20.398438 62.949219 19.722656 62.949219 C 18.875 62.949219 18.199219 62.691406 17.691406 62.167969 C 17.195312 61.636719 16.949219 60.894531 16.949219 59.941406 C 16.949219 58.964844 17.203125 58.210938 17.710938 57.675781 C 18.21875 57.128906 18.875 56.855469 19.683594 56.855469 C 20.464844 56.855469 21.097656 57.125 21.578125 57.65625 C 22.074219 58.179688 22.320312 58.921875 22.320312 59.882812 C 22.320312 59.953125 22.320312 60.039062 22.320312 60.15625 L 17.964844 60.15625 C 18.003906 60.796875 18.1875 61.285156 18.511719 61.621094 C 18.835938 61.960938 19.246094 62.128906 19.742188 62.128906 C 20.105469 62.128906 20.414062 62.039062 20.660156 61.855469 C 20.921875 61.660156 21.121094 61.359375 21.265625 60.9375 Z M 18.023438 59.335938 L 21.285156 59.335938 C 21.246094 58.84375 21.121094 58.472656 20.914062 58.222656 C 20.601562 57.847656 20.191406 57.65625 19.683594 57.65625 C 19.226562 57.65625 18.84375 57.8125 18.53125 58.125 C 18.230469 58.429688 18.0625 58.828125 18.023438 59.335938 Z M 18.023438 59.335938 "/>
<path style=" stroke:none;fill-rule:nonzero;fill:rgb(0%,0%,0%);fill-opacity:1;" d="M 23.148438 61.074219 L 24.125 60.917969 C 24.175781 61.308594 24.328125 61.609375 24.574219 61.816406 C 24.835938 62.027344 25.1875 62.128906 25.628906 62.128906 C 26.085938 62.128906 26.421875 62.039062 26.644531 61.855469 C 26.867188 61.675781 26.976562 61.460938 26.976562 61.210938 C 26.976562 60.976562 26.878906 60.800781 26.683594 60.683594 C 26.539062 60.59375 26.203125 60.476562 25.667969 60.332031 C 24.9375 60.152344 24.429688 59.996094 24.144531 59.863281 C 23.871094 59.734375 23.664062 59.550781 23.519531 59.316406 C 23.375 59.082031 23.304688 58.824219 23.304688 58.535156 C 23.304688 58.277344 23.363281 58.039062 23.480469 57.8125 C 23.597656 57.59375 23.761719 57.402344 23.96875 57.246094 C 24.125 57.144531 24.332031 57.050781 24.59375 56.972656 C 24.867188 56.894531 25.152344 56.855469 25.453125 56.855469 C 25.910156 56.855469 26.304688 56.921875 26.644531 57.050781 C 26.996094 57.183594 27.257812 57.359375 27.425781 57.578125 C 27.59375 57.804688 27.710938 58.101562 27.777344 58.476562 L 26.800781 58.613281 C 26.761719 58.316406 26.632812 58.082031 26.410156 57.910156 C 26.203125 57.742188 25.910156 57.65625 25.53125 57.65625 C 25.074219 57.65625 24.75 57.734375 24.554688 57.890625 C 24.359375 58.039062 24.261719 58.210938 24.261719 58.417969 C 24.261719 58.550781 24.300781 58.664062 24.378906 58.75 C 24.457031 58.867188 24.585938 58.960938 24.769531 59.023438 C 24.859375 59.0625 25.148438 59.148438 25.628906 59.277344 C 26.332031 59.460938 26.820312 59.609375 27.09375 59.726562 C 27.378906 59.84375 27.601562 60.019531 27.757812 60.253906 C 27.914062 60.476562 27.992188 60.757812 27.992188 61.09375 C 27.992188 61.4375 27.894531 61.75 27.699219 62.03125 C 27.503906 62.320312 27.222656 62.546875 26.859375 62.714844 C 26.507812 62.871094 26.097656 62.949219 25.628906 62.949219 C 24.875 62.949219 24.292969 62.792969 23.890625 62.480469 C 23.5 62.15625 23.253906 61.6875 23.148438 61.074219 Z M 23.148438 61.074219 "/>
<path style=" stroke:none;fill-rule:nonzero;fill:rgb(0%,0%,0%);fill-opacity:1;" d="M 29.164062 55.898438 L 29.164062 54.765625 L 30.160156 54.765625 L 30.160156 55.898438 Z M 29.164062 62.8125 L 29.164062 56.972656 L 30.160156 56.972656 L 30.160156 62.8125 Z M 29.164062 62.8125 "/>
<path style=" stroke:none;fill-rule:nonzero;fill:rgb(0%,0%,0%);fill-opacity:1;" d="M 31.488281 63.300781 L 32.445312 63.4375 C 32.484375 63.734375 32.59375 63.949219 32.777344 64.082031 C 33.023438 64.261719 33.363281 64.355469 33.792969 64.355469 C 34.25 64.355469 34.601562 64.261719 34.847656 64.082031 C 35.09375 63.898438 35.265625 63.640625 35.355469 63.320312 C 35.40625 63.109375 35.425781 62.691406 35.414062 62.050781 C 34.984375 62.558594 34.449219 62.8125 33.8125 62.8125 C 33.003906 62.8125 32.378906 62.53125 31.9375 61.953125 C 31.507812 61.367188 31.292969 60.671875 31.292969 59.863281 C 31.292969 59.304688 31.390625 58.789062 31.585938 58.320312 C 31.792969 57.851562 32.085938 57.496094 32.464844 57.246094 C 32.84375 56.988281 33.292969 56.855469 33.8125 56.855469 C 34.503906 56.855469 35.070312 57.128906 35.511719 57.675781 L 35.511719 56.972656 L 36.429688 56.972656 L 36.429688 62.011719 C 36.429688 62.921875 36.332031 63.5625 36.136719 63.945312 C 35.953125 64.320312 35.660156 64.617188 35.257812 64.84375 C 34.867188 65.0625 34.378906 65.175781 33.792969 65.175781 C 33.089844 65.175781 32.523438 65.019531 32.09375 64.707031 C 31.675781 64.394531 31.476562 63.925781 31.488281 63.300781 Z M 32.308594 59.785156 C 32.308594 60.554688 32.457031 61.113281 32.757812 61.464844 C 33.058594 61.816406 33.433594 61.992188 33.890625 61.992188 C 34.347656 61.992188 34.730469 61.816406 35.042969 61.464844 C 35.355469 61.113281 35.511719 60.566406 35.511719 59.824219 C 35.511719 59.109375 35.347656 58.570312 35.023438 58.203125 C 34.710938 57.84375 34.332031 57.65625 33.890625 57.65625 C 33.449219 57.65625 33.070312 57.84375 32.757812 58.203125 C 32.457031 58.554688 32.308594 59.082031 32.308594 59.785156 Z M 32.308594 59.785156 "/>
<path style=" stroke:none;fill-rule:nonzero;fill:rgb(0%,0%,0%);fill-opacity:1;" d="M 37.921875 62.8125 L 37.921875 56.972656 L 38.820312 56.972656 L 38.820312 57.8125 C 39.234375 57.179688 39.855469 56.855469 40.675781 56.855469 C 41.027344 56.855469 41.34375 56.921875 41.632812 57.050781 C 41.929688 57.167969 42.152344 57.335938 42.296875 57.539062 C 42.4375 57.734375 42.542969 57.976562 42.609375 58.261719 C 42.648438 58.445312 42.667969 58.765625 42.667969 59.21875 L 42.667969 62.8125 L 41.671875 62.8125 L 41.671875 59.257812 C 41.671875 58.859375 41.632812 58.554688 41.554688 58.359375 C 41.476562 58.164062 41.339844 58.007812 41.144531 57.890625 C 40.949219 57.765625 40.71875 57.695312 40.460938 57.695312 C 40.042969 57.695312 39.679688 57.832031 39.367188 58.105469 C 39.066406 58.367188 38.917969 58.875 38.917969 59.628906 L 38.917969 62.8125 Z M 37.921875 62.8125 "/>
<path style=" stroke:none;fill-rule:nonzero;fill:rgb(0%,0%,0%);fill-opacity:1;" d="M 51.113281 62.089844 C 50.746094 62.402344 50.394531 62.625 50.058594 62.753906 C 49.71875 62.882812 49.355469 62.949219 48.964844 62.949219 C 48.324219 62.949219 47.832031 62.792969 47.480469 62.480469 C 47.140625 62.167969 46.972656 61.765625 46.972656 61.269531 C 46.972656 60.984375 47.035156 60.722656 47.167969 60.488281 C 47.296875 60.253906 47.464844 60.070312 47.675781 59.921875 C 47.882812 59.78125 48.117188 59.667969 48.378906 59.589844 C 48.574219 59.550781 48.867188 59.507812 49.257812 59.453125 C 50.0625 59.367188 50.65625 59.25 51.035156 59.101562 C 51.035156 58.976562 51.035156 58.886719 51.035156 58.847656 C 51.035156 58.445312 50.941406 58.164062 50.761719 58.007812 C 50.5 57.773438 50.121094 57.65625 49.628906 57.65625 C 49.160156 57.65625 48.8125 57.742188 48.59375 57.910156 C 48.371094 58.066406 48.207031 58.355469 48.105469 58.769531 L 47.148438 58.652344 C 47.226562 58.238281 47.363281 57.90625 47.558594 57.65625 C 47.765625 57.398438 48.058594 57.203125 48.4375 57.070312 C 48.828125 56.929688 49.269531 56.855469 49.765625 56.855469 C 50.273438 56.855469 50.675781 56.914062 50.976562 57.03125 C 51.289062 57.148438 51.515625 57.300781 51.660156 57.480469 C 51.816406 57.652344 51.917969 57.871094 51.972656 58.144531 C 52.011719 58.316406 52.03125 58.613281 52.03125 59.042969 L 52.03125 60.371094 C 52.03125 61.285156 52.050781 61.867188 52.089844 62.109375 C 52.128906 62.359375 52.210938 62.59375 52.34375 62.8125 L 51.308594 62.8125 C 51.203125 62.609375 51.136719 62.363281 51.113281 62.089844 Z M 51.035156 59.882812 C 50.667969 60.03125 50.128906 60.152344 49.414062 60.253906 C 49.007812 60.320312 48.722656 60.390625 48.554688 60.46875 C 48.382812 60.539062 48.253906 60.640625 48.164062 60.78125 C 48.070312 60.929688 48.027344 61.085938 48.027344 61.25 C 48.027344 61.515625 48.125 61.734375 48.320312 61.914062 C 48.515625 62.085938 48.808594 62.167969 49.199219 62.167969 C 49.574219 62.167969 49.914062 62.085938 50.214844 61.914062 C 50.511719 61.75 50.734375 61.519531 50.878906 61.230469 C 50.980469 61.011719 51.035156 60.683594 51.035156 60.253906 Z M 51.035156 59.882812 "/>
<path style=" stroke:none;fill-rule:nonzero;fill:rgb(0%,0%,0%);fill-opacity:1;" d="M 56.6875 62.8125 L 56.6875 56.972656 L 57.566406 56.972656 L 57.566406 57.792969 C 57.746094 57.507812 57.984375 57.28125 58.289062 57.109375 C 58.601562 56.945312 58.953125 56.855469 59.34375 56.855469 C 59.773438 56.855469 60.125 56.949219 60.398438 57.128906 C 60.671875 57.300781 60.867188 57.546875 60.984375 57.871094 C 61.453125 57.195312 62.046875 56.855469 62.78125 56.855469 C 63.367188 56.855469 63.816406 57.023438 64.128906 57.34375 C 64.441406 57.65625 64.597656 58.144531 64.597656 58.808594 L 64.597656 62.8125 L 63.601562 62.8125 L 63.601562 59.140625 C 63.601562 58.742188 63.566406 58.453125 63.503906 58.28125 C 63.449219 58.117188 63.335938 57.976562 63.171875 57.871094 C 63 57.753906 62.800781 57.695312 62.566406 57.695312 C 62.160156 57.695312 61.824219 57.832031 61.550781 58.105469 C 61.277344 58.378906 61.140625 58.820312 61.140625 59.414062 L 61.140625 62.8125 L 60.144531 62.8125 L 60.144531 59.023438 C 60.144531 58.585938 60.066406 58.25 59.910156 58.027344 C 59.753906 57.808594 59.488281 57.695312 59.128906 57.695312 C 58.839844 57.695312 58.582031 57.773438 58.347656 57.929688 C 58.113281 58.078125 57.941406 58.289062 57.839844 58.574219 C 57.730469 58.847656 57.683594 59.253906 57.683594 59.785156 L 57.683594 62.8125 Z M 56.6875 62.8125 "/>
<path style=" stroke:none;fill-rule:nonzero;fill:rgb(0%,0%,0%);fill-opacity:1;" d="M 65.6875 59.902344 C 65.6875 58.824219 65.984375 58.023438 66.585938 57.5 C 67.09375 57.070312 67.703125 56.855469 68.421875 56.855469 C 69.226562 56.855469 69.886719 57.117188 70.394531 57.636719 C 70.902344 58.160156 71.15625 58.882812 71.15625 59.804688 C 71.15625 60.5625 71.039062 61.152344 70.804688 61.582031 C 70.578125 62.011719 70.257812 62.351562 69.828125 62.597656 C 69.398438 62.832031 68.929688 62.949219 68.421875 62.949219 C 67.601562 62.949219 66.9375 62.691406 66.429688 62.167969 C 65.929688 61.636719 65.6875 60.878906 65.6875 59.902344 Z M 66.703125 59.902344 C 66.703125 60.644531 66.863281 61.207031 67.191406 61.582031 C 67.511719 61.949219 67.921875 62.128906 68.421875 62.128906 C 68.914062 62.128906 69.324219 61.949219 69.652344 61.582031 C 69.972656 61.207031 70.140625 60.632812 70.140625 59.863281 C 70.140625 59.148438 69.972656 58.601562 69.652344 58.222656 C 69.324219 57.847656 68.914062 57.65625 68.421875 57.65625 C 67.921875 57.65625 67.511719 57.847656 67.191406 58.222656 C 66.863281 58.589844 66.703125 59.148438 66.703125 59.902344 Z M 66.703125 59.902344 "/>
<path style=" stroke:none;fill-rule:nonzero;fill:rgb(0%,0%,0%);fill-opacity:1;" d="M 76.105469 62.8125 L 76.105469 62.070312 C 75.722656 62.65625 75.175781 62.949219 74.464844 62.949219 C 74.003906 62.949219 73.585938 62.816406 73.195312 62.558594 C 72.804688 62.300781 72.496094 61.945312 72.277344 61.484375 C 72.066406 61.03125 71.964844 60.503906 71.964844 59.902344 C 71.964844 59.316406 72.0625 58.789062 72.257812 58.320312 C 72.453125 57.84375 72.734375 57.476562 73.117188 57.226562 C 73.507812 56.984375 73.941406 56.855469 74.425781 56.855469 C 74.777344 56.855469 75.089844 56.929688 75.363281 57.070312 C 75.636719 57.21875 75.855469 57.414062 76.027344 57.65625 L 76.027344 54.765625 L 77.023438 54.765625 L 77.023438 62.8125 Z M 72.980469 59.902344 C 72.980469 60.644531 73.136719 61.207031 73.449219 61.582031 C 73.761719 61.949219 74.132812 62.128906 74.5625 62.128906 C 74.992188 62.128906 75.351562 61.953125 75.65625 61.601562 C 75.96875 61.25 76.125 60.710938 76.125 59.980469 C 76.125 59.1875 75.96875 58.601562 75.65625 58.222656 C 75.34375 57.847656 74.960938 57.65625 74.523438 57.65625 C 74.078125 57.65625 73.707031 57.84375 73.410156 58.203125 C 73.121094 58.570312 72.980469 59.136719 72.980469 59.902344 Z M 72.980469 59.902344 "/>
<path style=" stroke:none;fill-rule:nonzero;fill:rgb(0%,0%,0%);fill-opacity:1;" d="M 82.558594 60.9375 L 83.59375 61.054688 C 83.421875 61.65625 83.113281 62.125 82.675781 62.460938 C 82.246094 62.789062 81.6875 62.949219 81.015625 62.949219 C 80.164062 62.949219 79.492188 62.691406 78.984375 62.167969 C 78.484375 61.636719 78.242188 60.894531 78.242188 59.941406 C 78.242188 58.964844 78.496094 58.210938 79.003906 57.675781 C 79.511719 57.128906 80.164062 56.855469 80.976562 56.855469 C 81.757812 56.855469 82.386719 57.125 82.871094 57.65625 C 83.363281 58.179688 83.613281 58.921875 83.613281 59.882812 C 83.613281 59.953125 83.613281 60.039062 83.613281 60.15625 L 79.257812 60.15625 C 79.296875 60.796875 79.476562 61.285156 79.804688 61.621094 C 80.125 61.960938 80.535156 62.128906 81.035156 62.128906 C 81.394531 62.128906 81.703125 62.039062 81.953125 61.855469 C 82.210938 61.660156 82.410156 61.359375 82.558594 60.9375 Z M 79.316406 59.335938 L 82.578125 59.335938 C 82.539062 58.84375 82.410156 58.472656 82.207031 58.222656 C 81.894531 57.847656 81.484375 57.65625 80.976562 57.65625 C 80.515625 57.65625 80.136719 57.8125 79.824219 58.125 C 79.519531 58.429688 79.355469 58.828125 79.316406 59.335938 Z M 79.316406 59.335938 "/>
<path style=" stroke:none;fill-rule:nonzero;fill:rgb(0%,0%,0%);fill-opacity:1;" d="M 84.8125 62.8125 L 84.8125 54.765625 L 85.789062 54.765625 L 85.789062 62.8125 Z M 84.8125 62.8125 "/>
<path style="fill-rule:nonzero;fill:rgb(69.803922%,85.098039%,100%);fill-opacity:1;stroke-width:1;stroke-linecap:round;stroke-linejoin:round;stroke:rgb(0%,0%,0%);stroke-opacity:1;stroke-miterlimit:10;" d="M 202 164 L 277 164 L 277 195.5 L 202 195.5 Z M 202 164 " transform="matrix(1.25,0,0,1.25,-113.75,-165)"/>
<path style=" stroke:none;fill-rule:nonzero;fill:rgb(0%,0%,0%);fill-opacity:1;" d="M 153.355469 59.648438 L 153.355469 58.710938 L 156.773438 58.710938 L 156.773438 61.699219 C 156.25 62.117188 155.710938 62.429688 155.152344 62.636719 C 154.589844 62.84375 154.019531 62.949219 153.433594 62.949219 C 152.652344 62.949219 151.933594 62.78125 151.285156 62.441406 C 150.632812 62.105469 150.144531 61.617188 149.820312 60.976562 C 149.492188 60.34375 149.332031 59.625 149.332031 58.828125 C 149.332031 58.046875 149.492188 57.320312 149.820312 56.640625 C 150.144531 55.953125 150.613281 55.445312 151.226562 55.117188 C 151.851562 54.796875 152.558594 54.628906 153.355469 54.628906 C 153.941406 54.628906 154.46875 54.726562 154.9375 54.921875 C 155.40625 55.109375 155.769531 55.367188 156.03125 55.703125 C 156.304688 56.03125 156.511719 56.464844 156.65625 57.011719 L 155.699219 57.265625 C 155.566406 56.867188 155.410156 56.542969 155.230469 56.308594 C 155.058594 56.074219 154.804688 55.890625 154.46875 55.742188 C 154.140625 55.601562 153.769531 55.527344 153.355469 55.527344 C 152.871094 55.527344 152.449219 55.605469 152.085938 55.761719 C 151.734375 55.90625 151.445312 56.101562 151.226562 56.347656 C 151.015625 56.582031 150.855469 56.84375 150.738281 57.128906 C 150.527344 57.636719 150.425781 58.179688 150.425781 58.75 C 150.425781 59.484375 150.546875 60.085938 150.796875 60.566406 C 151.042969 61.050781 151.402344 61.40625 151.871094 61.640625 C 152.339844 61.875 152.839844 61.992188 153.375 61.992188 C 153.84375 61.992188 154.292969 61.910156 154.722656 61.738281 C 155.164062 61.558594 155.503906 61.363281 155.738281 61.152344 L 155.738281 59.648438 Z M 153.355469 59.648438 "/>
<path style=" stroke:none;fill-rule:nonzero;fill:rgb(0%,0%,0%);fill-opacity:1;" d="M 158.199219 62.8125 L 158.199219 56.972656 L 159.097656 56.972656 L 159.097656 57.871094 C 159.320312 57.457031 159.527344 57.183594 159.722656 57.050781 C 159.917969 56.921875 160.132812 56.855469 160.367188 56.855469 C 160.691406 56.855469 161.03125 56.960938 161.382812 57.167969 L 161.03125 58.085938 C 160.796875 57.945312 160.554688 57.871094 160.308594 57.871094 C 160.101562 57.871094 159.90625 57.9375 159.722656 58.066406 C 159.554688 58.199219 159.429688 58.378906 159.351562 58.613281 C 159.246094 58.964844 159.195312 59.351562 159.195312 59.765625 L 159.195312 62.8125 Z M 158.199219 62.8125 "/>
<path style=" stroke:none;fill-rule:nonzero;fill:rgb(0%,0%,0%);fill-opacity:1;" d="M 165.773438 62.089844 C 165.410156 62.402344 165.058594 62.625 164.71875 62.753906 C 164.378906 62.882812 164.015625 62.949219 163.625 62.949219 C 162.988281 62.949219 162.492188 62.792969 162.140625 62.480469 C 161.800781 62.167969 161.632812 61.765625 161.632812 61.269531 C 161.632812 60.984375 161.699219 60.722656 161.828125 60.488281 C 161.957031 60.253906 162.128906 60.070312 162.335938 59.921875 C 162.542969 59.78125 162.777344 59.667969 163.039062 59.589844 C 163.234375 59.550781 163.527344 59.507812 163.917969 59.453125 C 164.726562 59.367188 165.316406 59.25 165.695312 59.101562 C 165.695312 58.976562 165.695312 58.886719 165.695312 58.847656 C 165.695312 58.445312 165.605469 58.164062 165.421875 58.007812 C 165.160156 57.773438 164.785156 57.65625 164.289062 57.65625 C 163.820312 57.65625 163.476562 57.742188 163.253906 57.910156 C 163.03125 58.066406 162.871094 58.355469 162.765625 58.769531 L 161.808594 58.652344 C 161.886719 58.238281 162.023438 57.90625 162.21875 57.65625 C 162.425781 57.398438 162.71875 57.203125 163.097656 57.070312 C 163.488281 56.929688 163.929688 56.855469 164.425781 56.855469 C 164.933594 56.855469 165.335938 56.914062 165.636719 57.03125 C 165.949219 57.148438 166.175781 57.300781 166.320312 57.480469 C 166.476562 57.652344 166.582031 57.871094 166.632812 58.144531 C 166.671875 58.316406 166.691406 58.613281 166.691406 59.042969 L 166.691406 60.371094 C 166.691406 61.285156 166.710938 61.867188 166.75 62.109375 C 166.789062 62.359375 166.875 62.59375 167.003906 62.8125 L 165.96875 62.8125 C 165.863281 62.609375 165.800781 62.363281 165.773438 62.089844 Z M 165.695312 59.882812 C 165.332031 60.03125 164.789062 60.152344 164.074219 60.253906 C 163.671875 60.320312 163.382812 60.390625 163.214844 60.46875 C 163.046875 60.539062 162.914062 60.640625 162.824219 60.78125 C 162.734375 60.929688 162.6875 61.085938 162.6875 61.25 C 162.6875 61.515625 162.785156 61.734375 162.980469 61.914062 C 163.175781 62.085938 163.46875 62.167969 163.859375 62.167969 C 164.238281 62.167969 164.574219 62.085938 164.875 61.914062 C 165.175781 61.75 165.394531 61.519531 165.539062 61.230469 C 165.644531 61.011719 165.695312 60.683594 165.695312 60.253906 Z M 165.695312 59.882812 "/>
<path style=" stroke:none;fill-rule:nonzero;fill:rgb(0%,0%,0%);fill-opacity:1;" d="M 169.140625 62.8125 L 168.222656 62.8125 L 168.222656 54.765625 L 169.199219 54.765625 L 169.199219 57.636719 C 169.613281 57.117188 170.148438 56.855469 170.800781 56.855469 C 171.164062 56.855469 171.503906 56.929688 171.816406 57.070312 C 172.140625 57.21875 172.40625 57.417969 172.617188 57.675781 C 172.824219 57.9375 172.988281 58.257812 173.105469 58.632812 C 173.222656 59 173.28125 59.390625 173.28125 59.804688 C 173.28125 60.8125 173.03125 61.582031 172.539062 62.128906 C 172.042969 62.675781 171.449219 62.949219 170.761719 62.949219 C 170.070312 62.949219 169.53125 62.664062 169.140625 62.089844 Z M 169.121094 59.84375 C 169.121094 60.546875 169.21875 61.054688 169.414062 61.367188 C 169.726562 61.875 170.140625 62.128906 170.664062 62.128906 C 171.105469 62.128906 171.484375 61.945312 171.796875 61.5625 C 172.109375 61.1875 172.265625 60.625 172.265625 59.882812 C 172.265625 59.132812 172.113281 58.570312 171.816406 58.203125 C 171.515625 57.84375 171.152344 57.65625 170.722656 57.65625 C 170.277344 57.65625 169.902344 57.847656 169.589844 58.222656 C 169.277344 58.601562 169.121094 59.140625 169.121094 59.84375 Z M 169.121094 59.84375 "/>
<path style=" stroke:none;fill-rule:nonzero;fill:rgb(0%,0%,0%);fill-opacity:1;" d="M 177.605469 62.8125 L 177.605469 56.972656 L 178.503906 56.972656 L 178.503906 57.8125 C 178.917969 57.179688 179.539062 56.855469 180.359375 56.855469 C 180.710938 56.855469 181.027344 56.921875 181.316406 57.050781 C 181.613281 57.167969 181.835938 57.335938 181.980469 57.539062 C 182.121094 57.734375 182.226562 57.976562 182.292969 58.261719 C 182.332031 58.445312 182.351562 58.765625 182.351562 59.21875 L 182.351562 62.8125 L 181.355469 62.8125 L 181.355469 59.257812 C 181.355469 58.859375 181.316406 58.554688 181.238281 58.359375 C 181.160156 58.164062 181.023438 58.007812 180.828125 57.890625 C 180.632812 57.765625 180.402344 57.695312 180.144531 57.695312 C 179.726562 57.695312 179.363281 57.832031 179.050781 58.105469 C 178.75 58.367188 178.601562 58.875 178.601562 59.628906 L 178.601562 62.8125 Z M 177.605469 62.8125 "/>
<path style=" stroke:none;fill-rule:nonzero;fill:rgb(0%,0%,0%);fill-opacity:1;" d="M 187.847656 60.9375 L 188.882812 61.054688 C 188.710938 61.65625 188.402344 62.125 187.964844 62.460938 C 187.535156 62.789062 186.976562 62.949219 186.304688 62.949219 C 185.453125 62.949219 184.78125 62.691406 184.273438 62.167969 C 183.773438 61.636719 183.53125 60.894531 183.53125 59.941406 C 183.53125 58.964844 183.785156 58.210938 184.292969 57.675781 C 184.800781 57.128906 185.453125 56.855469 186.265625 56.855469 C 187.046875 56.855469 187.675781 57.125 188.160156 57.65625 C 188.652344 58.179688 188.902344 58.921875 188.902344 59.882812 C 188.902344 59.953125 188.902344 60.039062 188.902344 60.15625 L 184.546875 60.15625 C 184.585938 60.796875 184.765625 61.285156 185.09375 61.621094 C 185.414062 61.960938 185.824219 62.128906 186.324219 62.128906 C 186.683594 62.128906 186.992188 62.039062 187.242188 61.855469 C 187.5 61.660156 187.699219 61.359375 187.847656 60.9375 Z M 184.605469 59.335938 L 187.867188 59.335938 C 187.828125 58.84375 187.699219 58.472656 187.496094 58.222656 C 187.183594 57.847656 186.773438 57.65625 186.265625 57.65625 C 185.804688 57.65625 185.425781 57.8125 185.113281 58.125 C 184.808594 58.429688 184.644531 58.828125 184.605469 59.335938 Z M 184.605469 59.335938 "/>
<path style=" stroke:none;fill-rule:nonzero;fill:rgb(0%,0%,0%);fill-opacity:1;" d="M 191.195312 62.8125 L 189.417969 56.972656 L 190.433594 56.972656 L 191.371094 60.351562 L 191.703125 61.601562 C 191.710938 61.539062 191.820312 61.132812 192.015625 60.390625 L 192.933594 56.972656 L 193.949219 56.972656 L 194.828125 60.371094 L 195.121094 61.484375 L 195.453125 60.351562 L 196.449219 56.972656 L 197.40625 56.972656 L 195.589844 62.8125 L 194.574219 62.8125 L 193.636719 59.316406 L 193.402344 58.320312 L 192.230469 62.8125 Z M 191.195312 62.8125 "/>
<path style=" stroke:none;fill-rule:nonzero;fill:rgb(0%,0%,0%);fill-opacity:1;" d="M 205.160156 62.8125 L 205.160156 62.070312 C 204.777344 62.65625 204.230469 62.949219 203.519531 62.949219 C 203.058594 62.949219 202.640625 62.816406 202.25 62.558594 C 201.859375 62.300781 201.550781 61.945312 201.332031 61.484375 C 201.121094 61.03125 201.019531 60.503906 201.019531 59.902344 C 201.019531 59.316406 201.117188 58.789062 201.3125 58.320312 C 201.507812 57.84375 201.789062 57.476562 202.171875 57.226562 C 202.5625 56.984375 202.996094 56.855469 203.480469 56.855469 C 203.832031 56.855469 204.144531 56.929688 204.417969 57.070312 C 204.691406 57.21875 204.910156 57.414062 205.082031 57.65625 L 205.082031 54.765625 L 206.078125 54.765625 L 206.078125 62.8125 Z M 202.035156 59.902344 C 202.035156 60.644531 202.191406 61.207031 202.503906 61.582031 C 202.816406 61.949219 203.1875 62.128906 203.617188 62.128906 C 204.046875 62.128906 204.40625 61.953125 204.710938 61.601562 C 205.023438 61.25 205.179688 60.710938 205.179688 59.980469 C 205.179688 59.1875 205.023438 58.601562 204.710938 58.222656 C 204.398438 57.847656 204.015625 57.65625 203.578125 57.65625 C 203.132812 57.65625 202.761719 57.84375 202.464844 58.203125 C 202.175781 58.570312 202.035156 59.136719 202.035156 59.902344 Z M 202.035156 59.902344 "/>
<path style=" stroke:none;fill-rule:nonzero;fill:rgb(0%,0%,0%);fill-opacity:1;" d="M 211.4375 62.089844 C 211.070312 62.402344 210.71875 62.625 210.382812 62.753906 C 210.039062 62.882812 209.679688 62.949219 209.289062 62.949219 C 208.648438 62.949219 208.15625 62.792969 207.804688 62.480469 C 207.460938 62.167969 207.296875 61.765625 207.296875 61.269531 C 207.296875 60.984375 207.359375 60.722656 207.492188 60.488281 C 207.617188 60.253906 207.789062 60.070312 208 59.921875 C 208.203125 59.78125 208.4375 59.667969 208.703125 59.589844 C 208.898438 59.550781 209.191406 59.507812 209.582031 59.453125 C 210.386719 59.367188 210.976562 59.25 211.359375 59.101562 C 211.359375 58.976562 211.359375 58.886719 211.359375 58.847656 C 211.359375 58.445312 211.265625 58.164062 211.085938 58.007812 C 210.820312 57.773438 210.445312 57.65625 209.953125 57.65625 C 209.484375 57.65625 209.136719 57.742188 208.917969 57.910156 C 208.691406 58.066406 208.53125 58.355469 208.429688 58.769531 L 207.472656 58.652344 C 207.550781 58.238281 207.6875 57.90625 207.882812 57.65625 C 208.085938 57.398438 208.378906 57.203125 208.761719 57.070312 C 209.152344 56.929688 209.589844 56.855469 210.089844 56.855469 C 210.597656 56.855469 210.996094 56.914062 211.300781 57.03125 C 211.613281 57.148438 211.835938 57.300781 211.984375 57.480469 C 212.140625 57.652344 212.242188 57.871094 212.296875 58.144531 C 212.335938 58.316406 212.355469 58.613281 212.355469 59.042969 L 212.355469 60.371094 C 212.355469 61.285156 212.375 61.867188 212.414062 62.109375 C 212.453125 62.359375 212.535156 62.59375 212.667969 62.8125 L 211.632812 62.8125 C 211.523438 62.609375 211.460938 62.363281 211.4375 62.089844 Z M 211.359375 59.882812 C 210.992188 60.03125 210.449219 60.152344 209.738281 60.253906 C 209.332031 60.320312 209.042969 60.390625 208.878906 60.46875 C 208.707031 60.539062 208.574219 60.640625 208.488281 60.78125 C 208.394531 60.929688 208.351562 61.085938 208.351562 61.25 C 208.351562 61.515625 208.449219 61.734375 208.644531 61.914062 C 208.839844 62.085938 209.132812 62.167969 209.523438 62.167969 C 209.898438 62.167969 210.234375 62.085938 210.539062 61.914062 C 210.835938 61.75 211.054688 61.519531 211.203125 61.230469 C 211.304688 61.011719 211.359375 60.683594 211.359375 60.253906 Z M 211.359375 59.882812 "/>
<path style=" stroke:none;fill-rule:nonzero;fill:rgb(0%,0%,0%);fill-opacity:1;" d="M 216.054688 61.933594 L 216.191406 62.792969 C 215.902344 62.855469 215.652344 62.890625 215.449219 62.890625 C 215.082031 62.890625 214.804688 62.832031 214.609375 62.714844 C 214.414062 62.597656 214.265625 62.453125 214.179688 62.265625 C 214.101562 62.085938 214.0625 61.699219 214.0625 61.113281 L 214.0625 57.753906 L 213.339844 57.753906 L 213.339844 56.972656 L 214.0625 56.972656 L 214.0625 55.527344 L 215.058594 54.941406 L 215.058594 56.972656 L 216.054688 56.972656 L 216.054688 57.753906 L 215.058594 57.753906 L 215.058594 61.152344 C 215.058594 61.441406 215.066406 61.621094 215.097656 61.699219 C 215.136719 61.777344 215.195312 61.84375 215.273438 61.894531 C 215.351562 61.949219 215.457031 61.972656 215.605469 61.972656 C 215.722656 61.972656 215.867188 61.960938 216.054688 61.933594 Z M 216.054688 61.933594 "/>
<path style=" stroke:none;fill-rule:nonzero;fill:rgb(0%,0%,0%);fill-opacity:1;" d="M 220.820312 62.089844 C 220.453125 62.402344 220.101562 62.625 219.765625 62.753906 C 219.421875 62.882812 219.0625 62.949219 218.671875 62.949219 C 218.03125 62.949219 217.539062 62.792969 217.1875 62.480469 C 216.84375 62.167969 216.679688 61.765625 216.679688 61.269531 C 216.679688 60.984375 216.742188 60.722656 216.875 60.488281 C 217 60.253906 217.171875 60.070312 217.382812 59.921875 C 217.585938 59.78125 217.820312 59.667969 218.085938 59.589844 C 218.28125 59.550781 218.574219 59.507812 218.964844 59.453125 C 219.769531 59.367188 220.359375 59.25 220.742188 59.101562 C 220.742188 58.976562 220.742188 58.886719 220.742188 58.847656 C 220.742188 58.445312 220.648438 58.164062 220.46875 58.007812 C 220.203125 57.773438 219.828125 57.65625 219.335938 57.65625 C 218.867188 57.65625 218.519531 57.742188 218.300781 57.910156 C 218.074219 58.066406 217.914062 58.355469 217.8125 58.769531 L 216.855469 58.652344 C 216.933594 58.238281 217.070312 57.90625 217.265625 57.65625 C 217.46875 57.398438 217.761719 57.203125 218.144531 57.070312 C 218.535156 56.929688 218.972656 56.855469 219.472656 56.855469 C 219.980469 56.855469 220.378906 56.914062 220.683594 57.03125 C 220.996094 57.148438 221.21875 57.300781 221.367188 57.480469 C 221.523438 57.652344 221.625 57.871094 221.679688 58.144531 C 221.71875 58.316406 221.738281 58.613281 221.738281 59.042969 L 221.738281 60.371094 C 221.738281 61.285156 221.757812 61.867188 221.796875 62.109375 C 221.835938 62.359375 221.917969 62.59375 222.050781 62.8125 L 221.015625 62.8125 C 220.90625 62.609375 220.84375 62.363281 220.820312 62.089844 Z M 220.742188 59.882812 C 220.375 60.03125 219.832031 60.152344 219.121094 60.253906 C 218.714844 60.320312 218.425781 60.390625 218.261719 60.46875 C 218.089844 60.539062 217.957031 60.640625 217.871094 60.78125 C 217.777344 60.929688 217.734375 61.085938 217.734375 61.25 C 217.734375 61.515625 217.832031 61.734375 218.027344 61.914062 C 218.222656 62.085938 218.515625 62.167969 218.90625 62.167969 C 219.28125 62.167969 219.617188 62.085938 219.921875 61.914062 C 220.21875 61.75 220.4375 61.519531 220.585938 61.230469 C 220.6875 61.011719 220.742188 60.683594 220.742188 60.253906 Z M 220.742188 59.882812 "/>
<path style="fill-rule:nonzero;fill:rgb(40%,74.901961%,100%);fill-opacity:1;stroke-width:1;stroke-linecap:round;stroke-linejoin:round;stroke:rgb(0%,0%,0%);stroke-opacity:1;stroke-miterlimit:10;" d="M 312.5 194.5625 L 387.5 194.5625 L 387.5 226.0625 L 312.5 226.0625 Z M 312.5 194.5625 " transform="matrix(1.25,0,0,1.25,-113.75,-165)"/>
<path style=" stroke:none;fill-rule:nonzero;fill:rgb(0%,0%,0%);fill-opacity:1;" d="M 295.976562 92.191406 L 297.03125 92.464844 C 296.804688 93.339844 296.40625 94.007812 295.820312 94.476562 C 295.242188 94.933594 294.535156 95.160156 293.691406 95.160156 C 292.832031 95.160156 292.128906 94.984375 291.582031 94.632812 C 291.035156 94.28125 290.613281 93.773438 290.332031 93.109375 C 290.058594 92.433594 289.921875 91.710938 289.921875 90.941406 C 289.921875 90.097656 290.078125 89.359375 290.390625 88.734375 C 290.710938 88.109375 291.171875 87.640625 291.757812 87.328125 C 292.351562 87.003906 293.007812 86.839844 293.710938 86.839844 C 294.515625 86.839844 295.195312 87.050781 295.742188 87.464844 C 296.296875 87.871094 296.683594 88.441406 296.894531 89.183594 L 295.839844 89.417969 C 295.652344 88.832031 295.390625 88.410156 295.039062 88.148438 C 294.6875 87.875 294.238281 87.738281 293.691406 87.738281 C 293.074219 87.738281 292.5625 87.890625 292.148438 88.1875 C 291.726562 88.488281 291.433594 88.890625 291.269531 89.398438 C 291.097656 89.894531 291.015625 90.402344 291.015625 90.921875 C 291.015625 91.613281 291.113281 92.21875 291.308594 92.738281 C 291.511719 93.246094 291.824219 93.625 292.246094 93.871094 C 292.660156 94.121094 293.113281 94.242188 293.613281 94.242188 C 294.207031 94.242188 294.710938 94.074219 295.117188 93.734375 C 295.53125 93.382812 295.820312 92.871094 295.976562 92.191406 Z M 295.976562 92.191406 "/>
<path style=" stroke:none;fill-rule:nonzero;fill:rgb(0%,0%,0%);fill-opacity:1;" d="M 298.222656 95.023438 L 298.222656 86.976562 L 299.21875 86.976562 L 299.21875 89.867188 C 299.671875 89.335938 300.253906 89.066406 300.957031 89.066406 C 301.386719 89.066406 301.757812 89.152344 302.070312 89.320312 C 302.390625 89.492188 302.621094 89.726562 302.753906 90.023438 C 302.894531 90.324219 302.96875 90.761719 302.96875 91.332031 L 302.96875 95.023438 L 301.992188 95.023438 L 301.992188 91.332031 C 301.992188 90.839844 301.878906 90.480469 301.660156 90.257812 C 301.449219 90.023438 301.152344 89.90625 300.761719 89.90625 C 300.457031 89.90625 300.179688 89.984375 299.921875 90.140625 C 299.65625 90.285156 299.476562 90.488281 299.375 90.746094 C 299.265625 91.007812 299.21875 91.371094 299.21875 91.839844 L 299.21875 95.023438 Z M 298.222656 95.023438 "/>
<path style=" stroke:none;fill-rule:nonzero;fill:rgb(0%,0%,0%);fill-opacity:1;" d="M 308.464844 93.148438 L 309.5 93.265625 C 309.328125 93.867188 309.019531 94.335938 308.582031 94.671875 C 308.152344 95 307.59375 95.160156 306.921875 95.160156 C 306.070312 95.160156 305.398438 94.902344 304.890625 94.378906 C 304.390625 93.847656 304.148438 93.105469 304.148438 92.152344 C 304.148438 91.175781 304.402344 90.421875 304.910156 89.886719 C 305.417969 89.339844 306.070312 89.066406 306.882812 89.066406 C 307.664062 89.066406 308.292969 89.335938 308.777344 89.867188 C 309.269531 90.390625 309.519531 91.132812 309.519531 92.09375 C 309.519531 92.160156 309.519531 92.25 309.519531 92.367188 L 305.164062 92.367188 C 305.203125 93.007812 305.382812 93.496094 305.710938 93.832031 C 306.03125 94.171875 306.441406 94.339844 306.941406 94.339844 C 307.300781 94.339844 307.609375 94.25 307.859375 94.066406 C 308.117188 93.871094 308.316406 93.566406 308.464844 93.148438 Z M 305.222656 91.546875 L 308.484375 91.546875 C 308.445312 91.054688 308.316406 90.683594 308.113281 90.433594 C 307.800781 90.058594 307.390625 89.867188 306.882812 89.867188 C 306.421875 89.867188 306.042969 90.023438 305.730469 90.335938 C 305.425781 90.636719 305.261719 91.039062 305.222656 91.546875 Z M 305.222656 91.546875 "/>
<path style=" stroke:none;fill-rule:nonzero;fill:rgb(0%,0%,0%);fill-opacity:1;" d="M 314.542969 92.894531 L 315.519531 93.011719 C 315.414062 93.691406 315.140625 94.21875 314.699219 94.59375 C 314.257812 94.972656 313.714844 95.160156 313.078125 95.160156 C 312.285156 95.160156 311.644531 94.902344 311.164062 94.378906 C 310.683594 93.859375 310.441406 93.109375 310.441406 92.132812 C 310.441406 91.496094 310.546875 90.941406 310.753906 90.472656 C 310.960938 90.003906 311.273438 89.652344 311.691406 89.417969 C 312.121094 89.183594 312.589844 89.066406 313.097656 89.066406 C 313.722656 89.066406 314.238281 89.230469 314.640625 89.554688 C 315.042969 89.867188 315.304688 90.316406 315.421875 90.902344 L 314.464844 91.058594 C 314.375 90.667969 314.210938 90.375 313.976562 90.179688 C 313.742188 89.972656 313.460938 89.867188 313.136719 89.867188 C 312.628906 89.867188 312.21875 90.050781 311.90625 90.414062 C 311.605469 90.765625 311.457031 91.328125 311.457031 92.09375 C 311.457031 92.890625 311.605469 93.460938 311.90625 93.8125 C 312.207031 94.164062 312.597656 94.339844 313.078125 94.339844 C 313.46875 94.339844 313.792969 94.222656 314.054688 93.988281 C 314.316406 93.753906 314.476562 93.390625 314.542969 92.894531 Z M 314.542969 92.894531 "/>
<path style=" stroke:none;fill-rule:nonzero;fill:rgb(0%,0%,0%);fill-opacity:1;" d="M 316.359375 95.023438 L 316.359375 86.976562 L 317.355469 86.976562 L 317.355469 91.566406 L 319.699219 89.183594 L 320.96875 89.183594 L 318.742188 91.351562 L 321.203125 95.023438 L 319.972656 95.023438 L 318.058594 92.035156 L 317.355469 92.71875 L 317.355469 95.023438 Z M 316.359375 95.023438 "/>
<path style=" stroke:none;fill-rule:nonzero;fill:rgb(0%,0%,0%);fill-opacity:1;" d="M 325.109375 88.109375 L 325.109375 86.976562 L 326.105469 86.976562 L 326.105469 88.109375 Z M 325.109375 95.023438 L 325.109375 89.183594 L 326.105469 89.183594 L 326.105469 95.023438 Z M 325.109375 95.023438 "/>
<path style=" stroke:none;fill-rule:nonzero;fill:rgb(0%,0%,0%);fill-opacity:1;" d="M 327.84375 95.023438 L 327.84375 89.964844 L 326.964844 89.964844 L 326.964844 89.183594 L 327.84375 89.183594 L 327.84375 88.578125 C 327.84375 88.175781 327.875 87.882812 327.941406 87.699219 C 328.046875 87.441406 328.214844 87.230469 328.449219 87.074219 C 328.695312 86.917969 329.035156 86.839844 329.464844 86.839844 C 329.738281 86.839844 330.042969 86.875 330.382812 86.9375 L 330.226562 87.796875 C 330.03125 87.757812 329.84375 87.738281 329.660156 87.738281 C 329.359375 87.738281 329.144531 87.804688 329.015625 87.933594 C 328.886719 88.066406 328.820312 88.304688 328.820312 88.65625 L 328.820312 89.183594 L 329.972656 89.183594 L 329.972656 89.964844 L 328.820312 89.964844 L 328.820312 95.023438 Z M 327.84375 95.023438 "/>
<path style=" stroke:none;fill-rule:nonzero;fill:rgb(0%,0%,0%);fill-opacity:1;" d="M 333.6875 95.511719 L 334.644531 95.648438 C 334.683594 95.945312 334.789062 96.160156 334.976562 96.292969 C 335.21875 96.472656 335.5625 96.566406 335.992188 96.566406 C 336.445312 96.566406 336.796875 96.472656 337.046875 96.292969 C 337.289062 96.105469 337.460938 95.851562 337.554688 95.53125 C 337.601562 95.320312 337.621094 94.902344 337.613281 94.261719 C 337.183594 94.769531 336.644531 95.023438 336.011719 95.023438 C 335.199219 95.023438 334.574219 94.738281 334.136719 94.164062 C 333.707031 93.578125 333.492188 92.882812 333.492188 92.074219 C 333.492188 91.515625 333.589844 91 333.785156 90.53125 C 333.988281 90.0625 334.28125 89.707031 334.664062 89.457031 C 335.039062 89.199219 335.488281 89.066406 336.011719 89.066406 C 336.699219 89.066406 337.265625 89.339844 337.710938 89.886719 L 337.710938 89.183594 L 338.628906 89.183594 L 338.628906 94.222656 C 338.628906 95.128906 338.53125 95.773438 338.335938 96.15625 C 338.148438 96.53125 337.855469 96.828125 337.457031 97.054688 C 337.066406 97.273438 336.578125 97.386719 335.992188 97.386719 C 335.289062 97.386719 334.722656 97.230469 334.292969 96.917969 C 333.871094 96.605469 333.671875 96.136719 333.6875 95.511719 Z M 334.507812 91.996094 C 334.507812 92.765625 334.652344 93.324219 334.957031 93.675781 C 335.253906 94.027344 335.628906 94.203125 336.089844 94.203125 C 336.542969 94.203125 336.929688 94.027344 337.242188 93.675781 C 337.554688 93.324219 337.710938 92.777344 337.710938 92.035156 C 337.710938 91.320312 337.542969 90.78125 337.222656 90.414062 C 336.910156 90.050781 336.527344 89.867188 336.089844 89.867188 C 335.644531 89.867188 335.269531 90.050781 334.957031 90.414062 C 334.652344 90.765625 334.507812 91.292969 334.507812 91.996094 Z M 334.507812 91.996094 "/>
<path style=" stroke:none;fill-rule:nonzero;fill:rgb(0%,0%,0%);fill-opacity:1;" d="M 339.746094 92.113281 C 339.746094 91.035156 340.046875 90.234375 340.644531 89.710938 C 341.152344 89.28125 341.765625 89.066406 342.480469 89.066406 C 343.289062 89.066406 343.945312 89.328125 344.453125 89.847656 C 344.960938 90.371094 345.214844 91.09375 345.214844 92.015625 C 345.214844 92.773438 345.097656 93.363281 344.863281 93.792969 C 344.640625 94.222656 344.316406 94.5625 343.886719 94.808594 C 343.457031 95.042969 342.988281 95.160156 342.480469 95.160156 C 341.660156 95.160156 340.996094 94.902344 340.488281 94.378906 C 339.992188 93.847656 339.746094 93.089844 339.746094 92.113281 Z M 340.761719 92.113281 C 340.761719 92.855469 340.925781 93.417969 341.25 93.792969 C 341.574219 94.160156 341.984375 94.339844 342.480469 94.339844 C 342.976562 94.339844 343.386719 94.160156 343.710938 93.792969 C 344.035156 93.417969 344.199219 92.84375 344.199219 92.074219 C 344.199219 91.359375 344.035156 90.8125 343.710938 90.433594 C 343.386719 90.058594 342.976562 89.867188 342.480469 89.867188 C 341.984375 89.867188 341.574219 90.058594 341.25 90.433594 C 340.925781 90.800781 340.761719 91.359375 340.761719 92.113281 Z M 340.761719 92.113281 "/>
<path style=" stroke:none;fill-rule:nonzero;fill:rgb(0%,0%,0%);fill-opacity:1;" d="M 346.003906 92.113281 C 346.003906 91.035156 346.300781 90.234375 346.902344 89.710938 C 347.410156 89.28125 348.019531 89.066406 348.738281 89.066406 C 349.542969 89.066406 350.203125 89.328125 350.710938 89.847656 C 351.21875 90.371094 351.472656 91.09375 351.472656 92.015625 C 351.472656 92.773438 351.355469 93.363281 351.121094 93.792969 C 350.898438 94.222656 350.574219 94.5625 350.144531 94.808594 C 349.714844 95.042969 349.246094 95.160156 348.738281 95.160156 C 347.917969 95.160156 347.253906 94.902344 346.746094 94.378906 C 346.25 93.847656 346.003906 93.089844 346.003906 92.113281 Z M 347.019531 92.113281 C 347.019531 92.855469 347.179688 93.417969 347.507812 93.792969 C 347.832031 94.160156 348.242188 94.339844 348.738281 94.339844 C 349.230469 94.339844 349.640625 94.160156 349.96875 93.792969 C 350.292969 93.417969 350.457031 92.84375 350.457031 92.074219 C 350.457031 91.359375 350.292969 90.8125 349.96875 90.433594 C 349.640625 90.058594 349.230469 89.867188 348.738281 89.867188 C 348.242188 89.867188 347.832031 90.058594 347.507812 90.433594 C 347.179688 90.800781 347.019531 91.359375 347.019531 92.113281 Z M 347.019531 92.113281 "/>
<path style=" stroke:none;fill-rule:nonzero;fill:rgb(0%,0%,0%);fill-opacity:1;" d="M 356.421875 95.023438 L 356.421875 94.28125 C 356.042969 94.867188 355.496094 95.160156 354.78125 95.160156 C 354.324219 95.160156 353.902344 95.027344 353.511719 94.769531 C 353.121094 94.511719 352.8125 94.152344 352.59375 93.695312 C 352.382812 93.242188 352.28125 92.714844 352.28125 92.113281 C 352.28125 91.527344 352.378906 91 352.574219 90.53125 C 352.769531 90.050781 353.054688 89.6875 353.433594 89.4375 C 353.824219 89.191406 354.257812 89.066406 354.742188 89.066406 C 355.09375 89.066406 355.40625 89.140625 355.679688 89.28125 C 355.953125 89.425781 356.171875 89.621094 356.34375 89.867188 L 356.34375 86.976562 L 357.339844 86.976562 L 357.339844 95.023438 Z M 353.296875 92.113281 C 353.296875 92.855469 353.453125 93.417969 353.765625 93.792969 C 354.078125 94.160156 354.449219 94.339844 354.878906 94.339844 C 355.308594 94.339844 355.671875 94.164062 355.972656 93.8125 C 356.285156 93.460938 356.441406 92.921875 356.441406 92.191406 C 356.441406 91.398438 356.285156 90.8125 355.972656 90.433594 C 355.660156 90.058594 355.28125 89.867188 354.839844 89.867188 C 354.394531 89.867188 354.023438 90.050781 353.726562 90.414062 C 353.4375 90.78125 353.296875 91.347656 353.296875 92.113281 Z M 353.296875 92.113281 "/>
<path style=" stroke:none;fill-rule:nonzero;fill:rgb(0%,0%,0%);fill-opacity:1;" d="M 309.707031 106.015625 L 310.742188 106.132812 C 310.570312 106.734375 310.261719 107.203125 309.824219 107.539062 C 309.394531 107.867188 308.835938 108.027344 308.164062 108.027344 C 307.3125 108.027344 306.640625 107.769531 306.132812 107.246094 C 305.632812 106.714844 305.390625 105.972656 305.390625 105.019531 C 305.390625 104.042969 305.644531 103.289062 306.152344 102.753906 C 306.660156 102.207031 307.3125 101.933594 308.125 101.933594 C 308.90625 101.933594 309.535156 102.203125 310.019531 102.734375 C 310.511719 103.257812 310.761719 104 310.761719 104.960938 C 310.761719 105.03125 310.761719 105.117188 310.761719 105.234375 L 306.40625 105.234375 C 306.445312 105.875 306.625 106.363281 306.953125 106.699219 C 307.273438 107.039062 307.683594 107.207031 308.183594 107.207031 C 308.542969 107.207031 308.851562 107.117188 309.101562 106.933594 C 309.359375 106.738281 309.558594 106.4375 309.707031 106.015625 Z M 306.464844 104.414062 L 309.726562 104.414062 C 309.6875 103.921875 309.558594 103.550781 309.355469 103.300781 C 309.042969 102.925781 308.632812 102.734375 308.125 102.734375 C 307.664062 102.734375 307.285156 102.890625 306.972656 103.203125 C 306.667969 103.507812 306.503906 103.90625 306.464844 104.414062 Z M 306.464844 104.414062 "/>
<path style=" stroke:none;fill-rule:nonzero;fill:rgb(0%,0%,0%);fill-opacity:1;" d="M 311.980469 107.890625 L 311.980469 102.050781 L 312.878906 102.050781 L 312.878906 102.890625 C 313.292969 102.257812 313.914062 101.933594 314.734375 101.933594 C 315.085938 101.933594 315.402344 102 315.691406 102.128906 C 315.988281 102.246094 316.207031 102.414062 316.355469 102.617188 C 316.496094 102.8125 316.597656 103.054688 316.667969 103.339844 C 316.707031 103.523438 316.726562 103.84375 316.726562 104.296875 L 316.726562 107.890625 L 315.730469 107.890625 L 315.730469 104.335938 C 315.730469 103.9375 315.691406 103.632812 315.613281 103.4375 C 315.535156 103.242188 315.398438 103.085938 315.203125 102.96875 C 315.007812 102.84375 314.777344 102.773438 314.519531 102.773438 C 314.097656 102.773438 313.738281 102.910156 313.425781 103.183594 C 313.121094 103.445312 312.976562 103.953125 312.976562 104.707031 L 312.976562 107.890625 Z M 311.980469 107.890625 "/>
<path style=" stroke:none;fill-rule:nonzero;fill:rgb(0%,0%,0%);fill-opacity:1;" d="M 317.867188 104.980469 C 317.867188 103.902344 318.164062 103.101562 318.765625 102.578125 C 319.273438 102.148438 319.882812 101.933594 320.601562 101.933594 C 321.40625 101.933594 322.066406 102.195312 322.574219 102.714844 C 323.082031 103.238281 323.335938 103.960938 323.335938 104.882812 C 323.335938 105.640625 323.21875 106.230469 322.984375 106.660156 C 322.757812 107.089844 322.4375 107.429688 322.007812 107.675781 C 321.578125 107.910156 321.109375 108.027344 320.601562 108.027344 C 319.78125 108.027344 319.117188 107.769531 318.609375 107.246094 C 318.109375 106.714844 317.867188 105.957031 317.867188 104.980469 Z M 318.882812 104.980469 C 318.882812 105.722656 319.042969 106.285156 319.371094 106.660156 C 319.691406 107.027344 320.101562 107.207031 320.601562 107.207031 C 321.09375 107.207031 321.503906 107.027344 321.832031 106.660156 C 322.152344 106.285156 322.320312 105.710938 322.320312 104.941406 C 322.320312 104.226562 322.152344 103.679688 321.832031 103.300781 C 321.503906 102.925781 321.09375 102.734375 320.601562 102.734375 C 320.101562 102.734375 319.691406 102.925781 319.371094 103.300781 C 319.042969 103.667969 318.882812 104.226562 318.882812 104.980469 Z M 318.882812 104.980469 "/>
<path style=" stroke:none;fill-rule:nonzero;fill:rgb(0%,0%,0%);fill-opacity:1;" d="M 328.320312 107.890625 L 328.320312 107.03125 C 327.863281 107.695312 327.246094 108.027344 326.464844 108.027344 C 326.125 108.027344 325.808594 107.960938 325.507812 107.832031 C 325.207031 107.691406 324.980469 107.519531 324.824219 107.324219 C 324.679688 107.128906 324.582031 106.890625 324.53125 106.601562 C 324.492188 106.40625 324.472656 106.09375 324.472656 105.664062 L 324.472656 102.050781 L 325.449219 102.050781 L 325.449219 105.292969 C 325.449219 105.816406 325.476562 106.164062 325.527344 106.328125 C 325.578125 106.59375 325.703125 106.796875 325.898438 106.953125 C 326.105469 107.101562 326.359375 107.167969 326.660156 107.167969 C 326.960938 107.167969 327.238281 107.101562 327.5 106.953125 C 327.761719 106.796875 327.941406 106.59375 328.046875 106.328125 C 328.152344 106.070312 328.203125 105.683594 328.203125 105.175781 L 328.203125 102.050781 L 329.199219 102.050781 L 329.199219 107.890625 Z M 328.320312 107.890625 "/>
<path style=" stroke:none;fill-rule:nonzero;fill:rgb(0%,0%,0%);fill-opacity:1;" d="M 330.574219 108.378906 L 331.53125 108.515625 C 331.570312 108.8125 331.679688 109.027344 331.863281 109.160156 C 332.109375 109.339844 332.449219 109.433594 332.878906 109.433594 C 333.335938 109.433594 333.6875 109.339844 333.933594 109.160156 C 334.179688 108.976562 334.351562 108.71875 334.441406 108.398438 C 334.492188 108.1875 334.511719 107.769531 334.5 107.128906 C 334.070312 107.636719 333.535156 107.890625 332.898438 107.890625 C 332.089844 107.890625 331.464844 107.609375 331.023438 107.03125 C 330.59375 106.445312 330.378906 105.75 330.378906 104.941406 C 330.378906 104.382812 330.476562 103.867188 330.671875 103.398438 C 330.878906 102.929688 331.171875 102.574219 331.550781 102.324219 C 331.929688 102.066406 332.378906 101.933594 332.898438 101.933594 C 333.589844 101.933594 334.15625 102.207031 334.597656 102.753906 L 334.597656 102.050781 L 335.515625 102.050781 L 335.515625 107.089844 C 335.515625 108 335.417969 108.640625 335.222656 109.023438 C 335.039062 109.398438 334.746094 109.695312 334.34375 109.921875 C 333.953125 110.140625 333.464844 110.253906 332.878906 110.253906 C 332.175781 110.253906 331.609375 110.097656 331.179688 109.785156 C 330.761719 109.472656 330.5625 109.003906 330.574219 108.378906 Z M 331.394531 104.863281 C 331.394531 105.632812 331.542969 106.191406 331.84375 106.542969 C 332.144531 106.894531 332.519531 107.070312 332.976562 107.070312 C 333.433594 107.070312 333.816406 106.894531 334.128906 106.542969 C 334.441406 106.191406 334.597656 105.644531 334.597656 104.902344 C 334.597656 104.1875 334.433594 103.648438 334.109375 103.28125 C 333.796875 102.921875 333.417969 102.734375 332.976562 102.734375 C 332.535156 102.734375 332.15625 102.921875 331.84375 103.28125 C 331.542969 103.632812 331.394531 104.160156 331.394531 104.863281 Z M 331.394531 104.863281 "/>
<path style=" stroke:none;fill-rule:nonzero;fill:rgb(0%,0%,0%);fill-opacity:1;" d="M 337.007812 107.890625 L 337.007812 99.84375 L 338.003906 99.84375 L 338.003906 102.734375 C 338.457031 102.203125 339.039062 101.933594 339.742188 101.933594 C 340.171875 101.933594 340.542969 102.023438 340.855469 102.1875 C 341.179688 102.359375 341.40625 102.59375 341.539062 102.890625 C 341.679688 103.195312 341.753906 103.628906 341.753906 104.199219 L 341.753906 107.890625 L 340.777344 107.890625 L 340.777344 104.199219 C 340.777344 103.707031 340.664062 103.351562 340.445312 103.125 C 340.234375 102.890625 339.9375 102.773438 339.546875 102.773438 C 339.246094 102.773438 338.964844 102.851562 338.707031 103.007812 C 338.445312 103.15625 338.261719 103.355469 338.160156 103.613281 C 338.054688 103.875 338.003906 104.238281 338.003906 104.707031 L 338.003906 107.890625 Z M 337.007812 107.890625 "/>
<path style="fill-rule:nonzero;fill:rgb(100%,100%,100%);fill-opacity:1;stroke-width:1;stroke-linecap:round;stroke-linejoin:round;stroke:rgb(0%,0%,0%);stroke-opacity:1;stroke-miterlimit:10;" d="M 312.5 133.4375 L 387.5 133.4375 L 387.5 164.9375 L 312.5 164.9375 Z M 312.5 133.4375 " transform="matrix(1.25,0,0,1.25,-113.75,-165)"/>
<path style=" stroke:none;fill-rule:nonzero;fill:rgb(0%,0%,0%);fill-opacity:1;" d="M 302.382812 10.570312 L 303.457031 10.570312 L 303.457031 15.21875 C 303.457031 16.027344 303.359375 16.671875 303.164062 17.152344 C 302.976562 17.621094 302.644531 18.007812 302.167969 18.304688 C 301.699219 18.605469 301.074219 18.753906 300.292969 18.753906 C 299.535156 18.753906 298.914062 18.621094 298.4375 18.363281 C 297.96875 18.105469 297.625 17.726562 297.421875 17.230469 C 297.210938 16.738281 297.109375 16.066406 297.109375 15.21875 L 297.109375 10.570312 L 298.183594 10.570312 L 298.183594 15.21875 C 298.183594 15.910156 298.246094 16.425781 298.378906 16.761719 C 298.503906 17.089844 298.730469 17.34375 299.042969 17.523438 C 299.355469 17.707031 299.746094 17.796875 300.214844 17.796875 C 300.996094 17.796875 301.546875 17.621094 301.875 17.269531 C 302.210938 16.90625 302.382812 16.222656 302.382812 15.21875 Z M 302.382812 10.570312 "/>
<path style=" stroke:none;fill-rule:nonzero;fill:rgb(0%,0%,0%);fill-opacity:1;" d="M 305.097656 20.84375 L 305.097656 12.777344 L 305.996094 12.777344 L 305.996094 13.539062 C 306.199219 13.242188 306.433594 13.019531 306.699219 12.875 C 306.972656 12.734375 307.304688 12.660156 307.695312 12.660156 C 308.1875 12.660156 308.621094 12.792969 309.003906 13.050781 C 309.378906 13.300781 309.667969 13.65625 309.863281 14.125 C 310.058594 14.59375 310.15625 15.101562 310.15625 15.648438 C 310.15625 16.25 310.042969 16.789062 309.824219 17.269531 C 309.613281 17.753906 309.304688 18.125 308.90625 18.382812 C 308.5 18.625 308.070312 18.753906 307.617188 18.753906 C 307.289062 18.753906 306.996094 18.679688 306.738281 18.539062 C 306.472656 18.398438 306.257812 18.222656 306.09375 18.011719 L 306.09375 20.84375 Z M 305.996094 15.726562 C 305.996094 16.484375 306.140625 17.042969 306.445312 17.40625 C 306.757812 17.757812 307.128906 17.933594 307.558594 17.933594 C 307.988281 17.933594 308.359375 17.753906 308.671875 17.386719 C 308.992188 17.011719 309.160156 16.429688 309.160156 15.648438 C 309.160156 14.90625 309.003906 14.355469 308.691406 13.988281 C 308.386719 13.613281 308.027344 13.421875 307.597656 13.421875 C 307.175781 13.421875 306.804688 13.625 306.484375 14.027344 C 306.15625 14.417969 305.996094 14.984375 305.996094 15.726562 Z M 305.996094 15.726562 "/>
<path style=" stroke:none;fill-rule:nonzero;fill:rgb(0%,0%,0%);fill-opacity:1;" d="M 315.140625 18.617188 L 315.140625 17.875 C 314.761719 18.460938 314.214844 18.753906 313.5 18.753906 C 313.042969 18.753906 312.621094 18.621094 312.230469 18.363281 C 311.839844 18.105469 311.535156 17.746094 311.3125 17.289062 C 311.105469 16.835938 311 16.308594 311 15.707031 C 311 15.121094 311.097656 14.59375 311.292969 14.125 C 311.488281 13.644531 311.773438 13.28125 312.152344 13.03125 C 312.542969 12.785156 312.980469 12.660156 313.460938 12.660156 C 313.8125 12.660156 314.125 12.734375 314.398438 12.875 C 314.671875 13.019531 314.894531 13.214844 315.0625 13.460938 L 315.0625 10.570312 L 316.058594 10.570312 L 316.058594 18.617188 Z M 312.015625 15.707031 C 312.015625 16.449219 312.171875 17.011719 312.484375 17.386719 C 312.796875 17.753906 313.167969 17.933594 313.597656 17.933594 C 314.027344 17.933594 314.390625 17.757812 314.691406 17.40625 C 315.003906 17.054688 315.160156 16.515625 315.160156 15.785156 C 315.160156 14.992188 315.003906 14.40625 314.691406 14.027344 C 314.378906 13.652344 314 13.460938 313.558594 13.460938 C 313.117188 13.460938 312.746094 13.644531 312.445312 14.007812 C 312.160156 14.375 312.015625 14.941406 312.015625 15.707031 Z M 312.015625 15.707031 "/>
<path style=" stroke:none;fill-rule:nonzero;fill:rgb(0%,0%,0%);fill-opacity:1;" d="M 321.417969 17.894531 C 321.054688 18.207031 320.703125 18.429688 320.363281 18.558594 C 320.023438 18.683594 319.660156 18.753906 319.269531 18.753906 C 318.632812 18.753906 318.136719 18.597656 317.785156 18.285156 C 317.445312 17.972656 317.277344 17.570312 317.277344 17.074219 C 317.277344 16.789062 317.34375 16.527344 317.472656 16.292969 C 317.601562 16.058594 317.773438 15.871094 317.980469 15.726562 C 318.1875 15.585938 318.421875 15.472656 318.683594 15.394531 C 318.878906 15.355469 319.171875 15.3125 319.5625 15.257812 C 320.371094 15.167969 320.960938 15.050781 321.339844 14.90625 C 321.339844 14.777344 321.339844 14.691406 321.339844 14.652344 C 321.339844 14.25 321.25 13.96875 321.066406 13.8125 C 320.804688 13.578125 320.429688 13.460938 319.933594 13.460938 C 319.464844 13.460938 319.121094 13.546875 318.898438 13.714844 C 318.675781 13.871094 318.515625 14.160156 318.410156 14.574219 L 317.453125 14.457031 C 317.53125 14.042969 317.667969 13.710938 317.863281 13.460938 C 318.070312 13.203125 318.363281 13.007812 318.742188 12.875 C 319.132812 12.734375 319.574219 12.660156 320.070312 12.660156 C 320.578125 12.660156 320.980469 12.71875 321.28125 12.835938 C 321.59375 12.953125 321.820312 13.105469 321.964844 13.285156 C 322.121094 13.457031 322.226562 13.675781 322.277344 13.949219 C 322.316406 14.121094 322.335938 14.417969 322.335938 14.847656 L 322.335938 16.175781 C 322.335938 17.089844 322.355469 17.667969 322.394531 17.914062 C 322.433594 18.164062 322.519531 18.398438 322.648438 18.617188 L 321.613281 18.617188 C 321.507812 18.410156 321.445312 18.167969 321.417969 17.894531 Z M 321.339844 15.6875 C 320.976562 15.832031 320.433594 15.957031 319.71875 16.058594 C 319.316406 16.125 319.027344 16.195312 318.859375 16.273438 C 318.691406 16.339844 318.558594 16.445312 318.46875 16.585938 C 318.378906 16.730469 318.332031 16.886719 318.332031 17.054688 C 318.332031 17.316406 318.429688 17.539062 318.625 17.71875 C 318.820312 17.890625 319.113281 17.972656 319.503906 17.972656 C 319.882812 17.972656 320.21875 17.890625 320.519531 17.71875 C 320.820312 17.550781 321.039062 17.324219 321.183594 17.035156 C 321.289062 16.816406 321.339844 16.488281 321.339844 16.058594 Z M 321.339844 15.6875 "/>
<path style=" stroke:none;fill-rule:nonzero;fill:rgb(0%,0%,0%);fill-opacity:1;" d="M 326.035156 17.738281 L 326.171875 18.597656 C 325.882812 18.660156 325.636719 18.695312 325.429688 18.695312 C 325.0625 18.695312 324.785156 18.636719 324.589844 18.519531 C 324.394531 18.402344 324.25 18.253906 324.160156 18.070312 C 324.082031 17.890625 324.042969 17.503906 324.042969 16.917969 L 324.042969 13.558594 L 323.320312 13.558594 L 323.320312 12.777344 L 324.042969 12.777344 L 324.042969 11.332031 L 325.039062 10.746094 L 325.039062 12.777344 L 326.035156 12.777344 L 326.035156 13.558594 L 325.039062 13.558594 L 325.039062 16.957031 C 325.039062 17.246094 325.050781 17.425781 325.078125 17.503906 C 325.117188 17.582031 325.175781 17.648438 325.253906 17.699219 C 325.332031 17.753906 325.441406 17.777344 325.585938 17.777344 C 325.703125 17.777344 325.851562 17.765625 326.035156 17.738281 Z M 326.035156 17.738281 "/>
<path style=" stroke:none;fill-rule:nonzero;fill:rgb(0%,0%,0%);fill-opacity:1;" d="M 330.980469 16.742188 L 332.015625 16.859375 C 331.847656 17.460938 331.539062 17.929688 331.097656 18.265625 C 330.667969 18.59375 330.113281 18.753906 329.4375 18.753906 C 328.589844 18.753906 327.914062 18.496094 327.40625 17.972656 C 326.910156 17.441406 326.664062 16.699219 326.664062 15.746094 C 326.664062 14.769531 326.917969 14.015625 327.425781 13.480469 C 327.933594 12.933594 328.589844 12.660156 329.398438 12.660156 C 330.179688 12.660156 330.8125 12.929688 331.292969 13.460938 C 331.789062 13.984375 332.035156 14.726562 332.035156 15.6875 C 332.035156 15.753906 332.035156 15.84375 332.035156 15.960938 L 327.679688 15.960938 C 327.71875 16.601562 327.902344 17.089844 328.226562 17.425781 C 328.550781 17.765625 328.960938 17.933594 329.457031 17.933594 C 329.820312 17.933594 330.128906 17.84375 330.375 17.660156 C 330.636719 17.464844 330.835938 17.160156 330.980469 16.742188 Z M 327.738281 15.140625 L 331 15.140625 C 330.960938 14.648438 330.835938 14.277344 330.628906 14.027344 C 330.316406 13.652344 329.90625 13.460938 329.398438 13.460938 C 328.941406 13.460938 328.558594 13.617188 328.246094 13.929688 C 327.945312 14.230469 327.777344 14.632812 327.738281 15.140625 Z M 327.738281 15.140625 "/>
<path style=" stroke:none;fill-rule:nonzero;fill:rgb(0%,0%,0%);fill-opacity:1;" d="M 338.550781 17.738281 L 338.6875 18.597656 C 338.402344 18.660156 338.152344 18.695312 337.945312 18.695312 C 337.582031 18.695312 337.300781 18.636719 337.105469 18.519531 C 336.910156 18.402344 336.765625 18.253906 336.675781 18.070312 C 336.597656 17.890625 336.558594 17.503906 336.558594 16.917969 L 336.558594 13.558594 L 335.835938 13.558594 L 335.835938 12.777344 L 336.558594 12.777344 L 336.558594 11.332031 L 337.554688 10.746094 L 337.554688 12.777344 L 338.550781 12.777344 L 338.550781 13.558594 L 337.554688 13.558594 L 337.554688 16.957031 C 337.554688 17.246094 337.566406 17.425781 337.59375 17.503906 C 337.632812 17.582031 337.691406 17.648438 337.769531 17.699219 C 337.847656 17.753906 337.957031 17.777344 338.101562 17.777344 C 338.21875 17.777344 338.367188 17.765625 338.550781 17.738281 Z M 338.550781 17.738281 "/>
<path style=" stroke:none;fill-rule:nonzero;fill:rgb(0%,0%,0%);fill-opacity:1;" d="M 339.515625 18.617188 L 339.515625 10.570312 L 340.511719 10.570312 L 340.511719 13.460938 C 340.964844 12.929688 341.546875 12.660156 342.25 12.660156 C 342.679688 12.660156 343.050781 12.746094 343.363281 12.914062 C 343.683594 13.085938 343.914062 13.320312 344.046875 13.617188 C 344.1875 13.917969 344.261719 14.355469 344.261719 14.925781 L 344.261719 18.617188 L 343.285156 18.617188 L 343.285156 14.925781 C 343.285156 14.433594 343.171875 14.074219 342.953125 13.851562 C 342.742188 13.617188 342.445312 13.5 342.054688 13.5 C 341.75 13.5 341.472656 13.578125 341.214844 13.734375 C 340.949219 13.878906 340.769531 14.082031 340.667969 14.339844 C 340.558594 14.601562 340.511719 14.964844 340.511719 15.433594 L 340.511719 18.617188 Z M 339.515625 18.617188 "/>
<path style=" stroke:none;fill-rule:nonzero;fill:rgb(0%,0%,0%);fill-opacity:1;" d="M 349.757812 16.742188 L 350.792969 16.859375 C 350.621094 17.460938 350.3125 17.929688 349.875 18.265625 C 349.445312 18.59375 348.886719 18.753906 348.214844 18.753906 C 347.363281 18.753906 346.691406 18.496094 346.183594 17.972656 C 345.683594 17.441406 345.441406 16.699219 345.441406 15.746094 C 345.441406 14.769531 345.695312 14.015625 346.203125 13.480469 C 346.710938 12.933594 347.363281 12.660156 348.175781 12.660156 C 348.957031 12.660156 349.585938 12.929688 350.070312 13.460938 C 350.5625 13.984375 350.8125 14.726562 350.8125 15.6875 C 350.8125 15.753906 350.8125 15.84375 350.8125 15.960938 L 346.457031 15.960938 C 346.496094 16.601562 346.675781 17.089844 347.003906 17.425781 C 347.324219 17.765625 347.734375 17.933594 348.234375 17.933594 C 348.59375 17.933594 348.902344 17.84375 349.152344 17.660156 C 349.410156 17.464844 349.609375 17.160156 349.757812 16.742188 Z M 346.515625 15.140625 L 349.777344 15.140625 C 349.738281 14.648438 349.609375 14.277344 349.40625 14.027344 C 349.09375 13.652344 348.683594 13.460938 348.175781 13.460938 C 347.714844 13.460938 347.335938 13.617188 347.023438 13.929688 C 346.71875 14.230469 346.554688 14.632812 346.515625 15.140625 Z M 346.515625 15.140625 "/>
<path style=" stroke:none;fill-rule:nonzero;fill:rgb(0%,0%,0%);fill-opacity:1;" d="M 309.171875 31.484375 L 309.171875 25.644531 L 310.050781 25.644531 L 310.050781 26.464844 C 310.230469 26.179688 310.46875 25.953125 310.773438 25.78125 C 311.085938 25.617188 311.4375 25.527344 311.828125 25.527344 C 312.257812 25.527344 312.609375 25.621094 312.882812 25.800781 C 313.15625 25.972656 313.351562 26.21875 313.46875 26.542969 C 313.9375 25.867188 314.53125 25.527344 315.265625 25.527344 C 315.851562 25.527344 316.300781 25.695312 316.613281 26.015625 C 316.925781 26.328125 317.082031 26.816406 317.082031 27.480469 L 317.082031 31.484375 L 316.085938 31.484375 L 316.085938 27.8125 C 316.085938 27.414062 316.050781 27.125 315.988281 26.953125 C 315.933594 26.789062 315.820312 26.648438 315.65625 26.542969 C 315.484375 26.425781 315.285156 26.367188 315.050781 26.367188 C 314.644531 26.367188 314.308594 26.503906 314.035156 26.777344 C 313.761719 27.050781 313.625 27.492188 313.625 28.085938 L 313.625 31.484375 L 312.628906 31.484375 L 312.628906 27.695312 C 312.628906 27.257812 312.550781 26.921875 312.394531 26.699219 C 312.238281 26.480469 311.972656 26.367188 311.613281 26.367188 C 311.324219 26.367188 311.066406 26.445312 310.832031 26.601562 C 310.597656 26.75 310.425781 26.960938 310.324219 27.246094 C 310.214844 27.519531 310.167969 27.925781 310.167969 28.457031 L 310.167969 31.484375 Z M 309.171875 31.484375 "/>
<path style=" stroke:none;fill-rule:nonzero;fill:rgb(0%,0%,0%);fill-opacity:1;" d="M 318.171875 28.574219 C 318.171875 27.496094 318.46875 26.695312 319.070312 26.171875 C 319.578125 25.742188 320.1875 25.527344 320.90625 25.527344 C 321.710938 25.527344 322.371094 25.789062 322.878906 26.308594 C 323.386719 26.832031 323.640625 27.554688 323.640625 28.476562 C 323.640625 29.234375 323.523438 29.824219 323.289062 30.253906 C 323.066406 30.683594 322.742188 31.023438 322.3125 31.269531 C 321.882812 31.503906 321.414062 31.621094 320.90625 31.621094 C 320.085938 31.621094 319.421875 31.363281 318.914062 30.839844 C 318.417969 30.308594 318.171875 29.550781 318.171875 28.574219 Z M 319.1875 28.574219 C 319.1875 29.316406 319.347656 29.878906 319.675781 30.253906 C 320 30.621094 320.410156 30.800781 320.90625 30.800781 C 321.398438 30.800781 321.808594 30.621094 322.136719 30.253906 C 322.460938 29.878906 322.625 29.304688 322.625 28.535156 C 322.625 27.820312 322.460938 27.273438 322.136719 26.894531 C 321.808594 26.519531 321.398438 26.328125 320.90625 26.328125 C 320.410156 26.328125 320 26.519531 319.675781 26.894531 C 319.347656 27.261719 319.1875 27.820312 319.1875 28.574219 Z M 319.1875 28.574219 "/>
<path style=" stroke:none;fill-rule:nonzero;fill:rgb(0%,0%,0%);fill-opacity:1;" d="M 328.589844 31.484375 L 328.589844 30.742188 C 328.207031 31.328125 327.660156 31.621094 326.949219 31.621094 C 326.488281 31.621094 326.070312 31.488281 325.679688 31.230469 C 325.289062 30.972656 324.980469 30.617188 324.761719 30.15625 C 324.550781 29.703125 324.449219 29.175781 324.449219 28.574219 C 324.449219 27.988281 324.546875 27.460938 324.742188 26.992188 C 324.9375 26.515625 325.21875 26.148438 325.601562 25.898438 C 325.992188 25.65625 326.425781 25.527344 326.910156 25.527344 C 327.261719 25.527344 327.574219 25.601562 327.847656 25.742188 C 328.121094 25.890625 328.339844 26.085938 328.511719 26.328125 L 328.511719 23.4375 L 329.507812 23.4375 L 329.507812 31.484375 Z M 325.464844 28.574219 C 325.464844 29.316406 325.621094 29.878906 325.933594 30.253906 C 326.246094 30.621094 326.617188 30.800781 327.046875 30.800781 C 327.476562 30.800781 327.835938 30.625 328.140625 30.273438 C 328.453125 29.921875 328.609375 29.382812 328.609375 28.652344 C 328.609375 27.859375 328.453125 27.273438 328.140625 26.894531 C 327.828125 26.519531 327.445312 26.328125 327.007812 26.328125 C 326.5625 26.328125 326.191406 26.515625 325.894531 26.875 C 325.605469 27.242188 325.464844 27.808594 325.464844 28.574219 Z M 325.464844 28.574219 "/>
<path style=" stroke:none;fill-rule:nonzero;fill:rgb(0%,0%,0%);fill-opacity:1;" d="M 335.042969 29.609375 L 336.078125 29.726562 C 335.90625 30.328125 335.597656 30.796875 335.160156 31.132812 C 334.730469 31.460938 334.171875 31.621094 333.5 31.621094 C 332.648438 31.621094 331.976562 31.363281 331.46875 30.839844 C 330.96875 30.308594 330.726562 29.566406 330.726562 28.613281 C 330.726562 27.636719 330.980469 26.882812 331.488281 26.347656 C 331.996094 25.800781 332.648438 25.527344 333.460938 25.527344 C 334.242188 25.527344 334.871094 25.796875 335.355469 26.328125 C 335.847656 26.851562 336.097656 27.59375 336.097656 28.554688 C 336.097656 28.625 336.097656 28.710938 336.097656 28.828125 L 331.742188 28.828125 C 331.78125 29.46875 331.960938 29.957031 332.289062 30.292969 C 332.609375 30.632812 333.019531 30.800781 333.519531 30.800781 C 333.878906 30.800781 334.1875 30.710938 334.4375 30.527344 C 334.695312 30.332031 334.894531 30.03125 335.042969 29.609375 Z M 331.800781 28.007812 L 335.0625 28.007812 C 335.023438 27.515625 334.894531 27.144531 334.691406 26.894531 C 334.378906 26.519531 333.96875 26.328125 333.460938 26.328125 C 333 26.328125 332.621094 26.484375 332.308594 26.796875 C 332.003906 27.101562 331.839844 27.5 331.800781 28.007812 Z M 331.800781 28.007812 "/>
<path style=" stroke:none;fill-rule:nonzero;fill:rgb(0%,0%,0%);fill-opacity:1;" d="M 337.296875 31.484375 L 337.296875 23.4375 L 338.273438 23.4375 L 338.273438 31.484375 Z M 337.296875 31.484375 "/>
<path style="fill:none;stroke-width:1;stroke-linecap:round;stroke-linejoin:miter;stroke:rgb(0%,0%,0%);stroke-opacity:1;stroke-miterlimit:10;" d="M 167.5 179.5 L 196.1 179.596875 " transform="matrix(1.25,0,0,1.25,-113.75,-165)"/>
<path style="fill:none;stroke-width:1;stroke-linecap:butt;stroke-linejoin:miter;stroke:rgb(0%,0%,0%);stroke-opacity:1;stroke-miterlimit:10;" d="M 200.1 179.6125 L 196.1 179.596875 M 196.10625 178.096875 L 200.1 179.6125 L 196.09375 181.096875 " transform="matrix(1.25,0,0,1.25,-113.75,-165)"/>
<path style="fill:none;stroke-width:1;stroke-linecap:round;stroke-linejoin:miter;stroke:rgb(0%,0%,0%);stroke-opacity:1;stroke-miterlimit:10;" d="M 239.5 164 L 239.5 154.45 C 239.5 151.6875 241.7375 149.45 244.5 149.45 L 269.85 149.45 C 269.871875 149.45 269.8875 149.45 269.903125 149.45 L 296.575 149.1875 C 296.59375 149.1875 296.609375 149.1875 296.625 149.1875 L 306.6 149.1875 " transform="matrix(1.25,0,0,1.25,-113.75,-165)"/>
<path style="fill:none;stroke-width:1;stroke-linecap:butt;stroke-linejoin:miter;stroke:rgb(0%,0%,0%);stroke-opacity:1;stroke-miterlimit:10;" d="M 310.6 149.1875 L 306.6 149.1875 M 306.6 147.6875 L 310.6 149.1875 L 306.6 150.6875 " transform="matrix(1.25,0,0,1.25,-113.75,-165)"/>
<path style="fill:none;stroke-width:1;stroke-linecap:round;stroke-linejoin:miter;stroke:rgb(0%,0%,0%);stroke-opacity:1;stroke-miterlimit:10;" d="M 350 164.9375 L 350 188.6625 " transform="matrix(1.25,0,0,1.25,-113.75,-165)"/>
<path style="fill:none;stroke-width:1;stroke-linecap:butt;stroke-linejoin:miter;stroke:rgb(0%,0%,0%);stroke-opacity:1;stroke-miterlimit:10;" d="M 350 192.6625 L 350 188.6625 M 351.5 188.6625 L 350 192.6625 L 348.5 188.6625 " transform="matrix(1.25,0,0,1.25,-113.75,-165)"/>
<path style="fill:none;stroke-width:1;stroke-linecap:round;stroke-linejoin:miter;stroke:rgb(0%,0%,0%);stroke-opacity:1;stroke-miterlimit:10;" d="M 312.5 210.3125 L 302.515625 210.3125 C 302.503125 210.3125 302.496875 210.3125 302.484375 210.3125 L 260.20625 210.565625 C 260.2 210.565625 260.1875 210.565625 260.18125 210.565625 L 244.5 210.565625 C 241.7375 210.565625 239.5 208.328125 239.5 205.565625 L 239.5 201.4 " transform="matrix(1.25,0,0,1.25,-113.75,-165)"/>
<path style="fill:none;stroke-width:1;stroke-linecap:butt;stroke-linejoin:miter;stroke:rgb(0%,0%,0%);stroke-opacity:1;stroke-miterlimit:10;" d="M 239.5 197.4 L 239.5 201.4 M 238 201.4 L 239.5 197.4 L 241 201.4 " transform="matrix(1.25,0,0,1.25,-113.75,-165)"/>
</g>
</svg>
