<?xml version="1.0" encoding="UTF-8" standalone="no"?>
<!-- Created with Inkscape (http://www.inkscape.org/) -->

<svg
   xmlns:dc="http://purl.org/dc/elements/1.1/"
   xmlns:cc="http://creativecommons.org/ns#"
   xmlns:rdf="http://www.w3.org/1999/02/22-rdf-syntax-ns#"
   xmlns:svg="http://www.w3.org/2000/svg"
   xmlns="http://www.w3.org/2000/svg"
   xmlns:sodipodi="http://sodipodi.sourceforge.net/DTD/sodipodi-0.dtd"
   xmlns:inkscape="http://www.inkscape.org/namespaces/inkscape"
   width="46.981663mm"
   height="41.542099mm"
   viewBox="0 0 166.47046 147.19641"
   id="svg2"
   version="1.1"
   inkscape:version="0.91 r13725"
   sodipodi:docname="perceptron_xor_hyperplane_extended.svg"
   inkscape:export-filename="/home/eneftci/Projects/doc/lectures/AMI/slides/img/perceptron_xor_hyperplane_extended.png"
   inkscape:export-xdpi="300"
   inkscape:export-ydpi="300">
  <sodipodi:namedview
     id="base"
     pagecolor="#ffffff"
     bordercolor="#666666"
     borderopacity="1.0"
     inkscape:pageopacity="0.0"
     inkscape:pageshadow="2"
     inkscape:zoom="2.8676716"
     inkscape:cx="-38.302944"
     inkscape:cy="81.471285"
     inkscape:document-units="px"
     inkscape:current-layer="g5018"
     showgrid="false"
     inkscape:window-width="3838"
     inkscape:window-height="2139"
     inkscape:window-x="0"
     inkscape:window-y="19"
     inkscape:window-maximized="1"
     fit-margin-top="0"
     fit-margin-left="0"
     fit-margin-right="0"
     fit-margin-bottom="0" />
  <defs
     id="defs4">
    <marker
       inkscape:isstock="true"
       style="overflow:visible"
       id="Arrow1Mstart"
       refX="0"
       refY="0"
       orient="auto"
       inkscape:stockid="Arrow1Mstart">
      <path
         inkscape:connector-curvature="0"
         transform="matrix(0.4,0,0,0.4,4,0)"
         style="fill:#000000;fill-opacity:1;fill-rule:evenodd;stroke:#000000;stroke-width:1pt;stroke-opacity:1"
         d="M 0,0 5,-5 -12.5,0 5,5 0,0 Z"
         id="path4165" />
    </marker>
    <marker
       inkscape:isstock="true"
       style="overflow:visible"
       id="Arrow1Mend"
       refX="0"
       refY="0"
       orient="auto"
       inkscape:stockid="Arrow1Mend">
      <path
         inkscape:connector-curvature="0"
         transform="matrix(-0.4,0,0,-0.4,-4,0)"
         style="fill:#000000;fill-opacity:1;fill-rule:evenodd;stroke:#000000;stroke-width:1pt;stroke-opacity:1"
         d="M 0,0 5,-5 -12.5,0 5,5 0,0 Z"
         id="path4168" />
    </marker>
    <marker
       inkscape:stockid="Arrow1Mstart"
       orient="auto"
       refY="0"
       refX="0"
       id="Arrow1Mstart-7"
       style="overflow:visible"
       inkscape:isstock="true">
      <path
         id="path4165-4"
         d="M 0,0 5,-5 -12.5,0 5,5 0,0 Z"
         style="fill:#000000;fill-opacity:1;fill-rule:evenodd;stroke:#000000;stroke-width:1pt;stroke-opacity:1"
         transform="matrix(0.4,0,0,0.4,4,0)"
         inkscape:connector-curvature="0" />
    </marker>
    <marker
       inkscape:stockid="Arrow1Mend"
       orient="auto"
       refY="0"
       refX="0"
       id="Arrow1Mend-7"
       style="overflow:visible"
       inkscape:isstock="true">
      <path
         id="path4168-8"
         d="M 0,0 5,-5 -12.5,0 5,5 0,0 Z"
         style="fill:#000000;fill-opacity:1;fill-rule:evenodd;stroke:#000000;stroke-width:1pt;stroke-opacity:1"
         transform="matrix(-0.4,0,0,-0.4,-4,0)"
         inkscape:connector-curvature="0" />
    </marker>
    <marker
       inkscape:stockid="Arrow1Mstart"
       orient="auto"
       refY="0"
       refX="0"
       id="Arrow1Mstart-7-3"
       style="overflow:visible"
       inkscape:isstock="true">
      <path
         id="path4165-4-0"
         d="M 0,0 5,-5 -12.5,0 5,5 0,0 Z"
         style="fill:#000000;fill-opacity:1;fill-rule:evenodd;stroke:#000000;stroke-width:1pt;stroke-opacity:1"
         transform="matrix(0.4,0,0,0.4,4,0)"
         inkscape:connector-curvature="0" />
    </marker>
    <marker
       inkscape:stockid="Arrow1Mend"
       orient="auto"
       refY="0"
       refX="0"
       id="Arrow1Mend-7-7"
       style="overflow:visible"
       inkscape:isstock="true">
      <path
         id="path4168-8-3"
         d="M 0,0 5,-5 -12.5,0 5,5 0,0 Z"
         style="fill:#000000;fill-opacity:1;fill-rule:evenodd;stroke:#000000;stroke-width:1pt;stroke-opacity:1"
         transform="matrix(-0.4,0,0,-0.4,-4,0)"
         inkscape:connector-curvature="0" />
    </marker>
    <marker
       inkscape:stockid="Arrow1Mstart"
       orient="auto"
       refY="0"
       refX="0"
       id="Arrow1Mstart-7-7"
       style="overflow:visible"
       inkscape:isstock="true">
      <path
         id="path4165-4-3"
         d="M 0,0 5,-5 -12.5,0 5,5 0,0 Z"
         style="fill:#000000;fill-opacity:1;fill-rule:evenodd;stroke:#000000;stroke-width:1pt;stroke-opacity:1"
         transform="matrix(0.4,0,0,0.4,4,0)"
         inkscape:connector-curvature="0" />
    </marker>
    <marker
       inkscape:stockid="Arrow1Mend"
       orient="auto"
       refY="0"
       refX="0"
       id="Arrow1Mend-7-78"
       style="overflow:visible"
       inkscape:isstock="true">
      <path
         id="path4168-8-1"
         d="M 0,0 5,-5 -12.5,0 5,5 0,0 Z"
         style="fill:#000000;fill-opacity:1;fill-rule:evenodd;stroke:#000000;stroke-width:1pt;stroke-opacity:1"
         transform="matrix(-0.4,0,0,-0.4,-4,0)"
         inkscape:connector-curvature="0" />
    </marker>
  </defs>
  <metadata
     id="metadata7">
    <rdf:RDF>
      <cc:Work
         rdf:about="">
        <dc:format>image/svg+xml</dc:format>
        <dc:type
           rdf:resource="http://purl.org/dc/dcmitype/StillImage" />
        <dc:title />
      </cc:Work>
    </rdf:RDF>
  </metadata>
  <g
     transform="translate(-52.793844,-203.62238)"
     id="layer1"
     inkscape:groupmode="layer"
     inkscape:label="Layer 1">
    <path
       style="fill:none;fill-rule:evenodd;stroke:#000000;stroke-width:1;stroke-linecap:butt;stroke-linejoin:miter;stroke-miterlimit:4;stroke-dasharray:1, 1;stroke-dashoffset:0;stroke-opacity:1"
       d="m 127.12476,336.65157 30.1912,-40.53812"
       id="path3353-5-8-4"
       inkscape:connector-curvature="0"
       sodipodi:nodetypes="cc" />
    <path
       style="fill:none;fill-rule:evenodd;stroke:#000000;stroke-width:0.99999994;stroke-linecap:butt;stroke-linejoin:miter;stroke-miterlimit:4;stroke-dasharray:1, 1;stroke-dashoffset:0;stroke-opacity:1"
       d="m 128.05394,272.49165 0,63.85921 -63.307996,0"
       id="path3353-5-8"
       inkscape:connector-curvature="0"
       sodipodi:nodetypes="ccc" />
    <path
       style="fill:none;fill-rule:evenodd;stroke:#000000;stroke-width:1px;stroke-linecap:butt;stroke-linejoin:miter;stroke-opacity:1;marker-end:url(#Arrow1Mend-7-7)"
       d="M 98.595056,296.06575 54.019345,349.35376"
       id="path3353-5-4"
       inkscape:connector-curvature="0"
       sodipodi:nodetypes="cc" />
    <path
       style="fill:none;fill-rule:evenodd;stroke:#000000;stroke-width:1px;stroke-linecap:butt;stroke-linejoin:miter;stroke-opacity:1;marker-start:url(#Arrow1Mstart-7);marker-end:url(#Arrow1Mend-7)"
       d="m 98.413499,205.53239 0,90.66667 96.000011,0"
       id="path3353-5"
       inkscape:connector-curvature="0"
       sodipodi:nodetypes="ccc" />
    <circle
       style="opacity:1;fill:#0000ff;fill-opacity:1;stroke:none;stroke-width:3;stroke-linecap:butt;stroke-linejoin:miter;stroke-miterlimit:4;stroke-dasharray:none;stroke-dashoffset:0;stroke-opacity:1"
       id="path4491-8"
       cx="127.95015"
       cy="273.91336"
       r="5.9047618" />
    <circle
       style="opacity:1;fill:#0000ff;fill-opacity:1;stroke:none;stroke-width:3;stroke-linecap:butt;stroke-linejoin:miter;stroke-miterlimit:4;stroke-dasharray:none;stroke-dashoffset:0;stroke-opacity:1"
       id="path4491-9-3"
       cx="98.207458"
       cy="296.44354"
       r="5.9047618" />
    <circle
       style="opacity:1;fill:#ff0000;fill-opacity:1;stroke:none;stroke-width:3;stroke-linecap:butt;stroke-linejoin:miter;stroke-miterlimit:4;stroke-dasharray:none;stroke-dashoffset:0;stroke-opacity:1"
       id="path4491-1-0"
       cx="157.84206"
       cy="295.91336"
       r="5.9047618" />
    <circle
       style="opacity:1;fill:#ff0000;fill-opacity:1;stroke:none;stroke-width:3;stroke-linecap:butt;stroke-linejoin:miter;stroke-miterlimit:4;stroke-dasharray:none;stroke-dashoffset:0;stroke-opacity:1"
       id="path4491-6-1"
       cx="98.032524"
       cy="242.77048"
       r="5.9047618" />
    <text
       xml:space="preserve"
       style="font-style:normal;font-variant:normal;font-weight:normal;font-stretch:normal;font-size:16px;line-height:100%;font-family:Arial;-inkscape-font-specification:'Arial, Normal';text-align:start;letter-spacing:0px;word-spacing:0px;writing-mode:lr-tb;text-anchor:start;fill:#000000;fill-opacity:1;stroke:none;stroke-width:1px;stroke-linecap:butt;stroke-linejoin:miter;stroke-opacity:1"
       x="123.80609"
       y="215.77307"
       id="text4997"
       sodipodi:linespacing="100%"><tspan
         sodipodi:role="line"
         id="tspan4999"
         x="123.80609"
         y="215.77307">XOR</tspan></text>
    <g
       id="g5018"
       transform="translate(-205.27958,-260.70139)">
      <g
         transform="matrix(0,-1,1,0,-50.910811,792.95806)"
         id="g5058">
        <path
           style="font-style:normal;font-variant:normal;font-weight:normal;font-stretch:normal;letter-spacing:normal;word-spacing:normal;text-anchor:start;fill:#000000;fill-opacity:1;fill-rule:evenodd;stroke:#000000;stroke-width:0;stroke-linecap:butt;stroke-linejoin:miter;stroke-miterlimit:10.43299961;stroke-dasharray:none;stroke-dashoffset:0;stroke-opacity:1"
           inkscape:connector-curvature="0"
           d="m 307.75024,337.73982 0.0148,-0.0643 0.0148,-0.0741 0.0247,-0.084 0.0198,-0.089 0.0297,-0.0939 0.0297,-0.10379 0.0297,-0.1038 0.0346,-0.11369 0.0396,-0.11368 0.0445,-0.11863 0.0494,-0.12357 0.0494,-0.11863 0.0544,-0.12357 0.0593,-0.12357 0.0643,-0.12357 0.0692,-0.12357 0.0741,-0.11862 0.0741,-0.11863 0.084,-0.11369 0.089,-0.10874 0.089,-0.10874 0.0989,-0.0989 0.1038,-0.0939 0.10874,-0.089 0.11368,-0.0791 0.12357,-0.0692 0.0593,-0.0346 0.0643,-0.0297 0.0643,-0.0247 0.0692,-0.0247 0.0692,-0.0247 0.0692,-0.0198 0.0692,-0.0148 0.0742,-0.0148 0.0741,-0.01 0.0791,-0.01 0.0791,-0.005 0.0791,0 c 0.12357,0 0.71671,0 1.23076,0.32128 -0.69199,0.12357 -1.18133,0.73648 -1.18133,1.32467 0,0.39542 0.26691,0.86499 0.93419,0.86499 0.54371,0 1.32961,-0.44485 1.32961,-1.42847 0,-1.28018 -1.45318,-1.62618 -2.28851,-1.62618 -1.42847,0 -2.29346,1.3049 -2.58509,1.87332 -0.61785,-1.62618 -1.94746,-1.87332 -2.65922,-1.87332 -2.56037,0 -3.96413,3.17822 -3.96413,3.79113 0,0.24714 0.24714,0.24714 0.29657,0.24714 0.19277,0 0.26691,-0.0494 0.31634,-0.26691 0.84027,-2.61475 2.46151,-3.22765 3.30179,-3.22765 0.46956,0 1.32961,0.22242 1.32961,1.64595 0,0.76613 -0.42014,2.41703 -1.32961,5.86216 -0.39543,1.52732 -1.25547,2.56037 -2.33795,2.56037 -0.14828,0 -0.7167,0 -1.23075,-0.32128 0.6129,-0.12357 1.15661,-0.63762 1.15661,-1.32962 0,-0.66233 -0.54371,-0.86004 -0.91442,-0.86004 -0.73647,0 -1.34938,0.64256 -1.34938,1.42847 0,1.1319 1.22581,1.62618 2.31323,1.62618 1.62124,0 2.51094,-1.72504 2.58508,-1.87332 0.29657,0.91441 1.18133,1.87332 2.65923,1.87332 2.53566,0 3.93941,-3.17822 3.93941,-3.79113 0,-0.24714 -0.22242,-0.24714 -0.29657,-0.24714 -0.22242,0 -0.27185,0.0989 -0.32128,0.27185 -0.81062,2.63452 -2.48623,3.22271 -3.27213,3.22271 -0.96385,0 -1.35433,-0.78591 -1.35433,-1.62618 0,-0.53877 0.14334,-1.08247 0.42014,-2.16495 z"
           id="path5021" />
        <path
           style="font-style:normal;font-variant:normal;font-weight:normal;font-stretch:normal;letter-spacing:normal;word-spacing:normal;text-anchor:start;fill:#000000;fill-opacity:1;fill-rule:evenodd;stroke:#000000;stroke-width:0;stroke-linecap:butt;stroke-linejoin:miter;stroke-miterlimit:10.43299961;stroke-dasharray:none;stroke-dashoffset:0;stroke-opacity:1"
           inkscape:connector-curvature="0"
           d="m 319.13845,337.67062 0,-0.0198 0,-0.0198 0,-0.0198 0,-0.0198 0,-0.0198 0,-0.0198 0,-0.0148 0,-0.0198 -0.005,-0.0148 0,-0.0148 0,-0.0198 0,-0.0148 -0.005,-0.01 0,-0.0148 0,-0.0148 -0.005,-0.0148 0,-0.01 0,-0.01 -0.01,-0.0247 -0.005,-0.0198 -0.005,-0.0198 -0.01,-0.0148 -0.01,-0.0148 -0.01,-0.0148 -0.0148,-0.0148 -0.01,-0.01 -0.0148,-0.01 -0.0198,-0.01 -0.0148,-0.005 -0.0198,-0.005 -0.0247,-0.01 -0.0247,0 -0.01,-0.005 -0.0148,0 -0.0148,-0.005 -0.01,0 -0.0148,0 -0.0148,0 -0.0198,0 -0.0148,-0.005 -0.0148,0 -0.0198,0 -0.0148,0 -0.0198,0 -0.0198,0 -0.0198,0 -0.0198,0 -0.0198,0 -0.0247,0 -0.0198,0 c -1.10718,1.08248 -2.67405,1.10225 -3.38087,1.10225 l 0,0.61785 c 0.41519,0 1.55204,0 2.50105,-0.47945 l 0,8.78829 c 0,0.56842 0,0.79579 -1.72503,0.79579 l -0.6574,0 0,0.61785 6.15379,0 0,-0.61785 -0.65245,0 c -1.72504,0 -1.72504,-0.22737 -1.72504,-0.79579 z"
           id="path5023" />
      </g>
      <g
         transform="translate(69.357573,218.1616)"
         id="g5054">
        <path
           style="font-style:normal;font-variant:normal;font-weight:normal;font-stretch:normal;letter-spacing:normal;word-spacing:normal;text-anchor:start;fill:#000000;fill-opacity:1;fill-rule:evenodd;stroke:#000000;stroke-width:0;stroke-linecap:butt;stroke-linejoin:miter;stroke-miterlimit:10.43299961;stroke-dasharray:none;stroke-dashoffset:0;stroke-opacity:1"
           inkscape:connector-curvature="0"
           d="m 340.867,337.73982 0.0148,-0.0643 0.0148,-0.0741 0.0247,-0.084 0.0198,-0.089 0.0297,-0.0939 0.0297,-0.10379 0.0297,-0.1038 0.0346,-0.11369 0.0395,-0.11368 0.0445,-0.11863 0.0494,-0.12357 0.0494,-0.11863 0.0544,-0.12357 0.0593,-0.12357 0.0643,-0.12357 0.0692,-0.12357 0.0741,-0.11862 0.0741,-0.11863 0.084,-0.11369 0.089,-0.10874 0.089,-0.10874 0.0989,-0.0989 0.1038,-0.0939 0.10874,-0.089 0.11368,-0.0791 0.12357,-0.0692 0.0593,-0.0346 0.0642,-0.0297 0.0643,-0.0247 0.0692,-0.0247 0.0692,-0.0247 0.0692,-0.0198 0.0692,-0.0148 0.0741,-0.0148 0.0741,-0.01 0.0791,-0.01 0.0791,-0.005 0.0791,0 c 0.12357,0 0.71671,0 1.23076,0.32128 -0.69199,0.12357 -1.18133,0.73648 -1.18133,1.32467 0,0.39542 0.27186,0.86499 0.93419,0.86499 0.54371,0 1.32962,-0.44485 1.32962,-1.42847 0,-1.28018 -1.45319,-1.62618 -2.28852,-1.62618 -1.42847,0 -2.29346,1.3049 -2.58509,1.87332 -0.6129,-1.62618 -1.94746,-1.87332 -2.65922,-1.87332 -2.56037,0 -3.96413,3.17822 -3.96413,3.79113 0,0.24714 0.24714,0.24714 0.29657,0.24714 0.19277,0 0.26691,-0.0494 0.31634,-0.26691 0.84028,-2.61475 2.46646,-3.22765 3.30179,-3.22765 0.46462,0 1.32961,0.22242 1.32961,1.64595 0,0.76613 -0.42013,2.41703 -1.32961,5.86216 -0.39542,1.52732 -1.25547,2.56037 -2.33794,2.56037 -0.14829,0 -0.71671,0 -1.23076,-0.32128 0.61291,-0.12357 1.15661,-0.63762 1.15661,-1.32962 0,-0.66233 -0.5437,-0.86004 -0.91441,-0.86004 -0.73648,0 -1.34939,0.64256 -1.34939,1.42847 0,1.1319 1.22582,1.62618 2.31323,1.62618 1.62124,0 2.51094,-1.72504 2.58014,-1.87332 0.30151,0.91441 1.18628,1.87332 2.66417,1.87332 2.53566,0 3.93941,-3.17822 3.93941,-3.79113 0,-0.24714 -0.22242,-0.24714 -0.29656,-0.24714 -0.22243,0 -0.27186,0.0989 -0.32129,0.27185 -0.81062,2.63452 -2.48622,3.22271 -3.27213,3.22271 -0.9589,0 -1.35433,-0.78591 -1.35433,-1.62618 0,-0.53877 0.14829,-1.08247 0.42014,-2.16495 z"
           id="path5025" />
        <path
           style="font-style:normal;font-variant:normal;font-weight:normal;font-stretch:normal;letter-spacing:normal;word-spacing:normal;text-anchor:start;fill:#000000;fill-opacity:1;fill-rule:evenodd;stroke:#000000;stroke-width:0;stroke-linecap:butt;stroke-linejoin:miter;stroke-miterlimit:10.43299961;stroke-dasharray:none;stroke-dashoffset:0;stroke-opacity:1"
           inkscape:connector-curvature="0"
           d="m 355.1863,345.49507 -0.5882,0 c -0.0494,0.3806 -0.22242,1.39882 -0.44485,1.57181 -0.1384,0.1038 -1.46801,0.1038 -1.70526,0.1038 l -3.17328,0 c 1.80906,-1.60641 2.41208,-2.08586 3.44513,-2.89648 1.27524,-1.01821 2.46646,-2.08586 2.46646,-3.72687 0,-2.08092 -1.82884,-3.35616 -4.03333,-3.35616 -2.14023,0 -3.58353,1.49767 -3.58353,3.08431 0,0.87982 0.74142,0.96385 0.90948,0.96385 0.41519,0 0.91936,-0.29163 0.91936,-0.91442 0,-0.30646 -0.12357,-0.91442 -1.01822,-0.91442 0.53382,-1.22087 1.70527,-1.60147 2.51589,-1.60147 1.72009,0 2.61968,1.34444 2.61968,2.73831 0,1.50261 -1.06764,2.69383 -1.62124,3.31168 l -4.15195,4.10252 c -0.173,0.15323 -0.173,0.18783 -0.173,0.67222 l 7.09786,0 z"
           id="path5027" />
      </g>
      <g
         transform="matrix(2.4337999,0,0,2.4338001,114.16218,483.82021)"
         id="g6688">
        <g
           style="font-style:normal;font-variant:normal;font-weight:normal;font-stretch:normal;letter-spacing:normal;word-spacing:normal;text-anchor:start;fill:none;fill-opacity:1;fill-rule:evenodd;stroke:#000000;stroke-width:0.41088012;stroke-linecap:butt;stroke-linejoin:miter;stroke-miterlimit:10.43299961;stroke-dasharray:none;stroke-dashoffset:0;stroke-opacity:1"
           word-spacing="normal"
           letter-spacing="normal"
           font-size-adjust="none"
           font-stretch="normal"
           font-weight="normal"
           font-variant="normal"
           font-style="normal"
           stroke-miterlimit="10.433"
           xml:space="preserve"
           transform="matrix(0.21028059,0,0,-0.21028059,-36.799103,124.85284)"
           id="content"><path
             style="fill:#000000;stroke-width:0"
             inkscape:connector-curvature="0"
             id="path6691"
             d="m 472.64,421.04 0.03,0.13 0.03,0.15 0.05,0.17 0.04,0.18 0.06,0.19 0.06,0.21 0.06,0.21 0.07,0.23 0.08,0.23 0.09,0.24 0.1,0.25 0.1,0.24 0.11,0.25 0.12,0.25 0.13,0.25 0.14,0.25 0.15,0.24 0.15,0.24 0.17,0.23 0.18,0.22 0.18,0.22 0.2,0.2 0.21,0.19 0.22,0.18 0.23,0.16 0.25,0.14 0.12,0.07 0.13,0.06 0.13,0.05 0.14,0.05 0.14,0.05 0.14,0.04 0.14,0.03 0.15,0.03 0.15,0.02 0.16,0.02 0.16,0.01 0.16,0 c 0.25,0 1.45,0 2.49,-0.65 -1.4,-0.25 -2.39,-1.49 -2.39,-2.68 0,-0.8 0.54,-1.75 1.89,-1.75 1.1,0 2.69,0.9 2.69,2.89 0,2.59 -2.94,3.29 -4.63,3.29 -2.89,0 -4.64,-2.64 -5.23,-3.79 -1.25,3.29 -3.94,3.79 -5.38,3.79 -5.18,0 -8.02,-6.43 -8.02,-7.67 0,-0.5 0.5,-0.5 0.6,-0.5 0.39,0 0.54,0.1 0.64,0.54 1.7,5.29 4.98,6.53 6.68,6.53 0.95,0 2.69,-0.45 2.69,-3.33 0,-1.55 -0.85,-4.89 -2.69,-11.86 -0.8,-3.09 -2.54,-5.18 -4.73,-5.18 -0.3,0 -1.45,0 -2.49,0.65 1.24,0.25 2.34,1.29 2.34,2.69 0,1.34 -1.1,1.74 -1.85,1.74 -1.49,0 -2.73,-1.3 -2.73,-2.89 0,-2.29 2.48,-3.29 4.68,-3.29 3.28,0 5.08,3.49 5.23,3.79 0.6,-1.85 2.39,-3.79 5.38,-3.79 5.13,0 7.97,6.43 7.97,7.67 0,0.5 -0.45,0.5 -0.6,0.5 -0.45,0 -0.55,-0.2 -0.65,-0.55 -1.64,-5.33 -5.03,-6.52 -6.62,-6.52 -1.95,0 -2.74,1.59 -2.74,3.29 0,1.09 0.29,2.19 0.85,4.38 z" /><path
             style="fill:#000000;stroke-width:0"
             inkscape:connector-curvature="0"
             id="path6693"
             d="m 493.52,410.64 0.25,0 0.25,-0.02 0.24,-0.02 0.24,-0.04 0.23,-0.05 0.23,-0.06 0.22,-0.07 0.22,-0.09 0.21,-0.09 0.2,-0.11 0.19,-0.11 0.19,-0.13 0.18,-0.13 0.18,-0.15 0.17,-0.16 0.15,-0.17 0.16,-0.18 0.14,-0.2 0.13,-0.2 0.13,-0.21 0.12,-0.23 0.11,-0.23 0.09,-0.25 0.09,-0.26 0.08,-0.27 0.07,-0.28 0.06,-0.29 0.05,-0.3 0.04,-0.31 0.03,-0.32 0.02,-0.33 0,-0.35 c 0,-4.32 -2.51,-5.61 -4.53,-5.61 -1.39,0 -4.46,0.38 -5.93,2.44 1.64,0.07 2.02,1.22 2.02,1.95 0,1.12 -0.83,1.92 -1.91,1.92 -0.98,0 -1.96,-0.59 -1.96,-2.02 0,-3.28 3.63,-5.41 7.85,-5.41 4.84,0 8.19,3.25 8.19,6.73 0,2.72 -2.23,5.44 -6.06,6.24 3.66,1.33 4.98,3.94 4.98,6.07 0,2.76 -3.17,4.81 -7.04,4.81 -3.87,0 -6.84,-1.88 -6.84,-4.67 0,-1.18 0.77,-1.85 1.82,-1.85 1.08,0 1.77,0.8 1.77,1.78 0,1.01 -0.69,1.75 -1.77,1.81 1.22,1.54 3.62,1.92 4.92,1.92 1.56,0 3.76,-0.76 3.76,-3.8 0,-1.46 -0.49,-3.07 -1.39,-4.15 -1.16,-1.32 -2.13,-1.39 -3.87,-1.5 -0.88,-0.07 -0.95,-0.07 -1.12,-0.1 -0.07,0 -0.35,-0.07 -0.35,-0.46 0,-0.49 0.31,-0.49 0.91,-0.49 z" /></g>      </g>
    </g>
  </g>
</svg>
