<?xml version="1.0" encoding="UTF-8" standalone="no"?>
<svg
   xmlns:dc="http://purl.org/dc/elements/1.1/"
   xmlns:cc="http://creativecommons.org/ns#"
   xmlns:rdf="http://www.w3.org/1999/02/22-rdf-syntax-ns#"
   xmlns:svg="http://www.w3.org/2000/svg"
   xmlns="http://www.w3.org/2000/svg"
   xmlns:sodipodi="http://sodipodi.sourceforge.net/DTD/sodipodi-0.dtd"
   xmlns:inkscape="http://www.inkscape.org/namespaces/inkscape"
   version="1.1"
   viewBox="0 0 891.27295 351.116"
   stroke-miterlimit="10"
   id="svg571"
   sodipodi:docname="seq2seq_step0.svg"
   width="891.27295"
   height="351.116"
   style="fill:none;stroke:none;stroke-linecap:square;stroke-miterlimit:10"
   inkscape:version="0.92.4 5da689c313, 2019-01-14">
  <metadata
     id="metadata577">
    <rdf:RDF>
      <cc:Work
         rdf:about="">
        <dc:format>image/svg+xml</dc:format>
        <dc:type
           rdf:resource="http://purl.org/dc/dcmitype/StillImage" />
        <dc:title></dc:title>
      </cc:Work>
    </rdf:RDF>
  </metadata>
  <defs
     id="defs575" />
  <sodipodi:namedview
     pagecolor="#ffffff"
     bordercolor="#666666"
     borderopacity="1"
     objecttolerance="10"
     gridtolerance="10"
     guidetolerance="10"
     inkscape:pageopacity="0"
     inkscape:pageshadow="2"
     inkscape:window-width="2045"
     inkscape:window-height="1169"
     id="namedview573"
     showgrid="false"
     fit-margin-top="0"
     fit-margin-left="0"
     fit-margin-right="0"
     fit-margin-bottom="0"
     inkscape:zoom="0.92709556"
     inkscape:cx="488.00338"
     inkscape:cy="-84.190305"
     inkscape:window-x="413"
     inkscape:window-y="815"
     inkscape:window-maximized="0"
     inkscape:current-layer="g569" />
  <clipPath
     id="p23.0">
    <path
       d="M 0,0 H 960 V 720 H 0 Z"
       id="path2"
       inkscape:connector-curvature="0"
       style="clip-rule:nonzero" />
  </clipPath>
  <g
     clip-path="url(#p23.0)"
     id="g569"
     transform="translate(-34.363464,-184.44199)">
    <path
       style="fill:#000000;fill-opacity:0;fill-rule:evenodd"
       inkscape:connector-curvature="0"
       d="m 179.03255,502.2676 h 243.92577 v 32.31253 H 179.03255 Z"
       id="path215" />
    <path
       style="fill:#000000;fill-rule:nonzero"
       inkscape:connector-curvature="0"
       d="m 195.70442,523.5001 q 0,0.1875 -0.0156,0.3125 -0.0156,0.125 -0.0625,0.21875 -0.0312,0.0781 -0.0937,0.125 -0.0625,0.0312 -0.14062,0.0312 h -5.20313 q -0.21875,0 -0.40625,-0.14063 -0.1875,-0.14062 -0.1875,-0.5 v -10.90625 q 0,-0.0781 0.0312,-0.125 0.0469,-0.0625 0.14063,-0.0937 0.0937,-0.0312 0.23437,-0.0469 0.15625,-0.0312 0.375,-0.0312 0.23438,0 0.375,0.0312 0.15625,0.0156 0.25,0.0469 0.0937,0.0312 0.125,0.0937 0.0469,0.0469 0.0469,0.125 v 10.1875 h 4.21875 q 0.0781,0 0.14062,0.0469 0.0625,0.0312 0.0937,0.10937 0.0469,0.0781 0.0625,0.21875 0.0156,0.125 0.0156,0.29688 z m 8.56203,-4 q 0,0.35937 -0.1875,0.51562 -0.17188,0.14063 -0.39063,0.14063 h -5.375 q 0,0.6875 0.125,1.23437 0.14063,0.54688 0.45313,0.9375 0.32812,0.39063 0.82812,0.60938 0.51563,0.20312 1.25,0.20312 0.59375,0 1.04688,-0.0937 0.45312,-0.0937 0.78125,-0.20312 0.34375,-0.125 0.54687,-0.21875 0.21875,-0.10938 0.32813,-0.10938 0.0625,0 0.10937,0.0312 0.0625,0.0312 0.0781,0.10938 0.0312,0.0625 0.0469,0.17187 0.0156,0.10938 0.0156,0.28125 0,0.10938 -0.0156,0.20313 0,0.0781 -0.0156,0.15625 -0.0156,0.0625 -0.0469,0.125 -0.0312,0.0469 -0.0937,0.0937 -0.0469,0.0469 -0.29687,0.17187 -0.23438,0.10938 -0.625,0.21875 -0.39063,0.10938 -0.90625,0.1875 -0.51563,0.0937 -1.09375,0.0937 -1.01563,0 -1.78125,-0.28125 -0.76563,-0.28125 -1.28125,-0.82812 -0.51563,-0.5625 -0.78125,-1.39063 -0.26563,-0.84375 -0.26563,-1.96875 0,-1.04687 0.26563,-1.89062 0.28125,-0.84375 0.79687,-1.42188 0.51563,-0.59375 1.23438,-0.90625 0.73437,-0.32812 1.64062,-0.32812 0.96875,0 1.64063,0.3125 0.6875,0.3125 1.125,0.84375 0.4375,0.51562 0.64062,1.23437 0.20313,0.70313 0.20313,1.5 z m -1.51563,-0.4375 q 0.0312,-1.1875 -0.53125,-1.85938 -0.54687,-0.67187 -1.625,-0.67187 -0.5625,0 -0.98437,0.21875 -0.40625,0.20312 -0.6875,0.54687 -0.28125,0.34375 -0.4375,0.8125 -0.15625,0.45313 -0.17188,0.95313 z m 8.06383,4.29687 q 0,0.26563 -0.0469,0.42188 -0.0312,0.15625 -0.10937,0.23437 -0.0625,0.0625 -0.21875,0.125 -0.14063,0.0625 -0.32813,0.0937 -0.1875,0.0469 -0.39062,0.0781 -0.20313,0.0312 -0.42188,0.0312 -0.64062,0 -1.09375,-0.17188 -0.45312,-0.17187 -0.75,-0.5 -0.28125,-0.34375 -0.42187,-0.85937 -0.125,-0.53125 -0.125,-1.25 v -4.79688 h -1.15625 q -0.125,0 -0.21875,-0.14062 -0.0781,-0.14063 -0.0781,-0.46875 0,-0.17188 0.0156,-0.28125 0.0312,-0.125 0.0625,-0.20313 0.0469,-0.0781 0.0937,-0.10937 0.0625,-0.0312 0.14062,-0.0312 h 1.14063 v -1.95313 q 0,-0.0625 0.0312,-0.10937 0.0312,-0.0625 0.10937,-0.10938 0.0937,-0.0469 0.23438,-0.0625 0.15625,-0.0156 0.375,-0.0156 0.21875,0 0.35937,0.0156 0.15625,0.0156 0.23438,0.0625 0.0781,0.0469 0.10937,0.10938 0.0469,0.0469 0.0469,0.10937 v 1.95313 h 2.10937 q 0.0625,0 0.10938,0.0312 0.0625,0.0312 0.10937,0.10937 0.0469,0.0781 0.0625,0.20313 0.0156,0.10937 0.0156,0.28125 0,0.32812 -0.0781,0.46875 -0.0781,0.14062 -0.21875,0.14062 h -2.10937 v 4.57813 q 0,0.84375 0.25,1.28125 0.25,0.4375 0.90625,0.4375 0.20312,0 0.35937,-0.0469 0.17188,-0.0469 0.29688,-0.0781 0.125,-0.0469 0.21875,-0.0937 0.0937,-0.0469 0.17187,-0.0469 0.0469,0 0.0781,0.0312 0.0469,0.0156 0.0625,0.0781 0.0312,0.0625 0.0469,0.17187 0.0156,0.10938 0.0156,0.28125 z m 3.96786,-11.17187 q 0,0.28125 -0.0312,0.51562 -0.0156,0.21875 -0.0781,0.4375 -0.0625,0.21875 -0.17188,0.42188 -0.10937,0.20312 -0.26562,0.42187 l -1.25,1.875 q -0.0312,0.0625 -0.0937,0.125 -0.0625,0.0469 -0.15625,0.0781 -0.0781,0.0312 -0.20313,0.0469 -0.10937,0.0156 -0.28125,0.0156 -0.15625,0 -0.26562,-0.0156 -0.0937,-0.0156 -0.14063,-0.0469 -0.0469,-0.0312 -0.0625,-0.0781 0,-0.0625 0.0469,-0.14062 l 1.20312,-2.5 v -1.15625 q 0,-0.25003 0.0469,-0.39066 0.0625,-0.14062 0.17187,-0.21875 0.10938,-0.0937 0.26563,-0.10937 0.17187,-0.0312 0.40625,-0.0312 0.21875,0 0.375,0.0312 0.17187,0.0156 0.28125,0.10937 0.10937,0.0781 0.15625,0.21875 0.0469,0.14063 0.0469,0.39066 z m 7.82683,9.54687 q 0,0.625 -0.23437,1.125 -0.23438,0.48438 -0.67188,0.82813 -0.42187,0.32812 -1.01562,0.5 -0.59375,0.17187 -1.29688,0.17187 -0.4375,0 -0.84375,-0.0781 -0.39062,-0.0625 -0.70312,-0.15625 -0.3125,-0.10938 -0.53125,-0.21875 -0.21875,-0.125 -0.32813,-0.20313 -0.0937,-0.0937 -0.14062,-0.25 -0.0469,-0.17187 -0.0469,-0.45312 0,-0.17188 0.0156,-0.29688 0.0312,-0.125 0.0469,-0.1875 0.0312,-0.0781 0.0781,-0.10937 0.0469,-0.0312 0.125,-0.0312 0.0937,0 0.28125,0.125 0.20312,0.125 0.48437,0.26562 0.29688,0.14063 0.6875,0.26563 0.39063,0.125 0.90625,0.125 0.375,0 0.6875,-0.0781 0.3125,-0.0781 0.53125,-0.23437 0.23438,-0.17188 0.35938,-0.40625 0.125,-0.25 0.125,-0.59375 0,-0.34375 -0.1875,-0.57813 -0.17188,-0.23437 -0.46875,-0.42187 -0.28125,-0.1875 -0.65625,-0.32813 -0.35938,-0.14062 -0.75,-0.29687 -0.39063,-0.15625 -0.76563,-0.34375 -0.35937,-0.20313 -0.65625,-0.48438 -0.28125,-0.28125 -0.46875,-0.67187 -0.17187,-0.39063 -0.17187,-0.9375 0,-0.48438 0.1875,-0.92188 0.1875,-0.4375 0.5625,-0.76562 0.375,-0.34375 0.92187,-0.54688 0.5625,-0.20312 1.3125,-0.20312 0.32813,0 0.65625,0.0625 0.32813,0.0469 0.59375,0.14062 0.26563,0.0781 0.45313,0.17188 0.1875,0.0937 0.28125,0.17187 0.0937,0.0781 0.125,0.14063 0.0312,0.0469 0.0469,0.10937 0.0156,0.0625 0.0312,0.17188 0.0156,0.0937 0.0156,0.23437 0,0.15625 -0.0156,0.28125 -0.0156,0.10938 -0.0469,0.1875 -0.0312,0.0625 -0.0781,0.0937 -0.0469,0.0312 -0.0937,0.0312 -0.0937,0 -0.25,-0.0937 -0.14062,-0.0937 -0.39062,-0.20312 -0.25,-0.125 -0.57813,-0.21875 -0.32812,-0.10938 -0.76562,-0.10938 -0.375,0 -0.67188,0.0937 -0.29687,0.0781 -0.48437,0.25 -0.1875,0.15625 -0.28125,0.375 -0.0937,0.21875 -0.0937,0.46875 0,0.35938 0.17187,0.60938 0.1875,0.23437 0.48438,0.42187 0.29687,0.17188 0.67187,0.32813 0.375,0.14062 0.75,0.29687 0.39063,0.14063 0.76563,0.34375 0.39062,0.1875 0.67187,0.46875 0.29688,0.26563 0.46875,0.65625 0.1875,0.375 0.1875,0.90625 z m 11.15503,-5.4375 q 0,0.20313 -0.0156,0.34375 0,0.125 -0.0312,0.20313 -0.0312,0.0781 -0.0781,0.125 -0.0312,0.0469 -0.10937,0.0469 -0.0625,0 -0.17188,-0.0469 -0.10937,-0.0469 -0.25,-0.0781 -0.125,-0.0469 -0.29687,-0.0781 -0.15625,-0.0469 -0.34375,-0.0469 -0.21875,0 -0.4375,0.0937 -0.21875,0.0937 -0.46875,0.3125 -0.23438,0.20313 -0.5,0.54688 -0.26563,0.34375 -0.59375,0.84375 v 5.39062 q 0,0.0781 -0.0312,0.14063 -0.0312,0.0469 -0.125,0.0781 -0.0781,0.0312 -0.21875,0.0469 -0.14063,0.0156 -0.375,0.0156 -0.21875,0 -0.375,-0.0156 -0.14063,-0.0156 -0.23438,-0.0469 -0.0781,-0.0312 -0.10937,-0.0781 -0.0312,-0.0625 -0.0312,-0.14063 v -8.1875 q 0,-0.0781 0.0312,-0.125 0.0312,-0.0469 0.10937,-0.0937 0.0781,-0.0469 0.20313,-0.0469 0.14062,-0.0156 0.34375,-0.0156 0.20312,0 0.32812,0.0156 0.14063,0 0.20313,0.0469 0.0781,0.0469 0.10937,0.0937 0.0312,0.0469 0.0312,0.125 v 1.1875 q 0.34375,-0.48437 0.64063,-0.79687 0.29687,-0.3125 0.54687,-0.48438 0.26563,-0.1875 0.53125,-0.25 0.26563,-0.0781 0.51563,-0.0781 0.125,0 0.26562,0.0156 0.15625,0.0156 0.3125,0.0625 0.17188,0.0312 0.29688,0.0781 0.14062,0.0469 0.1875,0.0937 0.0625,0.0469 0.0781,0.0937 0.0312,0.0312 0.0312,0.0937 0.0156,0.0625 0.0156,0.1875 0.0156,0.125 0.0156,0.32812 z m 8.70731,3.20313 q 0,0.35937 -0.1875,0.51562 -0.17188,0.14063 -0.39063,0.14063 h -5.375 q 0,0.6875 0.125,1.23437 0.14063,0.54688 0.45313,0.9375 0.32812,0.39063 0.82812,0.60938 0.51563,0.20312 1.25,0.20312 0.59375,0 1.04688,-0.0937 0.45312,-0.0937 0.78125,-0.20312 0.34375,-0.125 0.54687,-0.21875 0.21875,-0.10938 0.32813,-0.10938 0.0625,0 0.10937,0.0312 0.0625,0.0312 0.0781,0.10938 0.0312,0.0625 0.0469,0.17187 0.0156,0.10938 0.0156,0.28125 0,0.10938 -0.0156,0.20313 0,0.0781 -0.0156,0.15625 -0.0156,0.0625 -0.0469,0.125 -0.0312,0.0469 -0.0937,0.0937 -0.0469,0.0469 -0.29687,0.17187 -0.23438,0.10938 -0.625,0.21875 -0.39063,0.10938 -0.90625,0.1875 -0.51563,0.0937 -1.09375,0.0937 -1.01563,0 -1.78125,-0.28125 -0.76563,-0.28125 -1.28125,-0.82812 -0.51563,-0.5625 -0.78125,-1.39063 -0.26563,-0.84375 -0.26563,-1.96875 0,-1.04687 0.26563,-1.89062 0.28125,-0.84375 0.79687,-1.42188 0.51563,-0.59375 1.23438,-0.90625 0.73437,-0.32812 1.64062,-0.32812 0.96875,0 1.64063,0.3125 0.6875,0.3125 1.125,0.84375 0.4375,0.51562 0.64062,1.23437 0.20313,0.70313 0.20313,1.5 z m -1.51563,-0.4375 q 0.0312,-1.1875 -0.53125,-1.85938 -0.54687,-0.67187 -1.625,-0.67187 -0.5625,0 -0.98437,0.21875 -0.40625,0.20312 -0.6875,0.54687 -0.28125,0.34375 -0.4375,0.8125 -0.15625,0.45313 -0.17188,0.95313 z m 11.34508,0.67187 q 0,1.07813 -0.23438,1.9375 -0.23437,0.84375 -0.6875,1.45313 -0.45312,0.59375 -1.125,0.92187 -0.65625,0.3125 -1.5,0.3125 -0.375,0 -0.6875,-0.0781 -0.29687,-0.0625 -0.59375,-0.21875 -0.29687,-0.15625 -0.59375,-0.39063 -0.29687,-0.23437 -0.625,-0.5625 v 4.10938 q 0,0.0625 -0.0312,0.10937 -0.0312,0.0625 -0.125,0.0937 -0.0781,0.0469 -0.21875,0.0625 -0.14062,0.0156 -0.375,0.0156 -0.21875,0 -0.375,-0.0156 -0.14062,-0.0156 -0.23437,-0.0625 -0.0781,-0.0312 -0.10938,-0.0937 -0.0312,-0.0469 -0.0312,-0.10937 v -11.45313 q 0,-0.0937 0.0312,-0.14062 0.0312,-0.0469 0.10938,-0.0781 0.0781,-0.0469 0.20312,-0.0469 0.14063,-0.0156 0.3125,-0.0156 0.1875,0 0.3125,0.0156 0.125,0 0.20313,0.0469 0.0937,0.0312 0.125,0.0781 0.0312,0.0469 0.0312,0.14062 v 1.09375 q 0.375,-0.375 0.71875,-0.65625 0.34375,-0.28125 0.6875,-0.46875 0.35937,-0.1875 0.71875,-0.28125 0.375,-0.10937 0.78125,-0.10937 0.89062,0 1.51562,0.35937 0.64063,0.34375 1.03125,0.95313 0.40625,0.59375 0.57813,1.39062 0.1875,0.79688 0.1875,1.6875 z m -1.59375,0.17188 q 0,-0.625 -0.0937,-1.20313 -0.0937,-0.59375 -0.32813,-1.04687 -0.21875,-0.46875 -0.625,-0.73438 -0.39062,-0.28125 -0.96875,-0.28125 -0.29687,0 -0.57812,0.0937 -0.28125,0.0781 -0.57813,0.26563 -0.28125,0.1875 -0.60937,0.5 -0.3125,0.29687 -0.67188,0.75 v 3.26562 q 0.625,0.75 1.17188,1.15625 0.5625,0.39063 1.17187,0.39063 0.5625,0 0.96875,-0.26563 0.40625,-0.28125 0.65625,-0.73437 0.25,-0.45313 0.35938,-1.01563 0.125,-0.5625 0.125,-1.14062 z m 8.64555,-3.60938 q 0,0.20313 -0.0156,0.34375 0,0.125 -0.0312,0.20313 -0.0312,0.0781 -0.0781,0.125 -0.0312,0.0469 -0.10937,0.0469 -0.0625,0 -0.17188,-0.0469 -0.10937,-0.0469 -0.25,-0.0781 -0.125,-0.0469 -0.29687,-0.0781 -0.15625,-0.0469 -0.34375,-0.0469 -0.21875,0 -0.4375,0.0937 -0.21875,0.0937 -0.46875,0.3125 -0.23438,0.20313 -0.5,0.54688 -0.26563,0.34375 -0.59375,0.84375 v 5.39062 q 0,0.0781 -0.0312,0.14063 -0.0312,0.0469 -0.12499,0.0781 -0.0781,0.0312 -0.21875,0.0469 -0.14062,0.0156 -0.375,0.0156 -0.21875,0 -0.375,-0.0156 -0.14062,-0.0156 -0.23437,-0.0469 -0.0781,-0.0312 -0.10938,-0.0781 -0.0312,-0.0625 -0.0312,-0.14063 v -8.1875 q 0,-0.0781 0.0312,-0.125 0.0312,-0.0469 0.10938,-0.0937 0.0781,-0.0469 0.20312,-0.0469 0.14063,-0.0156 0.34375,-0.0156 0.20313,0 0.32813,0.0156 0.14062,0 0.20312,0.0469 0.0781,0.0469 0.10938,0.0937 0.0312,0.0469 0.0312,0.125 v 1.1875 q 0.34373,-0.48437 0.64061,-0.79687 0.29687,-0.3125 0.54687,-0.48438 0.26563,-0.1875 0.53125,-0.25 0.26563,-0.0781 0.51563,-0.0781 0.125,0 0.26562,0.0156 0.15625,0.0156 0.3125,0.0625 0.17188,0.0312 0.29688,0.0781 0.14062,0.0469 0.1875,0.0937 0.0625,0.0469 0.0781,0.0937 0.0312,0.0312 0.0312,0.0937 0.0156,0.0625 0.0156,0.1875 0.0156,0.125 0.0156,0.32812 z m 8.70731,3.20313 q 0,0.35937 -0.1875,0.51562 -0.17187,0.14063 -0.39062,0.14063 h -5.375 q 0,0.6875 0.125,1.23437 0.14062,0.54688 0.45312,0.9375 0.32813,0.39063 0.82813,0.60938 0.51562,0.20312 1.25,0.20312 0.59375,0 1.04687,-0.0937 0.45313,-0.0937 0.78125,-0.20312 0.34375,-0.125 0.54688,-0.21875 0.21875,-0.10938 0.32812,-0.10938 0.0625,0 0.10938,0.0312 0.0625,0.0312 0.0781,0.10938 0.0312,0.0625 0.0469,0.17187 0.0156,0.10938 0.0156,0.28125 0,0.10938 -0.0156,0.20313 0,0.0781 -0.0156,0.15625 -0.0156,0.0625 -0.0469,0.125 -0.0312,0.0469 -0.0937,0.0937 -0.0469,0.0469 -0.29688,0.17187 -0.23437,0.10938 -0.625,0.21875 -0.39062,0.10938 -0.90625,0.1875 -0.51562,0.0937 -1.09375,0.0937 -1.01562,0 -1.78125,-0.28125 -0.76562,-0.28125 -1.28125,-0.82812 -0.51562,-0.5625 -0.78125,-1.39063 -0.26562,-0.84375 -0.26562,-1.96875 0,-1.04687 0.26562,-1.89062 0.28125,-0.84375 0.79688,-1.42188 0.51562,-0.59375 1.23437,-0.90625 0.73438,-0.32812 1.64063,-0.32812 0.96875,0 1.64062,0.3125 0.6875,0.3125 1.125,0.84375 0.4375,0.51562 0.64063,1.23437 0.20312,0.70313 0.20312,1.5 z m -1.51562,-0.4375 q 0.0312,-1.1875 -0.53125,-1.85938 -0.54688,-0.67187 -1.625,-0.67187 -0.5625,0 -0.98438,0.21875 -0.40625,0.20312 -0.6875,0.54687 -0.28125,0.34375 -0.4375,0.8125 -0.15625,0.45313 -0.17187,0.95313 z m 8.95446,2.67187 q 0,0.625 -0.23437,1.125 -0.23438,0.48438 -0.67188,0.82813 -0.42187,0.32812 -1.01562,0.5 -0.59375,0.17187 -1.29688,0.17187 -0.4375,0 -0.84375,-0.0781 -0.39062,-0.0625 -0.70312,-0.15625 -0.3125,-0.10938 -0.53125,-0.21875 -0.21875,-0.125 -0.32813,-0.20313 -0.0937,-0.0937 -0.14062,-0.25 -0.0469,-0.17187 -0.0469,-0.45312 0,-0.17188 0.0156,-0.29688 0.0312,-0.125 0.0469,-0.1875 0.0312,-0.0781 0.0781,-0.10937 0.0469,-0.0312 0.125,-0.0312 0.0937,0 0.28125,0.125 0.20312,0.125 0.48437,0.26562 0.29688,0.14063 0.6875,0.26563 0.39063,0.125 0.90625,0.125 0.375,0 0.6875,-0.0781 0.3125,-0.0781 0.53125,-0.23437 0.23438,-0.17188 0.35938,-0.40625 0.125,-0.25 0.125,-0.59375 0,-0.34375 -0.1875,-0.57813 -0.17188,-0.23437 -0.46875,-0.42187 -0.28125,-0.1875 -0.65625,-0.32813 -0.35938,-0.14062 -0.75,-0.29687 -0.39063,-0.15625 -0.76563,-0.34375 -0.35937,-0.20313 -0.65625,-0.48438 -0.28125,-0.28125 -0.46875,-0.67187 -0.17187,-0.39063 -0.17187,-0.9375 0,-0.48438 0.1875,-0.92188 0.1875,-0.4375 0.5625,-0.76562 0.375,-0.34375 0.92187,-0.54688 0.5625,-0.20312 1.3125,-0.20312 0.32813,0 0.65625,0.0625 0.32813,0.0469 0.59375,0.14062 0.26563,0.0781 0.45313,0.17188 0.1875,0.0937 0.28125,0.17187 0.0937,0.0781 0.125,0.14063 0.0312,0.0469 0.0469,0.10937 0.0156,0.0625 0.0312,0.17188 0.0156,0.0937 0.0156,0.23437 0,0.15625 -0.0156,0.28125 -0.0156,0.10938 -0.0469,0.1875 -0.0312,0.0625 -0.0781,0.0937 -0.0469,0.0312 -0.0937,0.0312 -0.0937,0 -0.25,-0.0937 -0.14062,-0.0937 -0.39062,-0.20312 -0.25,-0.125 -0.57813,-0.21875 -0.32812,-0.10938 -0.76562,-0.10938 -0.375,0 -0.67188,0.0937 -0.29687,0.0781 -0.48437,0.25 -0.1875,0.15625 -0.28125,0.375 -0.0937,0.21875 -0.0937,0.46875 0,0.35938 0.17187,0.60938 0.1875,0.23437 0.48438,0.42187 0.29687,0.17188 0.67187,0.32813 0.375,0.14062 0.75,0.29687 0.39063,0.14063 0.76563,0.34375 0.39062,0.1875 0.67187,0.46875 0.29688,0.26563 0.46875,0.65625 0.1875,0.375 0.1875,0.90625 z m 9.14045,-2.23437 q 0,0.35937 -0.1875,0.51562 -0.17188,0.14063 -0.39063,0.14063 h -5.375 q 0,0.6875 0.125,1.23437 0.14063,0.54688 0.45313,0.9375 0.32812,0.39063 0.82812,0.60938 0.51563,0.20312 1.25,0.20312 0.59375,0 1.04688,-0.0937 0.45312,-0.0937 0.78125,-0.20312 0.34375,-0.125 0.54687,-0.21875 0.21875,-0.10938 0.32813,-0.10938 0.0625,0 0.10937,0.0312 0.0625,0.0312 0.0781,0.10938 0.0312,0.0625 0.0469,0.17187 0.0156,0.10938 0.0156,0.28125 0,0.10938 -0.0156,0.20313 0,0.0781 -0.0156,0.15625 -0.0156,0.0625 -0.0469,0.125 -0.0312,0.0469 -0.0937,0.0937 -0.0469,0.0469 -0.29687,0.17187 -0.23438,0.10938 -0.625,0.21875 -0.39063,0.10938 -0.90625,0.1875 -0.51563,0.0937 -1.09375,0.0937 -1.01563,0 -1.78125,-0.28125 -0.76563,-0.28125 -1.28125,-0.82812 -0.51563,-0.5625 -0.78125,-1.39063 -0.26563,-0.84375 -0.26563,-1.96875 0,-1.04687 0.26563,-1.89062 0.28125,-0.84375 0.79687,-1.42188 0.51563,-0.59375 1.23438,-0.90625 0.73437,-0.32812 1.64062,-0.32812 0.96875,0 1.64063,0.3125 0.6875,0.3125 1.125,0.84375 0.4375,0.51562 0.64062,1.23437 0.20313,0.70313 0.20313,1.5 z m -1.51563,-0.4375 q 0.0312,-1.1875 -0.53125,-1.85938 -0.54687,-0.67187 -1.625,-0.67187 -0.5625,0 -0.98437,0.21875 -0.40625,0.20312 -0.6875,0.54687 -0.28125,0.34375 -0.4375,0.8125 -0.15625,0.45313 -0.17188,0.95313 z m 10.86072,4.89062 q 0,0.0781 -0.0469,0.14063 -0.0312,0.0469 -0.10937,0.0781 -0.0781,0.0312 -0.23438,0.0469 -0.14062,0.0156 -0.35937,0.0156 -0.21875,0 -0.375,-0.0156 -0.14063,-0.0156 -0.23438,-0.0469 -0.0781,-0.0312 -0.10937,-0.0781 -0.0312,-0.0625 -0.0312,-0.14063 v -4.79687 q 0,-0.70313 -0.10938,-1.125 -0.10937,-0.4375 -0.32812,-0.73438 -0.20313,-0.3125 -0.54688,-0.46875 -0.32812,-0.17187 -0.76562,-0.17187 -0.5625,0 -1.125,0.40625 -0.5625,0.39062 -1.1875,1.17187 v 5.71875 q 0,0.0781 -0.0312,0.14063 -0.0312,0.0469 -0.125,0.0781 -0.0781,0.0312 -0.21875,0.0469 -0.14063,0.0156 -0.375,0.0156 -0.21875,0 -0.375,-0.0156 -0.14063,-0.0156 -0.23438,-0.0469 -0.0781,-0.0312 -0.10937,-0.0781 -0.0312,-0.0625 -0.0312,-0.14063 v -8.1875 q 0,-0.0781 0.0312,-0.125 0.0312,-0.0469 0.10937,-0.0937 0.0781,-0.0469 0.20313,-0.0469 0.14062,-0.0156 0.34375,-0.0156 0.20312,0 0.32812,0.0156 0.14063,0 0.20313,0.0469 0.0781,0.0469 0.10937,0.0937 0.0312,0.0469 0.0312,0.125 v 1.07813 q 0.6875,-0.76563 1.375,-1.125 0.6875,-0.375 1.39063,-0.375 0.82812,0 1.375,0.28125 0.5625,0.28125 0.90625,0.75 0.35937,0.46875 0.5,1.09375 0.15625,0.60937 0.15625,1.48437 z m 7.00494,-0.59375 q 0,0.26563 -0.0469,0.42188 -0.0312,0.15625 -0.10938,0.23437 -0.0625,0.0625 -0.21875,0.125 -0.14062,0.0625 -0.32812,0.0937 -0.1875,0.0469 -0.39063,0.0781 -0.20312,0.0312 -0.42187,0.0312 -0.64063,0 -1.09375,-0.17188 -0.45313,-0.17187 -0.75,-0.5 -0.28125,-0.34375 -0.42188,-0.85937 -0.125,-0.53125 -0.125,-1.25 v -4.79688 h -1.15625 q -0.125,0 -0.21875,-0.14062 -0.0781,-0.14063 -0.0781,-0.46875 0,-0.17188 0.0156,-0.28125 0.0312,-0.125 0.0625,-0.20313 0.0469,-0.0781 0.0937,-0.10937 0.0625,-0.0312 0.14063,-0.0312 h 1.14062 v -1.95313 q 0,-0.0625 0.0312,-0.10937 0.0312,-0.0625 0.10938,-0.10938 0.0937,-0.0469 0.23437,-0.0625 0.15625,-0.0156 0.375,-0.0156 0.21875,0 0.35938,0.0156 0.15625,0.0156 0.23437,0.0625 0.0781,0.0469 0.10938,0.10938 0.0469,0.0469 0.0469,0.10937 v 1.95313 h 2.10938 q 0.0625,0 0.10937,0.0312 0.0625,0.0312 0.10938,0.10937 0.0469,0.0781 0.0625,0.20313 0.0156,0.10937 0.0156,0.28125 0,0.32812 -0.0781,0.46875 -0.0781,0.14062 -0.21875,0.14062 h -2.10938 v 4.57813 q 0,0.84375 0.25,1.28125 0.25,0.4375 0.90625,0.4375 0.20313,0 0.35938,-0.0469 0.17187,-0.0469 0.29687,-0.0781 0.125,-0.0469 0.21875,-0.0937 0.0937,-0.0469 0.17188,-0.0469 0.0469,0 0.0781,0.0312 0.0469,0.0156 0.0625,0.0781 0.0312,0.0625 0.0469,0.17187 0.0156,0.10938 0.0156,0.28125 z m 10.4668,0 q 0,0.26563 -0.0469,0.42188 -0.0312,0.15625 -0.10937,0.23437 -0.0625,0.0625 -0.21875,0.125 -0.14063,0.0625 -0.32813,0.0937 -0.1875,0.0469 -0.39062,0.0781 -0.20313,0.0312 -0.42188,0.0312 -0.64062,0 -1.09375,-0.17188 -0.45312,-0.17187 -0.75,-0.5 -0.28125,-0.34375 -0.42187,-0.85937 -0.125,-0.53125 -0.125,-1.25 v -4.79688 h -1.15625 q -0.125,0 -0.21875,-0.14062 -0.0781,-0.14063 -0.0781,-0.46875 0,-0.17188 0.0156,-0.28125 0.0312,-0.125 0.0625,-0.20313 0.0469,-0.0781 0.0937,-0.10937 0.0625,-0.0312 0.14062,-0.0312 h 1.14063 v -1.95313 q 0,-0.0625 0.0312,-0.10937 0.0312,-0.0625 0.10937,-0.10938 0.0937,-0.0469 0.23438,-0.0625 0.15625,-0.0156 0.375,-0.0156 0.21875,0 0.35937,0.0156 0.15625,0.0156 0.23438,0.0625 0.0781,0.0469 0.10937,0.10938 0.0469,0.0469 0.0469,0.10937 v 1.95313 h 2.10937 q 0.0625,0 0.10938,0.0312 0.0625,0.0312 0.10937,0.10937 0.0469,0.0781 0.0625,0.20313 0.0156,0.10937 0.0156,0.28125 0,0.32812 -0.0781,0.46875 -0.0781,0.14062 -0.21875,0.14062 h -2.10937 v 4.57813 q 0,0.84375 0.25,1.28125 0.25,0.4375 0.90625,0.4375 0.20312,0 0.35937,-0.0469 0.17188,-0.0469 0.29688,-0.0781 0.125,-0.0469 0.21875,-0.0937 0.0937,-0.0469 0.17187,-0.0469 0.0469,0 0.0781,0.0312 0.0469,0.0156 0.0625,0.0781 0.0312,0.0625 0.0469,0.17187 0.0156,0.10938 0.0156,0.28125 z m 9.04599,0.59375 q 0,0.0781 -0.0469,0.14063 -0.0312,0.0469 -0.10937,0.0781 -0.0781,0.0312 -0.23438,0.0469 -0.14062,0.0156 -0.35937,0.0156 -0.21875,0 -0.375,-0.0156 -0.14063,-0.0156 -0.23438,-0.0469 -0.0781,-0.0312 -0.10937,-0.0781 -0.0312,-0.0625 -0.0312,-0.14063 v -4.79687 q 0,-0.70313 -0.10938,-1.125 -0.10937,-0.4375 -0.32812,-0.73438 -0.20313,-0.3125 -0.54688,-0.46875 -0.32812,-0.17187 -0.76562,-0.17187 -0.5625,0 -1.125,0.40625 -0.5625,0.39062 -1.1875,1.17187 v 5.71875 q 0,0.0781 -0.0312,0.14063 -0.0312,0.0469 -0.125,0.0781 -0.0781,0.0312 -0.21875,0.0469 -0.14063,0.0156 -0.375,0.0156 -0.21875,0 -0.375,-0.0156 -0.14063,-0.0156 -0.23438,-0.0469 -0.0781,-0.0312 -0.10937,-0.0781 -0.0312,-0.0625 -0.0312,-0.14063 v -12.15628 q 0,-0.0781 0.0312,-0.125 0.0312,-0.0625 0.10937,-0.0937 0.0937,-0.0469 0.23438,-0.0625 0.15625,-0.0156 0.375,-0.0156 0.23437,0 0.375,0.0156 0.14062,0.0156 0.21875,0.0625 0.0937,0.0312 0.125,0.0937 0.0312,0.0469 0.0312,0.125 v 4.90628 q 0.65625,-0.6875 1.3125,-1.01562 0.65625,-0.34375 1.3125,-0.34375 0.82812,0 1.375,0.28125 0.5625,0.28125 0.90625,0.75 0.35937,0.46875 0.5,1.09375 0.15625,0.60937 0.15625,1.5 z m 4.23932,0 q 0,0.0781 -0.0312,0.14063 -0.0312,0.0469 -0.125,0.0781 -0.0781,0.0312 -0.21875,0.0469 -0.14063,0.0156 -0.375,0.0156 -0.21875,0 -0.375,-0.0156 -0.14063,-0.0156 -0.23438,-0.0469 -0.0781,-0.0312 -0.10937,-0.0781 -0.0312,-0.0625 -0.0312,-0.14063 v -8.1875 q 0,-0.0625 0.0312,-0.10937 0.0312,-0.0625 0.10937,-0.0937 0.0937,-0.0469 0.23438,-0.0625 0.15625,-0.0156 0.375,-0.0156 0.23437,0 0.375,0.0156 0.14062,0.0156 0.21875,0.0625 0.0937,0.0312 0.125,0.0937 0.0312,0.0469 0.0312,0.10937 z m 0.17187,-10.96875 q 0,0.53125 -0.20312,0.73438 -0.1875,0.1875 -0.73438,0.1875 -0.51562,0 -0.71875,-0.1875 -0.1875,-0.1875 -0.1875,-0.70313 0,-0.53125 0.1875,-0.71875 0.20313,-0.20312 0.75,-0.20312 0.51563,0 0.70313,0.1875 0.20312,0.1875 0.20312,0.70312 z m 7.76584,8.75 q 0,0.625 -0.23437,1.125 -0.23438,0.48438 -0.67188,0.82813 -0.42187,0.32812 -1.01562,0.5 -0.59375,0.17187 -1.29688,0.17187 -0.4375,0 -0.84375,-0.0781 -0.39062,-0.0625 -0.70312,-0.15625 -0.3125,-0.10938 -0.53125,-0.21875 -0.21875,-0.125 -0.32813,-0.20313 -0.0937,-0.0937 -0.14062,-0.25 -0.0469,-0.17187 -0.0469,-0.45312 0,-0.17188 0.0156,-0.29688 0.0312,-0.125 0.0469,-0.1875 0.0312,-0.0781 0.0781,-0.10937 0.0469,-0.0312 0.125,-0.0312 0.0937,0 0.28125,0.125 0.20312,0.125 0.48437,0.26562 0.29688,0.14063 0.6875,0.26563 0.39063,0.125 0.90625,0.125 0.375,0 0.6875,-0.0781 0.3125,-0.0781 0.53125,-0.23437 0.23438,-0.17188 0.35938,-0.40625 0.125,-0.25 0.125,-0.59375 0,-0.34375 -0.1875,-0.57813 -0.17188,-0.23437 -0.46875,-0.42187 -0.28125,-0.1875 -0.65625,-0.32813 -0.35938,-0.14062 -0.75,-0.29687 -0.39063,-0.15625 -0.76563,-0.34375 -0.35937,-0.20313 -0.65625,-0.48438 -0.28125,-0.28125 -0.46875,-0.67187 -0.17187,-0.39063 -0.17187,-0.9375 0,-0.48438 0.1875,-0.92188 0.1875,-0.4375 0.5625,-0.76562 0.375,-0.34375 0.92187,-0.54688 0.5625,-0.20312 1.3125,-0.20312 0.32813,0 0.65625,0.0625 0.32813,0.0469 0.59375,0.14062 0.26563,0.0781 0.45313,0.17188 0.1875,0.0937 0.28125,0.17187 0.0937,0.0781 0.125,0.14063 0.0312,0.0469 0.0469,0.10937 0.0156,0.0625 0.0312,0.17188 0.0156,0.0937 0.0156,0.23437 0,0.15625 -0.0156,0.28125 -0.0156,0.10938 -0.0469,0.1875 -0.0312,0.0625 -0.0781,0.0937 -0.0469,0.0312 -0.0937,0.0312 -0.0937,0 -0.25,-0.0937 -0.14062,-0.0937 -0.39062,-0.20312 -0.25,-0.125 -0.57813,-0.21875 -0.32812,-0.10938 -0.76562,-0.10938 -0.375,0 -0.67188,0.0937 -0.29687,0.0781 -0.48437,0.25 -0.1875,0.15625 -0.28125,0.375 -0.0937,0.21875 -0.0937,0.46875 0,0.35938 0.17187,0.60938 0.1875,0.23437 0.48438,0.42187 0.29687,0.17188 0.67187,0.32813 0.375,0.14062 0.75,0.29687 0.39063,0.14063 0.76563,0.34375 0.39062,0.1875 0.67187,0.46875 0.29688,0.26563 0.46875,0.65625 0.1875,0.375 0.1875,0.90625 z m 11.51441,0 q 0,0.625 -0.23438,1.125 -0.23437,0.48438 -0.67187,0.82813 -0.42188,0.32812 -1.01563,0.5 -0.59375,0.17187 -1.29687,0.17187 -0.4375,0 -0.84375,-0.0781 -0.39063,-0.0625 -0.70313,-0.15625 -0.3125,-0.10938 -0.53125,-0.21875 -0.21875,-0.125 -0.32812,-0.20313 -0.0937,-0.0937 -0.14063,-0.25 -0.0469,-0.17187 -0.0469,-0.45312 0,-0.17188 0.0156,-0.29688 0.0312,-0.125 0.0469,-0.1875 0.0312,-0.0781 0.0781,-0.10937 0.0469,-0.0312 0.125,-0.0312 0.0937,0 0.28125,0.125 0.20313,0.125 0.48438,0.26562 0.29687,0.14063 0.6875,0.26563 0.39062,0.125 0.90625,0.125 0.375,0 0.6875,-0.0781 0.3125,-0.0781 0.53125,-0.23437 0.23437,-0.17188 0.35937,-0.40625 0.125,-0.25 0.125,-0.59375 0,-0.34375 -0.1875,-0.57813 -0.17187,-0.23437 -0.46875,-0.42187 -0.28125,-0.1875 -0.65625,-0.32813 -0.35937,-0.14062 -0.75,-0.29687 -0.39062,-0.15625 -0.76562,-0.34375 -0.35938,-0.20313 -0.65625,-0.48438 -0.28125,-0.28125 -0.46875,-0.67187 -0.17188,-0.39063 -0.17188,-0.9375 0,-0.48438 0.1875,-0.92188 0.1875,-0.4375 0.5625,-0.76562 0.375,-0.34375 0.92188,-0.54688 0.5625,-0.20312 1.3125,-0.20312 0.32812,0 0.65625,0.0625 0.32812,0.0469 0.59375,0.14062 0.26562,0.0781 0.45312,0.17188 0.1875,0.0937 0.28125,0.17187 0.0937,0.0781 0.125,0.14063 0.0312,0.0469 0.0469,0.10937 0.0156,0.0625 0.0312,0.17188 0.0156,0.0937 0.0156,0.23437 0,0.15625 -0.0156,0.28125 -0.0156,0.10938 -0.0469,0.1875 -0.0312,0.0625 -0.0781,0.0937 -0.0469,0.0312 -0.0937,0.0312 -0.0937,0 -0.25,-0.0937 -0.14063,-0.0937 -0.39063,-0.20312 -0.25,-0.125 -0.57812,-0.21875 -0.32813,-0.10938 -0.76563,-0.10938 -0.375,0 -0.67187,0.0937 -0.29688,0.0781 -0.48438,0.25 -0.1875,0.15625 -0.28125,0.375 -0.0937,0.21875 -0.0937,0.46875 0,0.35938 0.17188,0.60938 0.1875,0.23437 0.48437,0.42187 0.29688,0.17188 0.67188,0.32813 0.375,0.14062 0.75,0.29687 0.39062,0.14063 0.76562,0.34375 0.39063,0.1875 0.67188,0.46875 0.29687,0.26563 0.46875,0.65625 0.1875,0.375 0.1875,0.90625 z m 9.14047,-2.23437 q 0,0.35937 -0.1875,0.51562 -0.17188,0.14063 -0.39063,0.14063 h -5.375 q 0,0.6875 0.125,1.23437 0.14063,0.54688 0.45313,0.9375 0.32812,0.39063 0.82812,0.60938 0.51563,0.20312 1.25,0.20312 0.59375,0 1.04688,-0.0937 0.45312,-0.0937 0.78125,-0.20312 0.34375,-0.125 0.54687,-0.21875 0.21875,-0.10938 0.32813,-0.10938 0.0625,0 0.10937,0.0312 0.0625,0.0312 0.0781,0.10938 0.0312,0.0625 0.0469,0.17187 0.0156,0.10938 0.0156,0.28125 0,0.10938 -0.0156,0.20313 0,0.0781 -0.0156,0.15625 -0.0156,0.0625 -0.0469,0.125 -0.0312,0.0469 -0.0937,0.0937 -0.0469,0.0469 -0.29687,0.17187 -0.23438,0.10938 -0.625,0.21875 -0.39063,0.10938 -0.90625,0.1875 -0.51563,0.0937 -1.09375,0.0937 -1.01563,0 -1.78125,-0.28125 -0.76563,-0.28125 -1.28125,-0.82812 -0.51563,-0.5625 -0.78125,-1.39063 -0.26563,-0.84375 -0.26563,-1.96875 0,-1.04687 0.26563,-1.89062 0.28125,-0.84375 0.79687,-1.42188 0.51563,-0.59375 1.23438,-0.90625 0.73437,-0.32812 1.64062,-0.32812 0.96875,0 1.64063,0.3125 0.6875,0.3125 1.125,0.84375 0.4375,0.51562 0.64062,1.23437 0.20313,0.70313 0.20313,1.5 z m -1.51563,-0.4375 q 0.0312,-1.1875 -0.53125,-1.85938 -0.54687,-0.67187 -1.625,-0.67187 -0.5625,0 -0.98437,0.21875 -0.40625,0.20312 -0.6875,0.54687 -0.28125,0.34375 -0.4375,0.8125 -0.15625,0.45313 -0.17188,0.95313 z m 10.86069,4.89062 q 0,0.0781 -0.0469,0.14063 -0.0312,0.0469 -0.10937,0.0781 -0.0781,0.0312 -0.23438,0.0469 -0.14062,0.0156 -0.35937,0.0156 -0.21875,0 -0.375,-0.0156 -0.14063,-0.0156 -0.23438,-0.0469 -0.0781,-0.0312 -0.10937,-0.0781 -0.0312,-0.0625 -0.0312,-0.14063 v -4.79687 q 0,-0.70313 -0.10938,-1.125 -0.10937,-0.4375 -0.32812,-0.73438 -0.20313,-0.3125 -0.54688,-0.46875 -0.32812,-0.17187 -0.76562,-0.17187 -0.5625,0 -1.125,0.40625 -0.5625,0.39062 -1.1875,1.17187 v 5.71875 q 0,0.0781 -0.0312,0.14063 -0.0312,0.0469 -0.125,0.0781 -0.0781,0.0312 -0.21875,0.0469 -0.14063,0.0156 -0.375,0.0156 -0.21875,0 -0.375,-0.0156 -0.14063,-0.0156 -0.23438,-0.0469 -0.0781,-0.0312 -0.10937,-0.0781 -0.0312,-0.0625 -0.0312,-0.14063 v -8.1875 q 0,-0.0781 0.0312,-0.125 0.0312,-0.0469 0.10937,-0.0937 0.0781,-0.0469 0.20313,-0.0469 0.14062,-0.0156 0.34375,-0.0156 0.20312,0 0.32812,0.0156 0.14063,0 0.20313,0.0469 0.0781,0.0469 0.10937,0.0937 0.0312,0.0469 0.0312,0.125 v 1.07813 q 0.6875,-0.76563 1.375,-1.125 0.6875,-0.375 1.39063,-0.375 0.82812,0 1.375,0.28125 0.5625,0.28125 0.90625,0.75 0.35937,0.46875 0.5,1.09375 0.15625,0.60937 0.15625,1.48437 z m 7.00494,-0.59375 q 0,0.26563 -0.0469,0.42188 -0.0312,0.15625 -0.10938,0.23437 -0.0625,0.0625 -0.21875,0.125 -0.14062,0.0625 -0.32812,0.0937 -0.1875,0.0469 -0.39063,0.0781 -0.20312,0.0312 -0.42187,0.0312 -0.64063,0 -1.09375,-0.17188 -0.45313,-0.17187 -0.75,-0.5 -0.28125,-0.34375 -0.42188,-0.85937 -0.125,-0.53125 -0.125,-1.25 v -4.79688 h -1.15625 q -0.125,0 -0.21875,-0.14062 -0.0781,-0.14063 -0.0781,-0.46875 0,-0.17188 0.0156,-0.28125 0.0312,-0.125 0.0625,-0.20313 0.0469,-0.0781 0.0937,-0.10937 0.0625,-0.0312 0.14063,-0.0312 h 1.14062 v -1.95313 q 0,-0.0625 0.0312,-0.10937 0.0312,-0.0625 0.10938,-0.10938 0.0937,-0.0469 0.23437,-0.0625 0.15625,-0.0156 0.375,-0.0156 0.21875,0 0.35938,0.0156 0.15625,0.0156 0.23437,0.0625 0.0781,0.0469 0.10938,0.10938 0.0469,0.0469 0.0469,0.10937 v 1.95313 h 2.10938 q 0.0625,0 0.10937,0.0312 0.0625,0.0312 0.10938,0.10937 0.0469,0.0781 0.0625,0.20313 0.0156,0.10937 0.0156,0.28125 0,0.32812 -0.0781,0.46875 -0.0781,0.14062 -0.21875,0.14062 h -2.10938 v 4.57813 q 0,0.84375 0.25,1.28125 0.25,0.4375 0.90625,0.4375 0.20313,0 0.35938,-0.0469 0.17187,-0.0469 0.29687,-0.0781 0.125,-0.0469 0.21875,-0.0937 0.0937,-0.0469 0.17188,-0.0469 0.0469,0 0.0781,0.0312 0.0469,0.0156 0.0625,0.0781 0.0312,0.0625 0.0469,0.17187 0.0156,0.10938 0.0156,0.28125 z m 8.98349,-3.85937 q 0,0.35937 -0.1875,0.51562 -0.17187,0.14063 -0.39062,0.14063 h -5.375 q 0,0.6875 0.125,1.23437 0.14062,0.54688 0.45312,0.9375 0.32813,0.39063 0.82813,0.60938 0.51562,0.20312 1.25,0.20312 0.59375,0 1.04687,-0.0937 0.45313,-0.0937 0.78125,-0.20312 0.34375,-0.125 0.54688,-0.21875 0.21875,-0.10938 0.32812,-0.10938 0.0625,0 0.10938,0.0312 0.0625,0.0312 0.0781,0.10938 0.0312,0.0625 0.0469,0.17187 0.0156,0.10938 0.0156,0.28125 0,0.10938 -0.0156,0.20313 0,0.0781 -0.0156,0.15625 -0.0156,0.0625 -0.0469,0.125 -0.0312,0.0469 -0.0937,0.0937 -0.0469,0.0469 -0.29688,0.17187 -0.23437,0.10938 -0.625,0.21875 -0.39062,0.10938 -0.90625,0.1875 -0.51562,0.0937 -1.09375,0.0937 -1.01562,0 -1.78125,-0.28125 -0.76562,-0.28125 -1.28125,-0.82812 -0.51562,-0.5625 -0.78125,-1.39063 -0.26562,-0.84375 -0.26562,-1.96875 0,-1.04687 0.26562,-1.89062 0.28125,-0.84375 0.79688,-1.42188 0.51562,-0.59375 1.23437,-0.90625 0.73438,-0.32812 1.64063,-0.32812 0.96875,0 1.64062,0.3125 0.6875,0.3125 1.125,0.84375 0.4375,0.51562 0.64063,1.23437 0.20312,0.70313 0.20312,1.5 z m -1.51562,-0.4375 q 0.0312,-1.1875 -0.53125,-1.85938 -0.54688,-0.67187 -1.625,-0.67187 -0.5625,0 -0.98438,0.21875 -0.40625,0.20312 -0.6875,0.54687 -0.28125,0.34375 -0.4375,0.8125 -0.15625,0.45313 -0.17187,0.95313 z m 10.86072,4.89062 q 0,0.0781 -0.0469,0.14063 -0.0312,0.0469 -0.10937,0.0781 -0.0781,0.0312 -0.23438,0.0469 -0.14062,0.0156 -0.35937,0.0156 -0.21875,0 -0.375,-0.0156 -0.14063,-0.0156 -0.23438,-0.0469 -0.0781,-0.0312 -0.10937,-0.0781 -0.0312,-0.0625 -0.0312,-0.14063 v -4.79687 q 0,-0.70313 -0.10938,-1.125 -0.10937,-0.4375 -0.32812,-0.73438 -0.20313,-0.3125 -0.54688,-0.46875 -0.32812,-0.17187 -0.76562,-0.17187 -0.5625,0 -1.125,0.40625 -0.5625,0.39062 -1.1875,1.17187 v 5.71875 q 0,0.0781 -0.0312,0.14063 -0.0312,0.0469 -0.125,0.0781 -0.0781,0.0312 -0.21875,0.0469 -0.14063,0.0156 -0.375,0.0156 -0.21875,0 -0.375,-0.0156 -0.14063,-0.0156 -0.23438,-0.0469 -0.0781,-0.0312 -0.10937,-0.0781 -0.0312,-0.0625 -0.0312,-0.14063 v -8.1875 q 0,-0.0781 0.0312,-0.125 0.0312,-0.0469 0.10937,-0.0937 0.0781,-0.0469 0.20313,-0.0469 0.14062,-0.0156 0.34375,-0.0156 0.20312,0 0.32812,0.0156 0.14063,0 0.20313,0.0469 0.0781,0.0469 0.10937,0.0937 0.0312,0.0469 0.0312,0.125 v 1.07813 q 0.6875,-0.76563 1.375,-1.125 0.6875,-0.375 1.39063,-0.375 0.82812,0 1.375,0.28125 0.5625,0.28125 0.90625,0.75 0.35937,0.46875 0.5,1.09375 0.15625,0.60937 0.15625,1.48437 z m 8.62994,-1.23437 q 0,0.14062 -0.0156,0.26562 0,0.10938 -0.0312,0.1875 -0.0156,0.0781 -0.0469,0.14063 -0.0312,0.0625 -0.14062,0.17187 -0.10938,0.10938 -0.39063,0.28125 -0.26562,0.17188 -0.60937,0.3125 -0.34375,0.125 -0.75,0.20313 -0.39063,0.0781 -0.82813,0.0781 -0.875,0 -1.5625,-0.28125 -0.6875,-0.29687 -1.15625,-0.85937 -0.45312,-0.5625 -0.70312,-1.375 -0.23438,-0.8125 -0.23438,-1.89063 0,-1.20312 0.29688,-2.0625 0.29687,-0.875 0.8125,-1.4375 0.51562,-0.5625 1.20312,-0.82812 0.70313,-0.26563 1.51563,-0.26563 0.39062,0 0.76562,0.0781 0.375,0.0625 0.67188,0.1875 0.3125,0.125 0.54687,0.28125 0.25,0.14062 0.35938,0.25 0.10937,0.10937 0.14062,0.1875 0.0469,0.0625 0.0781,0.15625 0.0312,0.0781 0.0312,0.1875 0.0156,0.10937 0.0156,0.26562 0,0.35938 -0.0781,0.5 -0.0781,0.14063 -0.20313,0.14063 -0.14062,0 -0.3125,-0.14063 -0.17187,-0.15625 -0.45312,-0.34375 -0.26563,-0.1875 -0.65625,-0.32812 -0.39063,-0.15625 -0.92188,-0.15625 -1.07812,0 -1.65625,0.84375 -0.57812,0.82812 -0.57812,2.40625 0,0.79687 0.14062,1.39062 0.15625,0.59375 0.4375,1 0.29688,0.40625 0.71875,0.60938 0.4375,0.1875 0.98438,0.1875 0.51562,0 0.90625,-0.15625 0.39062,-0.17188 0.67187,-0.35938 0.29688,-0.20312 0.48438,-0.35937 0.20312,-0.17188 0.3125,-0.17188 0.0625,0 0.10937,0.0469 0.0469,0.0312 0.0781,0.125 0.0312,0.0781 0.0312,0.21875 0.0156,0.125 0.0156,0.3125 z m 8.9982,-3.21875 q 0,0.35937 -0.1875,0.51562 -0.17188,0.14063 -0.39063,0.14063 h -5.375 q 0,0.6875 0.125,1.23437 0.14063,0.54688 0.45313,0.9375 0.32812,0.39063 0.82812,0.60938 0.51563,0.20312 1.25,0.20312 0.59375,0 1.04688,-0.0937 0.45312,-0.0937 0.78125,-0.20312 0.34375,-0.125 0.54687,-0.21875 0.21875,-0.10938 0.32813,-0.10938 0.0625,0 0.10937,0.0312 0.0625,0.0312 0.0781,0.10938 0.0312,0.0625 0.0469,0.17187 0.0156,0.10938 0.0156,0.28125 0,0.10938 -0.0156,0.20313 0,0.0781 -0.0156,0.15625 -0.0156,0.0625 -0.0469,0.125 -0.0312,0.0469 -0.0937,0.0937 -0.0469,0.0469 -0.29687,0.17187 -0.23438,0.10938 -0.625,0.21875 -0.39063,0.10938 -0.90625,0.1875 -0.51563,0.0937 -1.09375,0.0937 -1.01563,0 -1.78125,-0.28125 -0.76563,-0.28125 -1.28125,-0.82812 -0.51563,-0.5625 -0.78125,-1.39063 -0.26563,-0.84375 -0.26563,-1.96875 0,-1.04687 0.26563,-1.89062 0.28125,-0.84375 0.79687,-1.42188 0.51563,-0.59375 1.23438,-0.90625 0.73437,-0.32812 1.64062,-0.32812 0.96875,0 1.64063,0.3125 0.6875,0.3125 1.125,0.84375 0.4375,0.51562 0.64062,1.23437 0.20313,0.70313 0.20313,1.5 z m -1.51563,-0.4375 q 0.0312,-1.1875 -0.53125,-1.85938 -0.54687,-0.67187 -1.625,-0.67187 -0.5625,0 -0.98437,0.21875 -0.40625,0.20312 -0.6875,0.54687 -0.28125,0.34375 -0.4375,0.8125 -0.15625,0.45313 -0.17188,0.95313 z"
       id="path217" />
    <path
       style="fill:#000000;fill-opacity:0;fill-rule:evenodd"
       inkscape:connector-curvature="0"
       d="m 486.88586,503.24545 h 84.75299 v 32.31253 h -84.75299 z"
       id="path477" />
    <path
       d="m 768.9277,278.94415 h 156.70874 v 54.93121 H 768.9277 Z"
       id="path523"
       inkscape:connector-curvature="0"
       style="fill:#000000;fill-opacity:0;fill-rule:evenodd" />
    <g
       id="g6057">
      <path
         id="path221"
         d="m 461.50882,206.12761 q 0,0.0781 -0.0312,0.14062 -0.0156,0.0469 -0.10937,0.0781 -0.0937,0.0312 -0.26563,0.0469 -0.15625,0.0156 -0.42187,0.0156 -0.23438,0 -0.39063,-0.0156 -0.15625,-0.0156 -0.25,-0.0469 -0.0781,-0.0469 -0.14062,-0.10938 -0.0469,-0.0781 -0.0781,-0.1875 l -1.07812,-2.78125 q -0.20313,-0.48437 -0.40625,-0.875 -0.20313,-0.39062 -0.48438,-0.67187 -0.28125,-0.29688 -0.67187,-0.45313 -0.375,-0.15625 -0.90625,-0.15625 h -1.04688 v 5.01563 q 0,0.0781 -0.0469,0.14062 -0.0469,0.0469 -0.14063,0.0781 -0.0781,0.0312 -0.23437,0.0469 -0.14063,0.0156 -0.375,0.0156 -0.21875,0 -0.375,-0.0156 -0.14063,-0.0156 -0.23438,-0.0469 -0.0937,-0.0312 -0.14062,-0.0781 -0.0312,-0.0625 -0.0312,-0.14062 V 195.2057 q 0,-0.34375 0.1875,-0.48437 0.1875,-0.14063 0.40625,-0.14063 h 2.5 q 0.4375,0 0.73437,0.0312 0.29688,0.0156 0.54688,0.0312 0.67187,0.125 1.1875,0.375 0.53125,0.25 0.89062,0.65625 0.35938,0.39063 0.53125,0.89063 0.1875,0.5 0.1875,1.10937 0,0.59375 -0.17187,1.0625 -0.15625,0.46875 -0.45313,0.82813 -0.29687,0.35937 -0.71875,0.625 -0.42187,0.26562 -0.9375,0.45312 0.28125,0.125 0.51563,0.32813 0.25,0.1875 0.45312,0.46875 0.20313,0.26562 0.375,0.625 0.1875,0.35937 0.375,0.79687 l 1.0625,2.59375 q 0.125,0.32813 0.15625,0.46875 0.0312,0.125 0.0312,0.20313 z m -2.35937,-8.28125 q 0,-0.6875 -0.3125,-1.17188 -0.29688,-0.48437 -1.03125,-0.6875 -0.21875,-0.0625 -0.51563,-0.0937 -0.28125,-0.0312 -0.75,-0.0312 h -1.3125 v 3.98438 h 1.53125 q 0.60938,0 1.0625,-0.15625 0.45313,-0.15625 0.75,-0.42188 0.29688,-0.26562 0.4375,-0.625 0.14063,-0.375 0.14063,-0.79687 z m 11.45788,3.82812 q 0,0.35938 -0.1875,0.51563 -0.17187,0.14062 -0.39062,0.14062 h -5.375 q 0,0.6875 0.125,1.23438 0.14062,0.54687 0.45312,0.9375 0.32813,0.39062 0.82813,0.60937 0.51562,0.20313 1.25,0.20313 0.59375,0 1.04687,-0.0937 0.45313,-0.0937 0.78125,-0.20313 0.34375,-0.125 0.54688,-0.21875 0.21875,-0.10937 0.32812,-0.10937 0.0625,0 0.10938,0.0312 0.0625,0.0312 0.0781,0.10937 0.0312,0.0625 0.0469,0.17188 0.0156,0.10937 0.0156,0.28125 0,0.10937 -0.0156,0.20312 0,0.0781 -0.0156,0.15625 -0.0156,0.0625 -0.0469,0.125 -0.0312,0.0469 -0.0937,0.0937 -0.0469,0.0469 -0.29688,0.17188 -0.23437,0.10937 -0.625,0.21875 -0.39062,0.10937 -0.90625,0.1875 -0.51562,0.0937 -1.09375,0.0937 -1.01562,0 -1.78125,-0.28125 -0.76562,-0.28125 -1.28125,-0.82813 -0.51562,-0.5625 -0.78125,-1.39062 -0.26562,-0.84375 -0.26562,-1.96875 0,-1.04688 0.26562,-1.89063 0.28125,-0.84375 0.79688,-1.42187 0.51562,-0.59375 1.23437,-0.90625 0.73438,-0.32813 1.64063,-0.32813 0.96875,0 1.64062,0.3125 0.6875,0.3125 1.125,0.84375 0.4375,0.51563 0.64063,1.23438 0.20312,0.70312 0.20312,1.5 z m -1.51562,-0.4375 q 0.0312,-1.1875 -0.53125,-1.85937 -0.54688,-0.67188 -1.625,-0.67188 -0.5625,0 -0.98438,0.21875 -0.40625,0.20313 -0.6875,0.54688 -0.28125,0.34375 -0.4375,0.8125 -0.15625,0.45312 -0.17187,0.95312 z m 11.34506,0.67188 q 0,1.07812 -0.23438,1.9375 -0.23437,0.84375 -0.6875,1.45312 -0.45312,0.59375 -1.125,0.92188 -0.65625,0.3125 -1.5,0.3125 -0.375,0 -0.6875,-0.0781 -0.29687,-0.0625 -0.59375,-0.21875 -0.29687,-0.15625 -0.59375,-0.39062 -0.29687,-0.23438 -0.625,-0.5625 v 4.10937 q 0,0.0625 -0.0312,0.10938 -0.0312,0.0625 -0.125,0.0937 -0.0781,0.0469 -0.21875,0.0625 -0.14062,0.0156 -0.375,0.0156 -0.21875,0 -0.375,-0.0156 -0.14062,-0.0156 -0.23437,-0.0625 -0.0781,-0.0312 -0.10938,-0.0937 -0.0312,-0.0469 -0.0312,-0.10938 v -11.45312 q 0,-0.0937 0.0312,-0.14063 0.0312,-0.0469 0.10938,-0.0781 0.0781,-0.0469 0.20312,-0.0469 0.14063,-0.0156 0.3125,-0.0156 0.1875,0 0.3125,0.0156 0.125,0 0.20313,0.0469 0.0937,0.0312 0.125,0.0781 0.0312,0.0469 0.0312,0.14063 v 1.09375 q 0.375,-0.375 0.71875,-0.65625 0.34375,-0.28125 0.6875,-0.46875 0.35937,-0.1875 0.71875,-0.28125 0.375,-0.10938 0.78125,-0.10938 0.89062,0 1.51562,0.35938 0.64063,0.34375 1.03125,0.95312 0.40625,0.59375 0.57813,1.39063 0.1875,0.79687 0.1875,1.6875 z m -1.59375,0.17187 q 0,-0.625 -0.0937,-1.20312 -0.0937,-0.59375 -0.32813,-1.04688 -0.21875,-0.46875 -0.625,-0.73437 -0.39062,-0.28125 -0.96875,-0.28125 -0.29687,0 -0.57812,0.0937 -0.28125,0.0781 -0.57813,0.26562 -0.28125,0.1875 -0.60937,0.5 -0.3125,0.29688 -0.67188,0.75 v 3.26563 q 0.625,0.75 1.17188,1.15625 0.5625,0.39062 1.17187,0.39062 0.5625,0 0.96875,-0.26562 0.40625,-0.28125 0.65625,-0.73438 0.25,-0.45312 0.35938,-1.01562 0.125,-0.5625 0.125,-1.14063 z m 8.64557,-3.60937 q 0,0.20312 -0.0156,0.34375 0,0.125 -0.0312,0.20312 -0.0312,0.0781 -0.0781,0.125 -0.0312,0.0469 -0.10938,0.0469 -0.0625,0 -0.17187,-0.0469 -0.10938,-0.0469 -0.25,-0.0781 -0.125,-0.0469 -0.29688,-0.0781 -0.15625,-0.0469 -0.34375,-0.0469 -0.21875,0 -0.4375,0.0937 -0.21875,0.0937 -0.46875,0.3125 -0.23437,0.20312 -0.5,0.54687 -0.26562,0.34375 -0.59375,0.84375 v 5.39063 q 0,0.0781 -0.0312,0.14062 -0.0312,0.0469 -0.125,0.0781 -0.0781,0.0312 -0.21875,0.0469 -0.14062,0.0156 -0.375,0.0156 -0.21875,0 -0.375,-0.0156 -0.14062,-0.0156 -0.23437,-0.0469 -0.0781,-0.0312 -0.10938,-0.0781 -0.0312,-0.0625 -0.0312,-0.14062 v -8.1875 q 0,-0.0781 0.0312,-0.125 0.0312,-0.0469 0.10938,-0.0937 0.0781,-0.0469 0.20312,-0.0469 0.14063,-0.0156 0.34375,-0.0156 0.20313,0 0.32813,0.0156 0.14062,0 0.20312,0.0469 0.0781,0.0469 0.10938,0.0937 0.0312,0.0469 0.0312,0.125 v 1.1875 q 0.34375,-0.48438 0.64062,-0.79688 0.29688,-0.3125 0.54688,-0.48437 0.26562,-0.1875 0.53125,-0.25 0.26562,-0.0781 0.51562,-0.0781 0.125,0 0.26563,0.0156 0.15625,0.0156 0.3125,0.0625 0.17187,0.0312 0.29687,0.0781 0.14063,0.0469 0.1875,0.0937 0.0625,0.0469 0.0781,0.0937 0.0312,0.0312 0.0312,0.0937 0.0156,0.0625 0.0156,0.1875 0.0156,0.125 0.0156,0.32813 z m 8.7073,3.20312 q 0,0.35938 -0.1875,0.51563 -0.17187,0.14062 -0.39062,0.14062 h -5.375 q 0,0.6875 0.125,1.23438 0.14062,0.54687 0.45312,0.9375 0.32813,0.39062 0.82813,0.60937 0.51562,0.20313 1.25,0.20313 0.59375,0 1.04687,-0.0937 0.45313,-0.0937 0.78125,-0.20313 0.34375,-0.125 0.54688,-0.21875 0.21875,-0.10937 0.32812,-0.10937 0.0625,0 0.10938,0.0312 0.0625,0.0312 0.0781,0.10937 0.0312,0.0625 0.0469,0.17188 0.0156,0.10937 0.0156,0.28125 0,0.10937 -0.0156,0.20312 0,0.0781 -0.0156,0.15625 -0.0156,0.0625 -0.0469,0.125 -0.0312,0.0469 -0.0937,0.0937 -0.0469,0.0469 -0.29688,0.17188 -0.23437,0.10937 -0.625,0.21875 -0.39062,0.10937 -0.90625,0.1875 -0.51562,0.0937 -1.09375,0.0937 -1.01562,0 -1.78125,-0.28125 -0.76562,-0.28125 -1.28125,-0.82813 -0.51562,-0.5625 -0.78125,-1.39062 -0.26562,-0.84375 -0.26562,-1.96875 0,-1.04688 0.26562,-1.89063 0.28125,-0.84375 0.79688,-1.42187 0.51562,-0.59375 1.23437,-0.90625 0.73438,-0.32813 1.64063,-0.32813 0.96875,0 1.64062,0.3125 0.6875,0.3125 1.125,0.84375 0.4375,0.51563 0.64063,1.23438 0.20312,0.70312 0.20312,1.5 z m -1.51562,-0.4375 q 0.0312,-1.1875 -0.53125,-1.85937 -0.54688,-0.67188 -1.625,-0.67188 -0.5625,0 -0.98438,0.21875 -0.40625,0.20313 -0.6875,0.54688 -0.28125,0.34375 -0.4375,0.8125 -0.15625,0.45312 -0.17187,0.95312 z m 8.95447,2.67188 q 0,0.625 -0.23438,1.125 -0.23437,0.48437 -0.67187,0.82812 -0.42188,0.32813 -1.01563,0.5 -0.59375,0.17188 -1.29687,0.17188 -0.4375,0 -0.84375,-0.0781 -0.39063,-0.0625 -0.70313,-0.15625 -0.3125,-0.10937 -0.53125,-0.21875 -0.21875,-0.125 -0.32812,-0.20312 -0.0937,-0.0937 -0.14063,-0.25 -0.0469,-0.17188 -0.0469,-0.45313 0,-0.17187 0.0156,-0.29687 0.0312,-0.125 0.0469,-0.1875 0.0312,-0.0781 0.0781,-0.10938 0.0469,-0.0312 0.125,-0.0312 0.0937,0 0.28125,0.125 0.20313,0.125 0.48438,0.26563 0.29687,0.14062 0.6875,0.26562 0.39062,0.125 0.90625,0.125 0.375,0 0.6875,-0.0781 0.3125,-0.0781 0.53125,-0.23438 0.23437,-0.17187 0.35937,-0.40625 0.125,-0.25 0.125,-0.59375 0,-0.34375 -0.1875,-0.57812 -0.17187,-0.23438 -0.46875,-0.42188 -0.28125,-0.1875 -0.65625,-0.32812 -0.35937,-0.14063 -0.75,-0.29688 -0.39062,-0.15625 -0.76562,-0.34375 -0.35938,-0.20312 -0.65625,-0.48437 -0.28125,-0.28125 -0.46875,-0.67188 -0.17188,-0.39062 -0.17188,-0.9375 0,-0.48437 0.1875,-0.92187 0.1875,-0.4375 0.5625,-0.76563 0.375,-0.34375 0.92188,-0.54687 0.5625,-0.20313 1.3125,-0.20313 0.32812,0 0.65625,0.0625 0.32812,0.0469 0.59375,0.14063 0.26562,0.0781 0.45312,0.17187 0.1875,0.0937 0.28125,0.17188 0.0937,0.0781 0.125,0.14062 0.0312,0.0469 0.0469,0.10938 0.0156,0.0625 0.0312,0.17187 0.0156,0.0937 0.0156,0.23438 0,0.15625 -0.0156,0.28125 -0.0156,0.10937 -0.0469,0.1875 -0.0312,0.0625 -0.0781,0.0937 -0.0469,0.0312 -0.0937,0.0312 -0.0937,0 -0.25,-0.0937 -0.14063,-0.0937 -0.39063,-0.20313 -0.25,-0.125 -0.57812,-0.21875 -0.32813,-0.10937 -0.76563,-0.10937 -0.375,0 -0.67187,0.0937 -0.29688,0.0781 -0.48438,0.25 -0.1875,0.15625 -0.28125,0.375 -0.0937,0.21875 -0.0937,0.46875 0,0.35937 0.17188,0.60937 0.1875,0.23438 0.48437,0.42188 0.29688,0.17187 0.67188,0.32812 0.375,0.14063 0.75,0.29688 0.39062,0.14062 0.76562,0.34375 0.39063,0.1875 0.67188,0.46875 0.29687,0.26562 0.46875,0.65625 0.1875,0.375 0.1875,0.90625 z m 9.14047,-2.23438 q 0,0.35938 -0.1875,0.51563 -0.17188,0.14062 -0.39063,0.14062 h -5.37503 q 0,0.6875 0.125,1.23438 0.14063,0.54687 0.45313,0.9375 0.32812,0.39062 0.82812,0.60937 0.51563,0.20313 1.25,0.20313 0.59375,0 1.04688,-0.0937 0.45312,-0.0937 0.78125,-0.20313 0.34375,-0.125 0.54687,-0.21875 0.21878,-0.10937 0.32816,-0.10937 0.0625,0 0.10937,0.0312 0.0625,0.0312 0.0781,0.10937 0.0312,0.0625 0.0469,0.17188 0.0156,0.10937 0.0156,0.28125 0,0.10937 -0.0156,0.20312 0,0.0781 -0.0156,0.15625 -0.0156,0.0625 -0.0469,0.125 -0.0312,0.0469 -0.0937,0.0937 -0.0469,0.0469 -0.2969,0.17188 -0.23438,0.10937 -0.625,0.21875 -0.39063,0.10937 -0.90625,0.1875 -0.51563,0.0937 -1.09375,0.0937 -1.01563,0 -1.78125,-0.28125 -0.76563,-0.28125 -1.28125,-0.82813 -0.51563,-0.5625 -0.78125,-1.39062 -0.26563,-0.84375 -0.26563,-1.96875 0,-1.04688 0.26563,-1.89063 0.28125,-0.84375 0.79687,-1.42187 0.51563,-0.59375 1.23438,-0.90625 0.73437,-0.32813 1.64062,-0.32813 0.96875,0 1.64063,0.3125 0.6875,0.3125 1.125,0.84375 0.43753,0.51563 0.64065,1.23438 0.20313,0.70312 0.20313,1.5 z m -1.51566,-0.4375 q 0.0312,-1.1875 -0.53125,-1.85937 -0.54687,-0.67188 -1.625,-0.67188 -0.5625,0 -0.98437,0.21875 -0.40625,0.20313 -0.6875,0.54688 -0.28125,0.34375 -0.4375,0.8125 -0.15625,0.45312 -0.17188,0.95312 z m 10.86069,4.89063 q 0,0.0781 -0.0469,0.14062 -0.0312,0.0469 -0.10937,0.0781 -0.0781,0.0312 -0.23438,0.0469 -0.14062,0.0156 -0.35937,0.0156 -0.21875,0 -0.375,-0.0156 -0.14063,-0.0156 -0.23438,-0.0469 -0.0781,-0.0312 -0.10937,-0.0781 -0.0312,-0.0625 -0.0312,-0.14062 v -4.79688 q 0,-0.70312 -0.10938,-1.125 -0.10937,-0.4375 -0.32812,-0.73437 -0.20313,-0.3125 -0.54688,-0.46875 -0.32812,-0.17188 -0.76562,-0.17188 -0.5625,0 -1.125,0.40625 -0.5625,0.39063 -1.1875,1.17188 v 5.71875 q 0,0.0781 -0.0312,0.14062 -0.0312,0.0469 -0.125,0.0781 -0.0781,0.0312 -0.21875,0.0469 -0.14063,0.0156 -0.375,0.0156 -0.21875,0 -0.375,-0.0156 -0.14063,-0.0156 -0.23438,-0.0469 -0.0781,-0.0312 -0.10937,-0.0781 -0.0312,-0.0625 -0.0312,-0.14062 v -8.1875 q 0,-0.0781 0.0312,-0.125 0.0312,-0.0469 0.10937,-0.0937 0.0781,-0.0469 0.20313,-0.0469 0.14062,-0.0156 0.34375,-0.0156 0.20312,0 0.32812,0.0156 0.14063,0 0.20313,0.0469 0.0781,0.0469 0.10937,0.0937 0.0312,0.0469 0.0312,0.125 v 1.07812 q 0.6875,-0.76562 1.375,-1.125 0.6875,-0.375 1.39063,-0.375 0.82812,0 1.375,0.28125 0.5625,0.28125 0.90625,0.75 0.35937,0.46875 0.5,1.09375 0.15625,0.60938 0.15625,1.48438 z m 7.00494,-0.59375 q 0,0.26562 -0.0469,0.42187 -0.0312,0.15625 -0.10938,0.23438 -0.0625,0.0625 -0.21875,0.125 -0.14062,0.0625 -0.32812,0.0937 -0.1875,0.0469 -0.39063,0.0781 -0.20312,0.0312 -0.42187,0.0312 -0.64063,0 -1.09375,-0.17187 -0.45313,-0.17188 -0.75,-0.5 -0.28125,-0.34375 -0.42188,-0.85938 -0.125,-0.53125 -0.125,-1.25 v -4.79687 h -1.15625 q -0.125,0 -0.21875,-0.14063 -0.0781,-0.14062 -0.0781,-0.46875 0,-0.17187 0.0156,-0.28125 0.0312,-0.125 0.0625,-0.20312 0.0469,-0.0781 0.0937,-0.10938 0.0625,-0.0312 0.14063,-0.0312 h 1.14062 v -1.95312 q 0,-0.0625 0.0312,-0.10938 0.0312,-0.0625 0.10938,-0.10937 0.0937,-0.0469 0.23437,-0.0625 0.15625,-0.0156 0.375,-0.0156 0.21875,0 0.35938,0.0156 0.15625,0.0156 0.23437,0.0625 0.0781,0.0469 0.10938,0.10937 0.0469,0.0469 0.0469,0.10938 v 1.95312 h 2.10938 q 0.0625,0 0.10937,0.0312 0.0625,0.0312 0.10938,0.10938 0.0469,0.0781 0.0625,0.20312 0.0156,0.10938 0.0156,0.28125 0,0.32813 -0.0781,0.46875 -0.0781,0.14063 -0.21875,0.14063 h -2.10938 v 4.57812 q 0,0.84375 0.25,1.28125 0.25,0.4375 0.90625,0.4375 0.20313,0 0.35938,-0.0469 0.17187,-0.0469 0.29687,-0.0781 0.125,-0.0469 0.21875,-0.0937 0.0937,-0.0469 0.17188,-0.0469 0.0469,0 0.0781,0.0312 0.0469,0.0156 0.0625,0.0781 0.0312,0.0625 0.0469,0.17188 0.0156,0.10937 0.0156,0.28125 z m 3.48352,0.59375 q 0,0.0781 -0.0312,0.14062 -0.0312,0.0469 -0.125,0.0781 -0.0781,0.0312 -0.21875,0.0469 -0.14062,0.0156 -0.375,0.0156 -0.21875,0 -0.375,-0.0156 -0.14062,-0.0156 -0.23437,-0.0469 -0.0781,-0.0312 -0.10938,-0.0781 -0.0312,-0.0625 -0.0312,-0.14062 v -8.1875 q 0,-0.0625 0.0312,-0.10938 0.0312,-0.0625 0.10938,-0.0937 0.0937,-0.0469 0.23437,-0.0625 0.15625,-0.0156 0.375,-0.0156 0.23438,0 0.375,0.0156 0.14063,0.0156 0.21875,0.0625 0.0937,0.0312 0.125,0.0937 0.0312,0.0469 0.0312,0.10938 z m 0.17188,-10.96875 q 0,0.53125 -0.20313,0.73437 -0.1875,0.1875 -0.73437,0.1875 -0.51563,0 -0.71875,-0.1875 -0.1875,-0.1875 -0.1875,-0.70312 0,-0.53125 0.1875,-0.71875 0.20312,-0.20313 0.75,-0.20313 0.51562,0 0.70312,0.1875 0.20313,0.1875 0.20313,0.70313 z m 9.60956,6.51562 q 0,0.35938 -0.1875,0.51563 -0.17188,0.14062 -0.39063,0.14062 h -5.375 q 0,0.6875 0.125,1.23438 0.14063,0.54687 0.45313,0.9375 0.32812,0.39062 0.82812,0.60937 0.51563,0.20313 1.25,0.20313 0.59375,0 1.04688,-0.0937 0.45312,-0.0937 0.78125,-0.20313 0.34375,-0.125 0.54687,-0.21875 0.21875,-0.10937 0.32813,-0.10937 0.0625,0 0.10937,0.0312 0.0625,0.0312 0.0781,0.10937 0.0312,0.0625 0.0469,0.17188 0.0156,0.10937 0.0156,0.28125 0,0.10937 -0.0156,0.20312 0,0.0781 -0.0156,0.15625 -0.0156,0.0625 -0.0469,0.125 -0.0312,0.0469 -0.0937,0.0937 -0.0469,0.0469 -0.29687,0.17188 -0.23438,0.10937 -0.625,0.21875 -0.39063,0.10937 -0.90625,0.1875 -0.51563,0.0937 -1.09375,0.0937 -1.01563,0 -1.78125,-0.28125 -0.76563,-0.28125 -1.28125,-0.82813 -0.51563,-0.5625 -0.78125,-1.39062 -0.26563,-0.84375 -0.26563,-1.96875 0,-1.04688 0.26563,-1.89063 0.28125,-0.84375 0.79687,-1.42187 0.51563,-0.59375 1.23438,-0.90625 0.73437,-0.32813 1.64062,-0.32813 0.96875,0 1.64063,0.3125 0.6875,0.3125 1.125,0.84375 0.4375,0.51563 0.64062,1.23438 0.20313,0.70312 0.20313,1.5 z m -1.51563,-0.4375 q 0.0312,-1.1875 -0.53125,-1.85937 -0.54687,-0.67188 -1.625,-0.67188 -0.5625,0 -0.98437,0.21875 -0.40625,0.20313 -0.6875,0.54688 -0.28125,0.34375 -0.4375,0.8125 -0.15625,0.45312 -0.17188,0.95312 z m 8.5951,-2.76562 q 0,0.20312 -0.0156,0.34375 0,0.125 -0.0312,0.20312 -0.0312,0.0781 -0.0781,0.125 -0.0312,0.0469 -0.10938,0.0469 -0.0625,0 -0.17187,-0.0469 -0.10938,-0.0469 -0.25,-0.0781 -0.125,-0.0469 -0.29688,-0.0781 -0.15625,-0.0469 -0.34375,-0.0469 -0.21875,0 -0.4375,0.0937 -0.21875,0.0937 -0.46875,0.3125 -0.23437,0.20312 -0.5,0.54687 -0.26562,0.34375 -0.59375,0.84375 v 5.39063 q 0,0.0781 -0.0312,0.14062 -0.0312,0.0469 -0.125,0.0781 -0.0781,0.0312 -0.21875,0.0469 -0.14062,0.0156 -0.375,0.0156 -0.21875,0 -0.375,-0.0156 -0.14062,-0.0156 -0.23437,-0.0469 -0.0781,-0.0312 -0.10938,-0.0781 -0.0312,-0.0625 -0.0312,-0.14062 v -8.1875 q 0,-0.0781 0.0312,-0.125 0.0312,-0.0469 0.10938,-0.0937 0.0781,-0.0469 0.20312,-0.0469 0.14063,-0.0156 0.34375,-0.0156 0.20313,0 0.32813,0.0156 0.14062,0 0.20312,0.0469 0.0781,0.0469 0.10938,0.0937 0.0312,0.0469 0.0312,0.125 v 1.1875 q 0.34375,-0.48438 0.64062,-0.79688 0.29688,-0.3125 0.54688,-0.48437 0.26562,-0.1875 0.53125,-0.25 0.26562,-0.0781 0.51562,-0.0781 0.125,0 0.26563,0.0156 0.15625,0.0156 0.3125,0.0625 0.17187,0.0312 0.29687,0.0781 0.14063,0.0469 0.1875,0.0937 0.0625,0.0469 0.0781,0.0937 0.0312,0.0312 0.0312,0.0937 0.0156,0.0625 0.0156,0.1875 0.0156,0.125 0.0156,0.32813 z m 8.70733,3.20312 q 0,0.35938 -0.1875,0.51563 -0.17187,0.14062 -0.39062,0.14062 h -5.375 q 0,0.6875 0.125,1.23438 0.14062,0.54687 0.45312,0.9375 0.32813,0.39062 0.82813,0.60937 0.51562,0.20313 1.25,0.20313 0.59375,0 1.04687,-0.0937 0.45313,-0.0937 0.78125,-0.20313 0.34375,-0.125 0.54688,-0.21875 0.21875,-0.10937 0.32812,-0.10937 0.0625,0 0.10938,0.0312 0.0625,0.0312 0.0781,0.10937 0.0312,0.0625 0.0469,0.17188 0.0156,0.10937 0.0156,0.28125 0,0.10937 -0.0156,0.20312 0,0.0781 -0.0156,0.15625 -0.0156,0.0625 -0.0469,0.125 -0.0312,0.0469 -0.0937,0.0937 -0.0469,0.0469 -0.29688,0.17188 -0.23437,0.10937 -0.625,0.21875 -0.39062,0.10937 -0.90625,0.1875 -0.51562,0.0937 -1.09375,0.0937 -1.01562,0 -1.78125,-0.28125 -0.76562,-0.28125 -1.28125,-0.82813 -0.51562,-0.5625 -0.78125,-1.39062 -0.26562,-0.84375 -0.26562,-1.96875 0,-1.04688 0.26562,-1.89063 0.28125,-0.84375 0.79688,-1.42187 0.51562,-0.59375 1.23437,-0.90625 0.73438,-0.32813 1.64063,-0.32813 0.96875,0 1.64062,0.3125 0.6875,0.3125 1.125,0.84375 0.4375,0.51563 0.64063,1.23438 0.20312,0.70312 0.20312,1.5 z m -1.51562,-0.4375 q 0.0312,-1.1875 -0.53125,-1.85937 -0.54688,-0.67188 -1.625,-0.67188 -0.5625,0 -0.98438,0.21875 -0.40625,0.20313 -0.6875,0.54688 -0.28125,0.34375 -0.4375,0.8125 -0.15625,0.45312 -0.17187,0.95312 z m 10.86065,4.89063 q 0,0.0781 -0.0469,0.14062 -0.0312,0.0469 -0.10938,0.0781 -0.0781,0.0312 -0.23437,0.0469 -0.14063,0.0156 -0.35938,0.0156 -0.21875,0 -0.375,-0.0156 -0.14062,-0.0156 -0.23437,-0.0469 -0.0781,-0.0312 -0.10938,-0.0781 -0.0312,-0.0625 -0.0312,-0.14062 v -4.79688 q 0,-0.70312 -0.10937,-1.125 -0.10938,-0.4375 -0.32813,-0.73437 -0.20312,-0.3125 -0.54687,-0.46875 -0.32813,-0.17188 -0.76563,-0.17188 -0.5625,0 -1.125,0.40625 -0.5625,0.39063 -1.1875,1.17188 v 5.71875 q 0,0.0781 -0.0312,0.14062 -0.0312,0.0469 -0.125,0.0781 -0.0781,0.0312 -0.21875,0.0469 -0.14062,0.0156 -0.375,0.0156 -0.21875,0 -0.375,-0.0156 -0.14062,-0.0156 -0.23437,-0.0469 -0.0781,-0.0312 -0.10938,-0.0781 -0.0312,-0.0625 -0.0312,-0.14062 v -8.1875 q 0,-0.0781 0.0312,-0.125 0.0312,-0.0469 0.10938,-0.0937 0.0781,-0.0469 0.20312,-0.0469 0.14063,-0.0156 0.34375,-0.0156 0.20313,0 0.32813,0.0156 0.14062,0 0.20312,0.0469 0.0781,0.0469 0.10938,0.0937 0.0312,0.0469 0.0312,0.125 v 1.07812 q 0.6875,-0.76562 1.375,-1.125 0.6875,-0.375 1.39062,-0.375 0.82813,0 1.375,0.28125 0.5625,0.28125 0.90625,0.75 0.35938,0.46875 0.5,1.09375 0.15625,0.60938 0.15625,1.48438 z m 18.42578,-8.20313 q 0,0.0625 -0.0156,0.15625 -0.0156,0.0781 -0.0625,0.21875 l -2.42188,7.79688 q -0.0156,0.0937 -0.0781,0.15625 -0.0625,0.0625 -0.17188,0.10937 -0.0937,0.0312 -0.28125,0.0312 -0.1875,0.0156 -0.45312,0.0156 -0.28125,0 -0.48438,-0.0156 -0.1875,-0.0156 -0.29687,-0.0469 -0.10938,-0.0312 -0.17188,-0.0937 -0.0469,-0.0781 -0.0781,-0.15625 l -1.71875,-5.95313 -0.0156,-0.0781 -0.0156,0.0781 -1.60938,5.95313 q -0.0156,0.0937 -0.0781,0.15625 -0.0625,0.0625 -0.1875,0.10937 -0.10938,0.0312 -0.29688,0.0312 -0.1875,0.0156 -0.45312,0.0156 -0.28125,0 -0.46875,-0.0156 -0.17188,-0.0156 -0.29688,-0.0469 -0.10937,-0.0312 -0.17187,-0.0937 -0.0469,-0.0781 -0.0781,-0.15625 l -2.39062,-7.79688 q -0.0469,-0.14062 -0.0625,-0.21875 -0.0156,-0.0937 -0.0156,-0.15625 0,-0.0937 0.0312,-0.14062 0.0469,-0.0469 0.125,-0.0781 0.0937,-0.0312 0.23438,-0.0312 0.14062,-0.0156 0.35937,-0.0156 0.25,0 0.40625,0.0156 0.15625,0 0.23438,0.0312 0.0781,0.0312 0.10937,0.0937 0.0469,0.0625 0.0781,0.14063 l 1.96875,6.76562 0.0156,0.0781 0.0312,-0.0781 1.8125,-6.76562 q 0.0156,-0.0781 0.0469,-0.14063 0.0469,-0.0625 0.125,-0.0937 0.0937,-0.0312 0.23437,-0.0312 0.14063,-0.0156 0.35938,-0.0156 0.21875,0 0.35937,0.0156 0.14063,0 0.21875,0.0312 0.0937,0.0312 0.125,0.0937 0.0312,0.0469 0.0625,0.125 l 1.95313,6.78125 0.0156,0.0781 0.0156,-0.0781 1.9375,-6.76562 q 0.0312,-0.0781 0.0625,-0.14063 0.0469,-0.0625 0.125,-0.0937 0.0937,-0.0312 0.23437,-0.0312 0.15625,-0.0156 0.39063,-0.0156 0.21875,0 0.34375,0.0156 0.14062,0 0.21875,0.0312 0.0781,0.0312 0.10937,0.0781 0.0312,0.0469 0.0312,0.14062 z m 3.36756,8.20313 q 0,0.0781 -0.0312,0.14062 -0.0312,0.0469 -0.125,0.0781 -0.0781,0.0312 -0.21875,0.0469 -0.14063,0.0156 -0.375,0.0156 -0.21875,0 -0.375,-0.0156 -0.14063,-0.0156 -0.23438,-0.0469 -0.0781,-0.0312 -0.10937,-0.0781 -0.0312,-0.0625 -0.0312,-0.14062 v -8.1875 q 0,-0.0625 0.0312,-0.10938 0.0312,-0.0625 0.10937,-0.0937 0.0937,-0.0469 0.23438,-0.0625 0.15625,-0.0156 0.375,-0.0156 0.23437,0 0.375,0.0156 0.14062,0.0156 0.21875,0.0625 0.0937,0.0312 0.125,0.0937 0.0312,0.0469 0.0312,0.10938 z m 0.17187,-10.96875 q 0,0.53125 -0.20312,0.73437 -0.1875,0.1875 -0.73438,0.1875 -0.51562,0 -0.71875,-0.1875 -0.1875,-0.1875 -0.1875,-0.70312 0,-0.53125 0.1875,-0.71875 0.20313,-0.20313 0.75,-0.20313 0.51563,0 0.70313,0.1875 0.20312,0.1875 0.20312,0.70313 z m 7.4065,3.3125 q 0,0.20312 -0.0156,0.34375 0,0.125 -0.0312,0.20312 -0.0312,0.0781 -0.0781,0.125 -0.0312,0.0469 -0.10938,0.0469 -0.0625,0 -0.17187,-0.0469 -0.10938,-0.0469 -0.25,-0.0781 -0.125,-0.0469 -0.29688,-0.0781 -0.15625,-0.0469 -0.34375,-0.0469 -0.21875,0 -0.4375,0.0937 -0.21875,0.0937 -0.46875,0.3125 -0.23437,0.20312 -0.5,0.54687 -0.26562,0.34375 -0.59375,0.84375 v 5.39063 q 0,0.0781 -0.0312,0.14062 -0.0312,0.0469 -0.125,0.0781 -0.0781,0.0312 -0.21875,0.0469 -0.14062,0.0156 -0.375,0.0156 -0.21875,0 -0.375,-0.0156 -0.14062,-0.0156 -0.23437,-0.0469 -0.0781,-0.0312 -0.10938,-0.0781 -0.0312,-0.0625 -0.0312,-0.14062 v -8.1875 q 0,-0.0781 0.0312,-0.125 0.0312,-0.0469 0.10938,-0.0937 0.0781,-0.0469 0.20312,-0.0469 0.14063,-0.0156 0.34375,-0.0156 0.20313,0 0.32813,0.0156 0.14062,0 0.20312,0.0469 0.0781,0.0469 0.10938,0.0937 0.0312,0.0469 0.0312,0.125 v 1.1875 q 0.34375,-0.48438 0.64062,-0.79688 0.29688,-0.3125 0.54688,-0.48437 0.26562,-0.1875 0.53125,-0.25 0.26562,-0.0781 0.51562,-0.0781 0.125,0 0.26563,0.0156 0.15625,0.0156 0.3125,0.0625 0.17187,0.0312 0.29687,0.0781 0.14063,0.0469 0.1875,0.0937 0.0625,0.0469 0.0781,0.0937 0.0312,0.0312 0.0312,0.0937 0.0156,0.0625 0.0156,0.1875 0.0156,0.125 0.0156,0.32813 z m 29.82702,7.65625 q 0,0.0781 -0.0312,0.14062 -0.0312,0.0469 -0.10937,0.0781 -0.0781,0.0312 -0.21875,0.0469 -0.125,0.0156 -0.29688,0.0156 -0.20312,0 -0.32812,-0.0156 -0.125,-0.0156 -0.20313,-0.0469 -0.0781,-0.0312 -0.125,-0.0781 -0.0312,-0.0625 -0.0312,-0.14062 v -1.07813 q -0.64062,0.70313 -1.34375,1.09375 -0.70312,0.39063 -1.53125,0.39063 -0.89062,0 -1.53125,-0.34375 -0.64062,-0.35938 -1.04687,-0.95313 -0.39063,-0.59375 -0.57813,-1.39062 -0.17187,-0.8125 -0.17187,-1.71875 0,-1.04688 0.21875,-1.89063 0.23437,-0.85937 0.67187,-1.45312 0.45313,-0.60938 1.10938,-0.9375 0.67187,-0.32813 1.53125,-0.32813 0.71875,0 1.3125,0.32813 0.60937,0.3125 1.1875,0.92187 v -4.76562 q 0,-0.0625 0.0312,-0.125 0.0312,-0.0625 0.125,-0.0937 0.0937,-0.0312 0.23437,-0.0469 0.14063,-0.0312 0.35938,-0.0312 0.21875,0 0.35937,0.0312 0.15625,0.0156 0.23438,0.0469 0.0781,0.0312 0.125,0.0937 0.0469,0.0625 0.0469,0.125 z m -1.51562,-5.76563 q -0.60938,-0.75 -1.1875,-1.14062 -0.5625,-0.40625 -1.1875,-0.40625 -0.5625,0 -0.96875,0.28125 -0.40625,0.26562 -0.65625,0.71875 -0.25,0.4375 -0.35938,1.01562 -0.10937,0.5625 -0.10937,1.14063 0,0.625 0.0937,1.21875 0.0937,0.57812 0.32812,1.04687 0.23438,0.45313 0.625,0.73438 0.39063,0.28125 0.98438,0.28125 0.29687,0 0.57812,-0.0781 0.28125,-0.0937 0.5625,-0.28125 0.29688,-0.1875 0.60938,-0.48437 0.32812,-0.3125 0.6875,-0.76563 z m 5.78619,5.76563 q 0,0.0781 -0.0312,0.14062 -0.0312,0.0469 -0.125,0.0781 -0.0781,0.0312 -0.21875,0.0469 -0.14062,0.0156 -0.375,0.0156 -0.21875,0 -0.375,-0.0156 -0.14062,-0.0156 -0.23437,-0.0469 -0.0781,-0.0312 -0.10938,-0.0781 -0.0312,-0.0625 -0.0312,-0.14062 v -8.1875 q 0,-0.0625 0.0312,-0.10938 0.0312,-0.0625 0.10938,-0.0937 0.0937,-0.0469 0.23437,-0.0625 0.15625,-0.0156 0.375,-0.0156 0.23438,0 0.375,0.0156 0.14063,0.0156 0.21875,0.0625 0.0937,0.0312 0.125,0.0937 0.0312,0.0469 0.0312,0.10938 z m 0.17188,-10.96875 q 0,0.53125 -0.20313,0.73437 -0.1875,0.1875 -0.73437,0.1875 -0.51563,0 -0.71875,-0.1875 -0.1875,-0.1875 -0.1875,-0.70312 0,-0.53125 0.1875,-0.71875 0.20312,-0.20313 0.75,-0.20313 0.51562,0 0.70312,0.1875 0.20313,0.1875 0.20313,0.70313 z m 9.60955,6.51562 q 0,0.35938 -0.1875,0.51563 -0.17187,0.14062 -0.39062,0.14062 h -5.375 q 0,0.6875 0.125,1.23438 0.14062,0.54687 0.45312,0.9375 0.32813,0.39062 0.82813,0.60937 0.51562,0.20313 1.25,0.20313 0.59375,0 1.04687,-0.0937 0.45313,-0.0937 0.78125,-0.20313 0.34375,-0.125 0.54688,-0.21875 0.21875,-0.10937 0.32812,-0.10937 0.0625,0 0.10938,0.0312 0.0625,0.0312 0.0781,0.10937 0.0312,0.0625 0.0469,0.17188 0.0156,0.10937 0.0156,0.28125 0,0.10937 -0.0156,0.20312 0,0.0781 -0.0156,0.15625 -0.0156,0.0625 -0.0469,0.125 -0.0312,0.0469 -0.0937,0.0937 -0.0469,0.0469 -0.29688,0.17188 -0.23437,0.10937 -0.625,0.21875 -0.39062,0.10937 -0.90625,0.1875 -0.51562,0.0937 -1.09375,0.0937 -1.01562,0 -1.78125,-0.28125 -0.76562,-0.28125 -1.28125,-0.82813 -0.51562,-0.5625 -0.78125,-1.39062 -0.26562,-0.84375 -0.26562,-1.96875 0,-1.04688 0.26562,-1.89063 0.28125,-0.84375 0.79688,-1.42187 0.51562,-0.59375 1.23437,-0.90625 0.73438,-0.32813 1.64063,-0.32813 0.96875,0 1.64062,0.3125 0.6875,0.3125 1.125,0.84375 0.4375,0.51563 0.64063,1.23438 0.20312,0.70312 0.20312,1.5 z m -1.51562,-0.4375 q 0.0312,-1.1875 -0.53125,-1.85937 -0.54688,-0.67188 -1.625,-0.67188 -0.5625,0 -0.98438,0.21875 -0.40625,0.20313 -0.6875,0.54688 -0.28125,0.34375 -0.4375,0.8125 -0.15625,0.45312 -0.17187,0.95312 z m 8.95447,2.67188 q 0,0.625 -0.23438,1.125 -0.23437,0.48437 -0.67187,0.82812 -0.42188,0.32813 -1.01563,0.5 -0.59375,0.17188 -1.29687,0.17188 -0.4375,0 -0.84375,-0.0781 -0.39063,-0.0625 -0.70313,-0.15625 -0.3125,-0.10937 -0.53125,-0.21875 -0.21875,-0.125 -0.32812,-0.20312 -0.0937,-0.0937 -0.14063,-0.25 -0.0469,-0.17188 -0.0469,-0.45313 0,-0.17187 0.0156,-0.29687 0.0312,-0.125 0.0469,-0.1875 0.0312,-0.0781 0.0781,-0.10938 0.0469,-0.0312 0.125,-0.0312 0.0937,0 0.28125,0.125 0.20313,0.125 0.48438,0.26563 0.29687,0.14062 0.6875,0.26562 0.39062,0.125 0.90625,0.125 0.375,0 0.6875,-0.0781 0.3125,-0.0781 0.53125,-0.23438 0.23437,-0.17187 0.35937,-0.40625 0.125,-0.25 0.125,-0.59375 0,-0.34375 -0.1875,-0.57812 -0.17187,-0.23438 -0.46875,-0.42188 -0.28125,-0.1875 -0.65625,-0.32812 -0.35937,-0.14063 -0.75,-0.29688 -0.39062,-0.15625 -0.76562,-0.34375 -0.35938,-0.20312 -0.65625,-0.48437 -0.28125,-0.28125 -0.46875,-0.67188 -0.17188,-0.39062 -0.17188,-0.9375 0,-0.48437 0.1875,-0.92187 0.1875,-0.4375 0.5625,-0.76563 0.375,-0.34375 0.92188,-0.54687 0.5625,-0.20313 1.3125,-0.20313 0.32812,0 0.65625,0.0625 0.32812,0.0469 0.59375,0.14063 0.26562,0.0781 0.45312,0.17187 0.1875,0.0937 0.28125,0.17188 0.0937,0.0781 0.125,0.14062 0.0312,0.0469 0.0469,0.10938 0.0156,0.0625 0.0312,0.17187 0.0156,0.0937 0.0156,0.23438 0,0.15625 -0.0156,0.28125 -0.0156,0.10937 -0.0469,0.1875 -0.0312,0.0625 -0.0781,0.0937 -0.0469,0.0312 -0.0937,0.0312 -0.0937,0 -0.25,-0.0937 -0.14063,-0.0937 -0.39063,-0.20313 -0.25,-0.125 -0.57812,-0.21875 -0.32813,-0.10937 -0.76563,-0.10937 -0.375,0 -0.67187,0.0937 -0.29688,0.0781 -0.48438,0.25 -0.1875,0.15625 -0.28125,0.375 -0.0937,0.21875 -0.0937,0.46875 0,0.35937 0.17188,0.60937 0.1875,0.23438 0.48437,0.42188 0.29688,0.17187 0.67188,0.32812 0.375,0.14063 0.75,0.29688 0.39062,0.14062 0.76562,0.34375 0.39063,0.1875 0.67188,0.46875 0.29687,0.26562 0.46875,0.65625 0.1875,0.375 0.1875,0.90625 z m 9.14044,-2.23438 q 0,0.35938 -0.1875,0.51563 -0.17188,0.14062 -0.39063,0.14062 h -5.375 q 0,0.6875 0.125,1.23438 0.14063,0.54687 0.45313,0.9375 0.32812,0.39062 0.82812,0.60937 0.51563,0.20313 1.25,0.20313 0.59375,0 1.04688,-0.0937 0.45312,-0.0937 0.78125,-0.20313 0.34375,-0.125 0.54687,-0.21875 0.21875,-0.10937 0.32813,-0.10937 0.0625,0 0.10937,0.0312 0.0625,0.0312 0.0781,0.10937 0.0312,0.0625 0.0469,0.17188 0.0156,0.10937 0.0156,0.28125 0,0.10937 -0.0156,0.20312 0,0.0781 -0.0156,0.15625 -0.0156,0.0625 -0.0469,0.125 -0.0312,0.0469 -0.0937,0.0937 -0.0469,0.0469 -0.29687,0.17188 -0.23438,0.10937 -0.625,0.21875 -0.39063,0.10937 -0.90625,0.1875 -0.51563,0.0937 -1.09375,0.0937 -1.01563,0 -1.78125,-0.28125 -0.76563,-0.28125 -1.28125,-0.82813 -0.51563,-0.5625 -0.78125,-1.39062 -0.26563,-0.84375 -0.26563,-1.96875 0,-1.04688 0.26563,-1.89063 0.28125,-0.84375 0.79687,-1.42187 0.51563,-0.59375 1.23438,-0.90625 0.73437,-0.32813 1.64062,-0.32813 0.96875,0 1.64063,0.3125 0.6875,0.3125 1.125,0.84375 0.4375,0.51563 0.64062,1.23438 0.20313,0.70312 0.20313,1.5 z m -1.51563,-0.4375 q 0.0312,-1.1875 -0.53125,-1.85937 -0.54687,-0.67188 -1.625,-0.67188 -0.5625,0 -0.98437,0.21875 -0.40625,0.20313 -0.6875,0.54688 -0.28125,0.34375 -0.4375,0.8125 -0.15625,0.45312 -0.17188,0.95312 z m 10.86072,4.89063 q 0,0.0781 -0.0469,0.14062 -0.0312,0.0469 -0.10938,0.0781 -0.0781,0.0312 -0.23437,0.0469 -0.14063,0.0156 -0.35938,0.0156 -0.21875,0 -0.375,-0.0156 -0.14062,-0.0156 -0.23437,-0.0469 -0.0781,-0.0312 -0.10938,-0.0781 -0.0312,-0.0625 -0.0312,-0.14062 v -4.79688 q 0,-0.70312 -0.10937,-1.125 -0.10938,-0.4375 -0.32813,-0.73437 -0.20312,-0.3125 -0.54687,-0.46875 -0.32813,-0.17188 -0.76563,-0.17188 -0.5625,0 -1.125,0.40625 -0.5625,0.39063 -1.1875,1.17188 v 5.71875 q 0,0.0781 -0.0312,0.14062 -0.0312,0.0469 -0.125,0.0781 -0.0781,0.0312 -0.21875,0.0469 -0.14062,0.0156 -0.375,0.0156 -0.21875,0 -0.375,-0.0156 -0.14062,-0.0156 -0.23437,-0.0469 -0.0781,-0.0312 -0.10938,-0.0781 -0.0312,-0.0625 -0.0312,-0.14062 v -8.1875 q 0,-0.0781 0.0312,-0.125 0.0312,-0.0469 0.10938,-0.0937 0.0781,-0.0469 0.20312,-0.0469 0.14063,-0.0156 0.34375,-0.0156 0.20313,0 0.32813,0.0156 0.14062,0 0.20312,0.0469 0.0781,0.0469 0.10938,0.0937 0.0312,0.0469 0.0312,0.125 v 1.07812 q 0.6875,-0.76562 1.375,-1.125 0.6875,-0.375 1.39062,-0.375 0.82813,0 1.375,0.28125 0.5625,0.28125 0.90625,0.75 0.35938,0.46875 0.5,1.09375 0.15625,0.60938 0.15625,1.48438 z m 26.11011,-3.07813 q 0,0.82813 -0.3125,1.48438 -0.29688,0.64062 -0.84375,1.09375 -0.53125,0.45312 -1.26563,0.6875 -0.73437,0.21875 -1.57812,0.21875 -0.59375,0 -1.10938,-0.10938 -0.5,-0.0937 -0.89062,-0.23437 -0.39063,-0.14063 -0.67188,-0.29688 -0.26562,-0.15625 -0.375,-0.26562 -0.0937,-0.10938 -0.15625,-0.28125 -0.0469,-0.17188 -0.0469,-0.45313 0,-0.20312 0.0156,-0.32812 0.0312,-0.14063 0.0625,-0.21875 0.0312,-0.0781 0.0781,-0.10938 0.0625,-0.0312 0.14062,-0.0312 0.125,0 0.35938,0.15625 0.23437,0.15625 0.59375,0.34375 0.375,0.17188 0.875,0.32813 0.51562,0.15625 1.20312,0.15625 0.5,0 0.92188,-0.125 0.42187,-0.14063 0.73437,-0.39063 0.3125,-0.25 0.46875,-0.60937 0.17188,-0.375 0.17188,-0.84375 0,-0.5 -0.23438,-0.84375 -0.23437,-0.35938 -0.60937,-0.625 -0.35938,-0.26563 -0.84375,-0.48438 -0.48438,-0.23437 -0.98438,-0.46875 -0.5,-0.23437 -0.96875,-0.51562 -0.46875,-0.28125 -0.84375,-0.65625 -0.375,-0.39063 -0.60937,-0.90625 -0.23438,-0.51563 -0.23438,-1.23438 0,-0.73437 0.26563,-1.3125 0.26562,-0.57812 0.75,-0.96875 0.48437,-0.39062 1.14062,-0.59375 0.65625,-0.20312 1.42188,-0.20312 0.39062,0 0.78125,0.0625 0.40625,0.0625 0.75,0.1875 0.35937,0.10937 0.625,0.25 0.28125,0.14062 0.35937,0.23437 0.0937,0.0781 0.10938,0.125 0.0312,0.0469 0.0469,0.125 0.0312,0.0781 0.0312,0.1875 0.0156,0.10938 0.0156,0.28125 0,0.17188 -0.0156,0.29688 -0.0156,0.125 -0.0469,0.21875 -0.0156,0.0781 -0.0781,0.125 -0.0469,0.0469 -0.10937,0.0469 -0.0937,0 -0.3125,-0.125 -0.21875,-0.14062 -0.53125,-0.29687 -0.29688,-0.15625 -0.73438,-0.28125 -0.42187,-0.14063 -0.9375,-0.14063 -0.5,0 -0.85937,0.14063 -0.35938,0.125 -0.60938,0.34375 -0.23437,0.21875 -0.35937,0.51562 -0.10938,0.29688 -0.10938,0.64063 0,0.48437 0.21875,0.84375 0.23438,0.35937 0.60938,0.64062 0.39062,0.26563 0.85937,0.5 0.48438,0.21875 0.98438,0.45313 0.51562,0.23437 0.98437,0.51562 0.48438,0.26563 0.85938,0.65625 0.39062,0.375 0.60937,0.89063 0.23438,0.5 0.23438,1.20312 z m 8.2439,3.09375 q 0,0.10938 -0.0781,0.17188 -0.0625,0.0469 -0.1875,0.0625 -0.125,0.0312 -0.375,0.0312 -0.23437,0 -0.375,-0.0312 -0.14062,-0.0156 -0.20312,-0.0625 -0.0625,-0.0625 -0.0625,-0.17188 v -0.8125 q -0.54688,0.5625 -1.20313,0.89063 -0.65625,0.3125 -1.39062,0.3125 -0.65625,0 -1.1875,-0.17188 -0.51563,-0.15625 -0.89063,-0.46875 -0.35937,-0.32812 -0.5625,-0.79687 -0.20312,-0.46875 -0.20312,-1.0625 0,-0.6875 0.28125,-1.1875 0.28125,-0.51563 0.79687,-0.84375 0.53125,-0.34375 1.29688,-0.51563 0.76562,-0.17187 1.73437,-0.17187 h 1.125 v -0.64063 q 0,-0.46875 -0.10937,-0.82812 -0.0937,-0.375 -0.32813,-0.60938 -0.21875,-0.25 -0.57812,-0.35937 -0.34375,-0.125 -0.85938,-0.125 -0.5625,0 -1,0.14062 -0.4375,0.125 -0.78125,0.28125 -0.32812,0.15625 -0.54687,0.29688 -0.21875,0.125 -0.32813,0.125 -0.0781,0 -0.14062,-0.0312 -0.0469,-0.0469 -0.0937,-0.10938 -0.0312,-0.0781 -0.0625,-0.1875 -0.0156,-0.125 -0.0156,-0.25 0,-0.23437 0.0312,-0.35937 0.0312,-0.14063 0.15625,-0.25 0.125,-0.125 0.42188,-0.28125 0.3125,-0.17188 0.70312,-0.29688 0.39063,-0.125 0.84375,-0.21875 0.46875,-0.0937 0.95313,-0.0937 0.875,0 1.48437,0.20313 0.625,0.20312 1,0.59375 0.39063,0.39062 0.5625,0.96875 0.17188,0.5625 0.17188,1.32812 z m -1.48438,-3.75 h -1.28125 q -0.625,0 -1.07812,0.10938 -0.45313,0.10937 -0.76563,0.3125 -0.29687,0.20312 -0.4375,0.5 -0.14062,0.28125 -0.14062,0.65625 0,0.625 0.40625,1.01562 0.40625,0.375 1.14062,0.375 0.59375,0 1.09375,-0.29687 0.5,-0.3125 1.0625,-0.92188 z m 8.51453,3.14063 q 0,0.26562 -0.0469,0.42187 -0.0312,0.15625 -0.10937,0.23438 -0.0625,0.0625 -0.21875,0.125 -0.14063,0.0625 -0.32813,0.0937 -0.1875,0.0469 -0.39062,0.0781 -0.20313,0.0312 -0.42188,0.0312 -0.64062,0 -1.09375,-0.17187 -0.45312,-0.17188 -0.75,-0.5 -0.28125,-0.34375 -0.42187,-0.85938 -0.125,-0.53125 -0.125,-1.25 v -4.79687 h -1.15625 q -0.125,0 -0.21875,-0.14063 -0.0781,-0.14062 -0.0781,-0.46875 0,-0.17187 0.0156,-0.28125 0.0312,-0.125 0.0625,-0.20312 0.0469,-0.0781 0.0937,-0.10938 0.0625,-0.0312 0.14062,-0.0312 h 1.14063 v -1.95312 q 0,-0.0625 0.0312,-0.10938 0.0312,-0.0625 0.10937,-0.10937 0.0937,-0.0469 0.23438,-0.0625 0.15625,-0.0156 0.375,-0.0156 0.21875,0 0.35937,0.0156 0.15625,0.0156 0.23438,0.0625 0.0781,0.0469 0.10937,0.10937 0.0469,0.0469 0.0469,0.10938 v 1.95312 h 2.10937 q 0.0625,0 0.10938,0.0312 0.0625,0.0312 0.10937,0.10938 0.0469,0.0781 0.0625,0.20312 0.0156,0.10938 0.0156,0.28125 0,0.32813 -0.0781,0.46875 -0.0781,0.14063 -0.21875,0.14063 h -2.10937 v 4.57812 q 0,0.84375 0.25,1.28125 0.25,0.4375 0.90625,0.4375 0.20312,0 0.35937,-0.0469 0.17188,-0.0469 0.29688,-0.0781 0.125,-0.0469 0.21875,-0.0937 0.0937,-0.0469 0.17187,-0.0469 0.0469,0 0.0781,0.0312 0.0469,0.0156 0.0625,0.0781 0.0312,0.0625 0.0469,0.17188 0.0156,0.10937 0.0156,0.28125 z m 7.21789,0.1875 q 0,0.17187 -0.0312,0.29687 -0.0312,0.125 -0.0625,0.20313 -0.0312,0.0781 -0.0937,0.10937 -0.0625,0.0312 -0.14062,0.0312 h -5.04688 q -0.1875,0 -0.3125,-0.125 -0.125,-0.125 -0.125,-0.4375 v -0.29687 q 0,-0.14063 0.0156,-0.23438 0.0156,-0.0937 0.0469,-0.1875 0.0469,-0.10937 0.10938,-0.21875 0.0625,-0.125 0.15625,-0.26562 l 3.60937,-5.625 h -3.5 q -0.14062,0 -0.23437,-0.15625 -0.0937,-0.15625 -0.0937,-0.48438 0,-0.17187 0.0156,-0.28125 0.0312,-0.125 0.0625,-0.20312 0.0469,-0.0781 0.10938,-0.10938 0.0625,-0.0312 0.14062,-0.0312 h 4.70313 q 0.0937,0 0.17187,0.0312 0.0781,0.0156 0.125,0.0781 0.0625,0.0625 0.0937,0.17187 0.0312,0.0937 0.0312,0.25 v 0.29688 q 0,0.125 -0.0156,0.23437 -0.0156,0.10938 -0.0625,0.21875 -0.0312,0.0937 -0.0937,0.21875 -0.0625,0.10938 -0.15625,0.26563 l -3.59375,5.625 h 3.84375 q 0.0781,0 0.125,0.0312 0.0625,0.0312 0.0937,0.10937 0.0469,0.0625 0.0781,0.1875 0.0312,0.125 0.0312,0.29688 z"
         inkscape:connector-curvature="0"
         style="fill:#000000;fill-rule:nonzero" />
      <path
         id="path531"
         d="m 736.0349,206.0837 q 0,0.21875 -0.0312,0.35937 -0.0156,0.14063 -0.0625,0.20313 -0.0312,0.0625 -0.10938,0.0625 -0.0625,-0.0156 -0.17187,-0.0781 l -7.17188,-3.625 q -0.0937,-0.0469 -0.15625,-0.21875 -0.0469,-0.17187 -0.0469,-0.5 0,-0.14062 0.0156,-0.26562 0.0156,-0.14063 0.0469,-0.21875 0.0312,-0.0781 0.0625,-0.14063 0.0469,-0.0625 0.10937,-0.0781 l 7.14063,-3.60938 q 0.21875,-0.0937 0.29687,0.0156 0.0781,0.10937 0.0781,0.53125 0,0.26562 -0.0156,0.42187 -0.0156,0.15625 -0.0469,0.25 -0.0312,0.0937 -0.0937,0.15625 -0.0625,0.0469 -0.17188,0.0937 l -5.85937,2.875 5.82812,2.82813 q 0.125,0.0625 0.1875,0.10937 0.0625,0.0469 0.0937,0.14063 0.0469,0.0937 0.0625,0.26562 0.0156,0.15625 0.0156,0.42188 z m 9.04169,0.82812 q 0,0.15625 -0.0156,0.28125 -0.0156,0.125 -0.0625,0.20313 -0.0469,0.0781 -0.10937,0.125 -0.0625,0.0312 -0.125,0.0312 h -5.65625 q -0.21875,0 -0.40625,-0.14063 -0.1875,-0.14062 -0.1875,-0.5 V 196.3962 q 0,-0.34375 0.1875,-0.48438 0.1875,-0.14062 0.40625,-0.14062 h 5.59375 q 0.0625,0 0.125,0.0312 0.0625,0.0312 0.0937,0.125 0.0312,0.0781 0.0469,0.20312 0.0312,0.10938 0.0312,0.29688 0,0.17187 -0.0312,0.29687 -0.0156,0.10938 -0.0469,0.1875 -0.0312,0.0781 -0.0937,0.125 -0.0625,0.0312 -0.125,0.0312 h -4.60938 v 3.70313 h 3.95313 q 0.0625,0 0.125,0.0469 0.0625,0.0312 0.0937,0.10938 0.0469,0.0625 0.0625,0.20312 0.0156,0.125 0.0156,0.29688 0,0.15625 -0.0156,0.28125 -0.0156,0.10937 -0.0625,0.1875 -0.0312,0.0781 -0.0937,0.10937 -0.0625,0.0312 -0.125,0.0312 h -3.95313 v 4.21875 h 4.67188 q 0.0625,0 0.125,0.0312 0.0625,0.0312 0.10937,0.10938 0.0469,0.0781 0.0625,0.20312 0.0156,0.125 0.0156,0.3125 z m 11.45324,0 q 0,0.17188 -0.0625,0.3125 -0.0469,0.125 -0.14062,0.20313 -0.0937,0.0781 -0.21875,0.125 -0.125,0.0312 -0.23438,0.0312 h -0.5 q -0.23437,0 -0.42187,-0.0469 -0.17188,-0.0625 -0.32813,-0.1875 -0.15625,-0.14062 -0.32812,-0.35937 -0.15625,-0.23438 -0.34375,-0.57813 l -3.71875,-6.71875 q -0.29688,-0.51562 -0.59375,-1.07812 -0.29688,-0.57813 -0.54688,-1.10938 h -0.0156 q 0.0156,0.65625 0.0156,1.34375 0.0156,0.67188 0.0156,1.35938 v 7.10937 q 0,0.0625 -0.0312,0.125 -0.0312,0.0625 -0.125,0.0937 -0.0781,0.0312 -0.23438,0.0469 -0.14062,0.0156 -0.34375,0.0156 -0.21875,0 -0.375,-0.0156 -0.14062,-0.0156 -0.21875,-0.0469 -0.0781,-0.0312 -0.125,-0.0937 -0.0312,-0.0625 -0.0312,-0.125 v -10.875 q 0,-0.375 0.20313,-0.51562 0.20312,-0.15625 0.4375,-0.15625 h 0.75 q 0.26562,0 0.4375,0.0469 0.1875,0.0312 0.32812,0.14063 0.14063,0.10937 0.26563,0.29687 0.14062,0.1875 0.28125,0.46875 l 2.85937,5.17188 q 0.26563,0.46875 0.51563,0.92187 0.25,0.45313 0.46875,0.89063 0.23437,0.4375 0.45312,0.85937 0.23438,0.42188 0.45313,0.85938 v 0 q -0.0156,-0.71875 -0.0312,-1.5 0,-0.78125 0,-1.5 v -6.40625 q 0,-0.0625 0.0312,-0.10938 0.0469,-0.0625 0.125,-0.0937 0.0937,-0.0469 0.23437,-0.0625 0.14063,-0.0156 0.375,-0.0156 0.20313,0 0.34375,0.0156 0.14063,0.0156 0.21875,0.0625 0.0937,0.0312 0.125,0.0937 0.0312,0.0469 0.0312,0.10938 z m 12.19904,-5.42187 q 0,1.53125 -0.39062,2.67187 -0.39063,1.14063 -1.14063,1.89063 -0.75,0.75 -1.84375,1.125 -1.09375,0.375 -2.60937,0.375 h -2.48438 q -0.21875,0 -0.40625,-0.14063 -0.1875,-0.14062 -0.1875,-0.5 V 196.3962 q 0,-0.34375 0.1875,-0.48438 0.1875,-0.14062 0.40625,-0.14062 h 2.65625 q 1.53125,0 2.59375,0.39062 1.0625,0.39063 1.76563,1.14063 0.71875,0.73437 1.07812,1.79687 0.375,1.0625 0.375,2.39063 z m -1.64062,0.0625 q 0,-0.95313 -0.23438,-1.78125 -0.23437,-0.82813 -0.75,-1.42188 -0.5,-0.60937 -1.28125,-0.9375 -0.76562,-0.34375 -1.98437,-0.34375 h -1.59375 v 9.17188 h 1.60937 q 1.125,0 1.89063,-0.28125 0.78125,-0.28125 1.29687,-0.85938 0.53125,-0.59375 0.78125,-1.46875 0.26563,-0.875 0.26563,-2.07812 z m 11.16546,0.76562 q 0,0.15625 -0.0156,0.28125 -0.0156,0.125 -0.0469,0.21875 -0.0312,0.0937 -0.0781,0.14063 -0.0469,0.0469 -0.0937,0.0781 l -7.15625,3.60938 q -0.0937,0.0469 -0.17188,0.0469 -0.0781,0 -0.125,-0.0625 -0.0312,-0.0625 -0.0469,-0.1875 -0.0156,-0.14062 -0.0156,-0.34375 0,-0.26562 0,-0.40625 0.0156,-0.15625 0.0469,-0.25 0.0312,-0.10937 0.0937,-0.15625 0.0625,-0.0625 0.17187,-0.10937 l 5.875,-2.875 -5.84375,-2.82813 q -0.125,-0.0469 -0.1875,-0.0937 -0.0625,-0.0469 -0.10937,-0.14062 -0.0312,-0.10938 -0.0469,-0.26563 0,-0.17187 0,-0.4375 0,-0.23437 0.0156,-0.35937 0.0156,-0.14063 0.0469,-0.1875 0.0469,-0.0625 0.125,-0.0469 0.0781,0 0.17188,0.0469 l 7.1875,3.625 q 0.0781,0.0469 0.14062,0.23437 0.0625,0.17188 0.0625,0.46875 z"
         inkscape:connector-curvature="0"
         style="fill:#000000;fill-rule:nonzero" />
    </g>
  </g>
</svg>
