<?xml version="1.0" encoding="UTF-8"?><svg xmlns="http://www.w3.org/2000/svg" xmlns:xlink="http://www.w3.org/1999/xlink" fill-opacity="1" color-rendering="auto" color-interpolation="auto" text-rendering="auto" stroke="black" stroke-linecap="square" width="151" stroke-miterlimit="10" shape-rendering="auto" stroke-opacity="1" fill="black" stroke-dasharray="none" font-weight="normal" stroke-width="1" height="131" font-family="'Dialog'" font-style="normal" stroke-linejoin="miter" font-size="12px" stroke-dashoffset="0" image-rendering="auto">
  <!--Generated by ySVG 2.5-->
  <defs id="genericDefs"/>
  <g>
    <defs id="defs1">
      <clipPath clipPathUnits="userSpaceOnUse" id="clipPath1">
        <path d="M0 0 L151 0 L151 131 L0 131 L0 0 Z"/>
      </clipPath>
      <clipPath clipPathUnits="userSpaceOnUse" id="clipPath2">
        <path d="M825 405 L976 405 L976 536 L825 536 L825 405 Z"/>
      </clipPath>
      <clipPath clipPathUnits="userSpaceOnUse" id="clipPath3">
        <path d="M0 0 L0 20 L15 20 L15 0 Z"/>
      </clipPath>
    </defs>
    <g fill="white" text-rendering="geometricPrecision" shape-rendering="geometricPrecision" transform="translate(-825,-405)" stroke="white">
      <rect x="825" width="151" height="131" y="405" clip-path="url(#clipPath2)" stroke="none"/>
    </g>
    <g text-rendering="geometricPrecision" stroke-miterlimit="1.45" shape-rendering="geometricPrecision" transform="matrix(1,0,0,1,-825,-405)" stroke-linecap="butt">
      <rect fill="none" x="825" width="30" height="30" y="435" clip-path="url(#clipPath2)"/>
    </g>
    <g text-rendering="geometricPrecision" stroke-miterlimit="1.45" shape-rendering="geometricPrecision" font-family="sans-serif" transform="matrix(1,0,0,1,-825,-405) translate(832,440)" stroke-linecap="butt">
      <text x="0" xml:space="preserve" y="12" clip-path="url(#clipPath3)" stroke="none">X</text>
      <text x="9" xml:space="preserve" font-size="10px" y="17" clip-path="url(#clipPath3)" stroke="none">0</text>
    </g>
    <g text-rendering="geometricPrecision" stroke-miterlimit="1.45" shape-rendering="geometricPrecision" transform="matrix(1,0,0,1,-825,-405)" stroke-linecap="butt">
      <rect fill="none" x="825" width="30" height="30" y="495" clip-path="url(#clipPath2)"/>
    </g>
    <g text-rendering="geometricPrecision" stroke-miterlimit="1.45" shape-rendering="geometricPrecision" font-family="sans-serif" transform="matrix(1,0,0,1,-825,-405) translate(832,500)" stroke-linecap="butt">
      <text x="0" xml:space="preserve" y="12" clip-path="url(#clipPath3)" stroke="none">X</text>
      <text x="9" xml:space="preserve" font-size="10px" y="17" clip-path="url(#clipPath3)" stroke="none">1</text>
    </g>
    <g text-rendering="geometricPrecision" stroke-miterlimit="1.45" shape-rendering="geometricPrecision" transform="matrix(1,0,0,1,-825,-405)" stroke-linecap="butt">
      <circle fill="none" r="15" clip-path="url(#clipPath2)" cx="960" cy="480"/>
      <text x="956.335" xml:space="preserve" y="484.1543" clip-path="url(#clipPath2)" font-family="sans-serif" stroke="none">Y</text>
      <rect fill="none" x="945" width="30" height="30" y="405" clip-path="url(#clipPath2)"/>
      <text x="956.1826" xml:space="preserve" y="424.1543" clip-path="url(#clipPath2)" font-family="sans-serif" stroke="none">1</text>
      <path fill="none" d="M855 453.75 L937.6867 474.4217" clip-path="url(#clipPath2)"/>
      <path d="M945.4479 476.362 L935.0189 468.6009 L936.7166 474.1792 L932.5935 478.3023 Z" clip-path="url(#clipPath2)" stroke="none"/>
    </g>
    <g text-rendering="geometricPrecision" stroke-miterlimit="1.45" shape-rendering="geometricPrecision" font-family="sans-serif" transform="matrix(1,0,0,1,-825,-405) translate(903,426)" stroke-linecap="butt">
      <text x="0" xml:space="preserve" y="12" clip-path="url(#clipPath3)" stroke="none">w</text>
      <text x="9" xml:space="preserve" font-size="10px" y="17" clip-path="url(#clipPath3)" stroke="none">0</text>
    </g>
    <g text-rendering="geometricPrecision" stroke-miterlimit="1.45" shape-rendering="geometricPrecision" transform="matrix(1,0,0,1,-825,-405)" stroke-linecap="butt">
      <path fill="none" d="M855 506.25 L937.6867 485.5783" clip-path="url(#clipPath2)"/>
      <path d="M945.4479 483.638 L932.5935 481.6977 L936.7166 485.8208 L935.0189 491.3991 Z" clip-path="url(#clipPath2)" stroke="none"/>
    </g>
    <g text-rendering="geometricPrecision" stroke-miterlimit="1.45" shape-rendering="geometricPrecision" font-family="sans-serif" transform="matrix(1,0,0,1,-825,-405) translate(903,513)" stroke-linecap="butt">
      <text x="0" xml:space="preserve" y="12" clip-path="url(#clipPath3)" stroke="none">w</text>
      <text x="9" xml:space="preserve" font-size="10px" y="17" clip-path="url(#clipPath3)" stroke="none">1</text>
    </g>
    <g text-rendering="geometricPrecision" stroke-miterlimit="1.45" shape-rendering="geometricPrecision" transform="matrix(1,0,0,1,-825,-405)" stroke-linecap="butt">
      <path fill="none" d="M960 435 L960 457" clip-path="url(#clipPath2)"/>
      <path d="M960 465 L965 453 L960 456 L955 453 Z" clip-path="url(#clipPath2)" stroke="none"/>
      <text x="965.8714" xml:space="preserve" y="453.641" clip-path="url(#clipPath2)" font-family="sans-serif" stroke="none">b</text>
    </g>
  </g>
</svg>
