<?xml version="1.0" encoding="UTF-8"?><svg xmlns="http://www.w3.org/2000/svg" xmlns:xlink="http://www.w3.org/1999/xlink" fill-opacity="1" color-rendering="auto" color-interpolation="auto" text-rendering="auto" stroke="black" stroke-linecap="square" width="300" stroke-miterlimit="10" shape-rendering="auto" stroke-opacity="1" fill="black" stroke-dasharray="none" font-weight="normal" stroke-width="1" height="180" font-family="'Dialog'" font-style="normal" stroke-linejoin="miter" font-size="12px" stroke-dashoffset="0" image-rendering="auto">
  <!--Generated by ySVG 2.5-->
  <defs id="genericDefs"/>
  <g>
    <defs id="defs1">
      <clipPath clipPathUnits="userSpaceOnUse" id="clipPath1">
        <path d="M0 0 L300 0 L300 180 L0 180 L0 0 Z"/>
      </clipPath>
      <clipPath clipPathUnits="userSpaceOnUse" id="clipPath2">
        <path d="M810 390 L1110 390 L1110 570 L810 570 L810 390 Z"/>
      </clipPath>
      <clipPath clipPathUnits="userSpaceOnUse" id="clipPath3">
        <path d="M0 0 L0 20 L16 20 L16 0 Z"/>
      </clipPath>
    </defs>
    <g fill="white" text-rendering="geometricPrecision" shape-rendering="geometricPrecision" transform="translate(-810,-390)" stroke="white">
      <rect x="810" width="300" height="180" y="390" clip-path="url(#clipPath2)" stroke="none"/>
    </g>
    <g text-rendering="geometricPrecision" stroke-miterlimit="1.45" shape-rendering="geometricPrecision" transform="matrix(1,0,0,1,-810,-390)" stroke-linecap="butt">
      <rect fill="none" x="825" width="30" height="30" y="405" clip-path="url(#clipPath2)"/>
    </g>
    <g text-rendering="geometricPrecision" stroke-miterlimit="1.45" shape-rendering="geometricPrecision" font-family="sans-serif" transform="matrix(1,0,0,1,-810,-390) translate(832,410)" stroke-linecap="butt">
      <text x="0" xml:space="preserve" y="12" clip-path="url(#clipPath3)" stroke="none">X</text>
      <text x="9" xml:space="preserve" font-size="10px" y="17" clip-path="url(#clipPath3)" stroke="none">A</text>
    </g>
    <g text-rendering="geometricPrecision" stroke-miterlimit="1.45" shape-rendering="geometricPrecision" transform="matrix(1,0,0,1,-810,-390)" stroke-linecap="butt">
      <rect fill="none" x="825" width="30" height="30" y="525" clip-path="url(#clipPath2)"/>
    </g>
    <g text-rendering="geometricPrecision" stroke-miterlimit="1.45" shape-rendering="geometricPrecision" font-family="sans-serif" transform="matrix(1,0,0,1,-810,-390) translate(832,530)" stroke-linecap="butt">
      <text x="0" xml:space="preserve" y="12" clip-path="url(#clipPath3)" stroke="none">X</text>
      <text x="9" xml:space="preserve" font-size="10px" y="17" clip-path="url(#clipPath3)" stroke="none">B</text>
    </g>
    <g text-rendering="geometricPrecision" stroke-miterlimit="1.45" shape-rendering="geometricPrecision" transform="matrix(1,0,0,1,-810,-390)" stroke-linecap="butt">
      <circle fill="none" r="15" clip-path="url(#clipPath2)" cx="1080" cy="480"/>
      <text x="1076.335" xml:space="preserve" y="484.1543" clip-path="url(#clipPath2)" font-family="sans-serif" stroke="none">Y</text>
      <circle fill="none" r="15" clip-path="url(#clipPath2)" cx="960" cy="480"/>
      <path fill="none" d="M855 418.7672 L872.5436 417.3253 L904.3606 417.5576 L935.4507 420.6971 L965.8141 426.7435 L995.4507 435.6971 L1024.3606 447.5576 L1052.5437 462.3253 L1060.6606 467.5505" clip-path="url(#clipPath2)"/>
      <path d="M1067.3873 471.8808 L1060.0037 461.1811 L1059.8198 467.0092 L1054.5908 469.5895 Z" clip-path="url(#clipPath2)" stroke="none"/>
      <path fill="none" d="M855 541.296 L872.5787 542.8147 L904.4206 542.6824 L935.5257 539.603 L965.8941 533.5765 L995.5257 524.603 L1024.4205 512.6824 L1052.5786 497.8147 L1060.7128 492.5302" clip-path="url(#clipPath2)"/>
      <path d="M1067.4214 488.1719 L1054.6345 490.5165 L1059.8743 493.075 L1060.0824 498.9022 Z" clip-path="url(#clipPath2)" stroke="none"/>
      <path fill="none" d="M855 427.5 L939.4282 469.7141" clip-path="url(#clipPath2)"/>
      <path d="M946.5836 473.2918 L938.0865 463.4531 L938.5337 469.2668 L933.6144 472.3973 Z" clip-path="url(#clipPath2)" stroke="none"/>
      <path fill="none" d="M855 532.5 L939.4282 490.2859" clip-path="url(#clipPath2)"/>
      <path d="M946.5836 486.7082 L933.6144 487.6027 L938.5337 490.7332 L938.0865 496.5469 Z" clip-path="url(#clipPath2)" stroke="none"/>
      <path fill="none" d="M975 480 L1057 480" clip-path="url(#clipPath2)"/>
      <path d="M1065 480 L1053 475 L1056 480 L1053 485 Z" clip-path="url(#clipPath2)" stroke="none"/>
    </g>
  </g>
</svg>
